<svg width="218" height="110" viewBox="0 0 218 110" fill="none" xmlns="http://www.w3.org/2000/svg">
<g filter="url(#filter0_d_6514_12149)">
<rect x="68" y="49" width="146" height="53" rx="26.5" fill="#03071E" shape-rendering="crispEdges"/>
<rect x="68.15" y="49.15" width="145.7" height="52.7" rx="26.35" stroke="#2F2E41" stroke-width="0.3" shape-rendering="crispEdges"/>
<path d="M109.316 78.3965H113.404C113.322 79.7363 112.953 80.9258 112.297 81.9648C111.65 83.0039 110.743 83.8151 109.576 84.3984C108.419 84.9818 107.024 85.2734 105.393 85.2734C104.117 85.2734 102.973 85.0547 101.961 84.6172C100.949 84.1706 100.083 83.5326 99.3633 82.7031C98.6523 81.8737 98.11 80.8711 97.7363 79.6953C97.3626 78.5195 97.1758 77.2025 97.1758 75.7441V74.3633C97.1758 72.9049 97.3672 71.5879 97.75 70.4121C98.1419 69.2272 98.6979 68.2201 99.418 67.3906C100.147 66.5612 101.018 65.9232 102.029 65.4766C103.041 65.0299 104.171 64.8066 105.42 64.8066C107.079 64.8066 108.478 65.1074 109.617 65.709C110.766 66.3105 111.654 67.14 112.283 68.1973C112.921 69.2546 113.304 70.4577 113.432 71.8066H109.33C109.285 71.0046 109.125 70.3255 108.852 69.7695C108.578 69.2044 108.163 68.7806 107.607 68.498C107.061 68.2064 106.331 68.0605 105.42 68.0605C104.736 68.0605 104.139 68.1882 103.629 68.4434C103.118 68.6986 102.69 69.0859 102.344 69.6055C101.997 70.125 101.738 70.7812 101.564 71.5742C101.4 72.3581 101.318 73.2786 101.318 74.3359V75.7441C101.318 76.7741 101.396 77.681 101.551 78.4648C101.706 79.2396 101.943 79.8958 102.262 80.4336C102.59 80.9622 103.009 81.3633 103.52 81.6367C104.039 81.901 104.663 82.0332 105.393 82.0332C106.249 82.0332 106.956 81.8965 107.512 81.623C108.068 81.3496 108.492 80.944 108.783 80.4062C109.084 79.8685 109.262 79.1986 109.316 78.3965ZM115.223 77.7539V77.4668C115.223 76.3822 115.378 75.3841 115.688 74.4727C115.997 73.5521 116.449 72.7546 117.041 72.0801C117.633 71.4056 118.363 70.8815 119.229 70.5078C120.094 70.125 121.088 69.9336 122.209 69.9336C123.33 69.9336 124.328 70.125 125.203 70.5078C126.078 70.8815 126.812 71.4056 127.404 72.0801C128.006 72.7546 128.462 73.5521 128.771 74.4727C129.081 75.3841 129.236 76.3822 129.236 77.4668V77.7539C129.236 78.8294 129.081 79.8275 128.771 80.748C128.462 81.6595 128.006 82.457 127.404 83.1406C126.812 83.8151 126.083 84.3392 125.217 84.7129C124.351 85.0866 123.357 85.2734 122.236 85.2734C121.115 85.2734 120.117 85.0866 119.242 84.7129C118.376 84.3392 117.643 83.8151 117.041 83.1406C116.449 82.457 115.997 81.6595 115.688 80.748C115.378 79.8275 115.223 78.8294 115.223 77.7539ZM119.16 77.4668V77.7539C119.16 78.3737 119.215 78.9525 119.324 79.4902C119.434 80.028 119.607 80.502 119.844 80.9121C120.09 81.3132 120.409 81.6276 120.801 81.8555C121.193 82.0833 121.671 82.1973 122.236 82.1973C122.783 82.1973 123.253 82.0833 123.645 81.8555C124.036 81.6276 124.351 81.3132 124.588 80.9121C124.825 80.502 124.998 80.028 125.107 79.4902C125.226 78.9525 125.285 78.3737 125.285 77.7539V77.4668C125.285 76.8652 125.226 76.3001 125.107 75.7715C124.998 75.2337 124.82 74.7598 124.574 74.3496C124.337 73.9303 124.023 73.6022 123.631 73.3652C123.239 73.1283 122.765 73.0098 122.209 73.0098C121.653 73.0098 121.179 73.1283 120.787 73.3652C120.404 73.6022 120.09 73.9303 119.844 74.3496C119.607 74.7598 119.434 75.2337 119.324 75.7715C119.215 76.3001 119.16 76.8652 119.16 77.4668ZM140.393 81.7734V64H144.357V85H140.789L140.393 81.7734ZM131.041 77.7812V77.4941C131.041 76.3639 131.169 75.3385 131.424 74.418C131.679 73.4883 132.053 72.6908 132.545 72.0254C133.037 71.36 133.643 70.8451 134.363 70.4805C135.083 70.1159 135.904 69.9336 136.824 69.9336C137.69 69.9336 138.447 70.1159 139.094 70.4805C139.75 70.8451 140.306 71.3646 140.762 72.0391C141.227 72.7044 141.6 73.4928 141.883 74.4043C142.165 75.3066 142.37 76.2956 142.498 77.3711V78C142.37 79.0299 142.165 79.987 141.883 80.8711C141.6 81.7552 141.227 82.5299 140.762 83.1953C140.306 83.8516 139.75 84.362 139.094 84.7266C138.438 85.0911 137.672 85.2734 136.797 85.2734C135.876 85.2734 135.056 85.0866 134.336 84.7129C133.625 84.3392 133.023 83.8151 132.531 83.1406C132.048 82.4661 131.679 81.6732 131.424 80.7617C131.169 79.8503 131.041 78.8568 131.041 77.7812ZM134.979 77.4941V77.7812C134.979 78.3919 135.024 78.9616 135.115 79.4902C135.215 80.0189 135.375 80.4883 135.594 80.8984C135.822 81.2995 136.113 81.6139 136.469 81.8418C136.833 82.0605 137.275 82.1699 137.795 82.1699C138.469 82.1699 139.025 82.0195 139.463 81.7188C139.9 81.4089 140.233 80.985 140.461 80.4473C140.698 79.9095 140.835 79.2897 140.871 78.5879V76.7969C140.844 76.2227 140.762 75.7077 140.625 75.252C140.497 74.7871 140.306 74.3906 140.051 74.0625C139.805 73.7344 139.495 73.4792 139.121 73.2969C138.757 73.1146 138.324 73.0234 137.822 73.0234C137.312 73.0234 136.874 73.1419 136.51 73.3789C136.145 73.6068 135.849 73.9212 135.621 74.3223C135.402 74.7233 135.238 75.1973 135.129 75.7441C135.029 76.2819 134.979 76.8652 134.979 77.4941ZM151.59 70.207V85H147.639V70.207H151.59ZM147.393 66.3516C147.393 65.7773 147.593 65.3034 147.994 64.9297C148.395 64.556 148.933 64.3691 149.607 64.3691C150.273 64.3691 150.806 64.556 151.207 64.9297C151.617 65.3034 151.822 65.7773 151.822 66.3516C151.822 66.9258 151.617 67.3997 151.207 67.7734C150.806 68.1471 150.273 68.334 149.607 68.334C148.933 68.334 148.395 68.1471 147.994 67.7734C147.593 67.3997 147.393 66.9258 147.393 66.3516ZM158.699 73.3652V85H154.762V70.207H158.453L158.699 73.3652ZM158.125 77.084H157.059C157.059 75.9902 157.2 75.0059 157.482 74.1309C157.765 73.2467 158.161 72.4948 158.672 71.875C159.182 71.2461 159.788 70.7676 160.49 70.4395C161.201 70.1022 161.994 69.9336 162.869 69.9336C163.562 69.9336 164.195 70.0339 164.77 70.2344C165.344 70.4349 165.836 70.7539 166.246 71.1914C166.665 71.6289 166.984 72.2077 167.203 72.9277C167.431 73.6478 167.545 74.5273 167.545 75.5664V85H163.58V75.5527C163.58 74.8965 163.489 74.3861 163.307 74.0215C163.124 73.6569 162.855 73.4017 162.5 73.2559C162.154 73.1009 161.725 73.0234 161.215 73.0234C160.686 73.0234 160.226 73.1283 159.834 73.3379C159.451 73.5475 159.132 73.8392 158.877 74.2129C158.631 74.5775 158.444 75.0059 158.316 75.498C158.189 75.9902 158.125 76.5189 158.125 77.084ZM179.904 70.207H183.473V84.5078C183.473 85.8568 183.172 87.0007 182.57 87.9395C181.978 88.8874 181.148 89.6029 180.082 90.0859C179.016 90.5781 177.776 90.8242 176.363 90.8242C175.743 90.8242 175.087 90.7422 174.395 90.5781C173.711 90.4141 173.055 90.1589 172.426 89.8125C171.806 89.4661 171.286 89.0286 170.867 88.5L172.604 86.1758C173.059 86.7044 173.588 87.1146 174.189 87.4062C174.791 87.707 175.456 87.8574 176.186 87.8574C176.896 87.8574 177.498 87.7253 177.99 87.4609C178.482 87.2057 178.861 86.8275 179.125 86.3262C179.389 85.834 179.521 85.237 179.521 84.5352V73.625L179.904 70.207ZM169.951 77.7812V77.4941C169.951 76.3639 170.088 75.3385 170.361 74.418C170.644 73.4883 171.04 72.6908 171.551 72.0254C172.07 71.36 172.699 70.8451 173.438 70.4805C174.176 70.1159 175.01 69.9336 175.939 69.9336C176.924 69.9336 177.749 70.1159 178.414 70.4805C179.079 70.8451 179.626 71.3646 180.055 72.0391C180.483 72.7044 180.816 73.4928 181.053 74.4043C181.299 75.3066 181.49 76.2956 181.627 77.3711V78C181.49 79.0299 181.285 79.987 181.012 80.8711C180.738 81.7552 180.378 82.5299 179.932 83.1953C179.485 83.8516 178.929 84.362 178.264 84.7266C177.607 85.0911 176.824 85.2734 175.912 85.2734C175.001 85.2734 174.176 85.0866 173.438 84.7129C172.708 84.3392 172.084 83.8151 171.564 83.1406C171.045 82.4661 170.644 81.6732 170.361 80.7617C170.088 79.8503 169.951 78.8568 169.951 77.7812ZM173.889 77.4941V77.7812C173.889 78.3919 173.948 78.9616 174.066 79.4902C174.185 80.0189 174.367 80.4883 174.613 80.8984C174.868 81.2995 175.183 81.6139 175.557 81.8418C175.939 82.0605 176.391 82.1699 176.91 82.1699C177.63 82.1699 178.218 82.0195 178.674 81.7188C179.13 81.4089 179.471 80.985 179.699 80.4473C179.927 79.9095 180.059 79.2897 180.096 78.5879V76.7969C180.077 76.2227 180 75.7077 179.863 75.252C179.727 74.7871 179.535 74.3906 179.289 74.0625C179.043 73.7344 178.724 73.4792 178.332 73.2969C177.94 73.1146 177.475 73.0234 176.938 73.0234C176.418 73.0234 175.967 73.1419 175.584 73.3789C175.21 73.6068 174.896 73.9212 174.641 74.3223C174.395 74.7233 174.208 75.1973 174.08 75.7441C173.952 76.2819 173.889 76.8652 173.889 77.4941Z" fill="white"/>
</g>
<g clip-path="url(#clip0_6514_12149)">
<path d="M15.0898 24.8128C14.9547 25.3171 15.0254 25.8545 15.2865 26.3067C15.5476 26.7589 15.9776 27.0888 16.4819 27.224L22.8208 28.9225C23.3252 29.0576 23.8626 28.9869 24.3148 28.7258C24.767 28.4647 25.0969 28.0347 25.2321 27.5304C25.3672 27.026 25.2964 26.4886 25.0354 26.0364C24.7743 25.5842 24.3443 25.2543 23.8399 25.1191L17.501 23.4206C16.9967 23.2855 16.4593 23.3562 16.0071 23.6173C15.5549 23.8784 15.225 24.3084 15.0898 24.8128ZM23.3324 14.0312C22.8807 14.2924 22.5512 14.7221 22.4162 15.226C22.2811 15.73 22.3517 16.2669 22.6122 16.7189L25.8605 22.3451C25.9845 22.5786 26.1543 22.7847 26.3598 22.9511C26.5652 23.1176 26.802 23.2409 27.0561 23.3138C27.3103 23.3868 27.5765 23.4078 27.8389 23.3756C28.1013 23.3434 28.3546 23.2586 28.5835 23.1264C28.8125 22.9943 29.0125 22.8173 29.1716 22.6061C29.3307 22.395 29.4456 22.1539 29.5095 21.8974C29.5734 21.6408 29.585 21.374 29.5436 21.1129C29.5022 20.8518 29.4086 20.6017 29.2684 20.3776L26.0201 14.7514C25.759 14.2997 25.3292 13.9702 24.8253 13.8351C24.3213 13.7001 23.7844 13.7706 23.3324 14.0312ZM16.8373 38.2711C17.0985 38.7228 17.5282 39.0523 18.0322 39.1874C18.5361 39.3224 19.073 39.2519 19.525 38.9913L25.1512 35.743C25.3847 35.619 25.5908 35.4492 25.7572 35.2438C25.9237 35.0384 26.047 34.8015 26.12 34.5474C26.1929 34.2933 26.2139 34.027 26.1817 33.7646C26.1495 33.5022 26.0648 33.249 25.9326 33.02C25.8004 32.791 25.6234 32.591 25.4123 32.4319C25.2011 32.2728 24.9601 32.1579 24.7035 32.094C24.447 32.0301 24.1802 32.0185 23.9191 32.0599C23.6579 32.1014 23.4078 32.195 23.1837 32.3352L17.5575 35.5834C17.1058 35.8446 16.7763 36.2743 16.6413 36.7783C16.5062 37.2822 16.5768 37.8191 16.8373 38.2711ZM36.7908 12.2837C36.2864 12.1486 35.749 12.2193 35.2969 12.4804C34.8447 12.7415 34.5147 13.1715 34.3796 13.6758L32.6811 20.0147C32.5459 20.5191 32.6167 21.0564 32.8777 21.5086C33.1388 21.9608 33.5688 22.2908 34.0732 22.4259C34.5775 22.5611 35.1149 22.4903 35.5671 22.2292C36.0193 21.9682 36.3493 21.5382 36.4844 21.0338L38.1829 14.6949C38.318 14.1906 38.2473 13.6532 37.9862 13.201C37.7251 12.7488 37.2951 12.4188 36.7908 12.2837ZM34.5831 27.9978C31.7255 27.2321 29.2857 30.171 30.5659 32.8376L43.2054 59.2179C44.5649 62.0552 48.6973 61.7548 49.6348 58.753L52.6316 49.1204C52.9528 48.0841 53.6829 47.2253 54.6489 46.7341L63.8337 42.0913C66.6716 40.6587 66.237 36.4794 63.1664 35.6566L34.5831 27.9978Z" fill="#03071E"/>
</g>
<defs>
<filter id="filter0_d_6514_12149" x="64" y="49" width="154" height="61" filterUnits="userSpaceOnUse" color-interpolation-filters="sRGB">
<feFlood flood-opacity="0" result="BackgroundImageFix"/>
<feColorMatrix in="SourceAlpha" type="matrix" values="0 0 0 0 0 0 0 0 0 0 0 0 0 0 0 0 0 0 127 0" result="hardAlpha"/>
<feOffset dy="4"/>
<feGaussianBlur stdDeviation="2"/>
<feComposite in2="hardAlpha" operator="out"/>
<feColorMatrix type="matrix" values="0 0 0 0 0 0 0 0 0 0 0 0 0 0 0 0 0 0 0.25 0"/>
<feBlend mode="normal" in2="BackgroundImageFix" result="effect1_dropShadow_6514_12149"/>
<feBlend mode="normal" in="SourceGraphic" in2="effect1_dropShadow_6514_12149" result="shape"/>
</filter>
<clipPath id="clip0_6514_12149">
<rect width="63" height="63" fill="white" transform="matrix(-0.258819 0.965926 0.965926 0.258819 16.3047 0)"/>
</clipPath>
</defs>
</svg>
