<svg width="237" height="120" viewBox="0 0 237 120" fill="none" xmlns="http://www.w3.org/2000/svg">
<g filter="url(#filter0_d_6514_12154)">
<rect x="4" y="59" width="182" height="53" rx="26.5" fill="#03071E" shape-rendering="crispEdges"/>
<rect x="4.15" y="59.15" width="181.7" height="52.7" rx="26.35" stroke="#2F2E41" stroke-width="0.3" shape-rendering="crispEdges"/>
<path d="M39.8887 95H35.5547L35.582 91.8008H39.8887C40.9642 91.8008 41.8711 91.5592 42.6094 91.0762C43.3477 90.584 43.9036 89.8685 44.2773 88.9297C44.6602 87.9909 44.8516 86.8561 44.8516 85.5254V84.5547C44.8516 83.5339 44.7422 82.6361 44.5234 81.8613C44.3138 81.0866 43.9993 80.4349 43.5801 79.9062C43.1608 79.3776 42.6458 78.9811 42.0352 78.7168C41.4245 78.4434 40.7227 78.3066 39.9297 78.3066H35.4727V75.0938H39.9297C41.2604 75.0938 42.4772 75.3216 43.5801 75.7773C44.6921 76.224 45.6536 76.8665 46.4648 77.7051C47.276 78.5436 47.9004 79.5462 48.3379 80.7129C48.7845 81.8704 49.0078 83.1602 49.0078 84.582V85.5254C49.0078 86.9382 48.7845 88.2279 48.3379 89.3945C47.9004 90.5612 47.276 91.5638 46.4648 92.4023C45.6628 93.2318 44.7012 93.8743 43.5801 94.3301C42.4681 94.7767 41.2376 95 39.8887 95ZM37.8789 75.0938V95H33.7773V75.0938H37.8789ZM58.5508 95.2734C57.4023 95.2734 56.3724 95.0911 55.4609 94.7266C54.5495 94.3529 53.7747 93.8379 53.1367 93.1816C52.5078 92.5254 52.0247 91.7643 51.6875 90.8984C51.3503 90.0234 51.1816 89.0938 51.1816 88.1094V87.5625C51.1816 86.4414 51.3411 85.416 51.6602 84.4863C51.9792 83.5566 52.4349 82.75 53.0273 82.0664C53.6289 81.3828 54.3581 80.8587 55.2148 80.4941C56.0716 80.1204 57.0378 79.9336 58.1133 79.9336C59.1615 79.9336 60.0911 80.1068 60.9023 80.4531C61.7135 80.7995 62.3926 81.2917 62.9395 81.9297C63.4954 82.5677 63.9147 83.3333 64.1973 84.2266C64.4798 85.1107 64.6211 86.0951 64.6211 87.1797V88.8203H52.8633V86.1953H60.752V85.8945C60.752 85.3477 60.6517 84.86 60.4512 84.4316C60.2598 83.9941 59.9681 83.6478 59.5762 83.3926C59.1842 83.1374 58.6829 83.0098 58.0723 83.0098C57.5527 83.0098 57.1061 83.1237 56.7324 83.3516C56.3587 83.5794 56.0534 83.8984 55.8164 84.3086C55.5885 84.7188 55.4154 85.2018 55.2969 85.7578C55.1875 86.3047 55.1328 86.9062 55.1328 87.5625V88.1094C55.1328 88.7018 55.2148 89.2487 55.3789 89.75C55.5521 90.2513 55.7936 90.6842 56.1035 91.0488C56.4225 91.4134 56.8053 91.696 57.252 91.8965C57.7077 92.097 58.2227 92.1973 58.7969 92.1973C59.5078 92.1973 60.1686 92.0605 60.7793 91.7871C61.3991 91.5046 61.9323 91.0807 62.3789 90.5156L64.293 92.5938C63.9831 93.0404 63.5592 93.4688 63.0215 93.8789C62.4928 94.2891 61.8548 94.6263 61.1074 94.8906C60.36 95.1458 59.5078 95.2734 58.5508 95.2734ZM74.8613 90.9121C74.8613 90.6296 74.7793 90.3743 74.6152 90.1465C74.4512 89.9186 74.1458 89.709 73.6992 89.5176C73.2617 89.3171 72.6283 89.1348 71.7988 88.9707C71.0514 88.8066 70.3542 88.6016 69.707 88.3555C69.069 88.1003 68.513 87.7949 68.0391 87.4395C67.5742 87.084 67.2096 86.6647 66.9453 86.1816C66.681 85.6895 66.5488 85.1289 66.5488 84.5C66.5488 83.8802 66.681 83.2969 66.9453 82.75C67.2188 82.2031 67.6061 81.7201 68.1074 81.3008C68.6178 80.8724 69.2376 80.5397 69.9668 80.3027C70.7051 80.0566 71.5345 79.9336 72.4551 79.9336C73.7402 79.9336 74.8431 80.1387 75.7637 80.5488C76.6934 80.959 77.4043 81.5241 77.8965 82.2441C78.3978 82.9551 78.6484 83.7663 78.6484 84.6777H74.7109C74.7109 84.2949 74.6289 83.9531 74.4648 83.6523C74.3099 83.3424 74.0638 83.1009 73.7266 82.9277C73.3984 82.7454 72.9701 82.6543 72.4414 82.6543C72.0039 82.6543 71.6257 82.7318 71.3066 82.8867C70.9876 83.0326 70.7415 83.2331 70.5684 83.4883C70.4043 83.7344 70.3223 84.0078 70.3223 84.3086C70.3223 84.5365 70.3678 84.7415 70.459 84.9238C70.5592 85.097 70.7188 85.2565 70.9375 85.4023C71.1562 85.5482 71.4388 85.6849 71.7852 85.8125C72.1406 85.931 72.5781 86.0404 73.0977 86.1406C74.1641 86.3594 75.1165 86.6465 75.9551 87.002C76.7936 87.3483 77.459 87.8223 77.9512 88.4238C78.4434 89.0163 78.6895 89.7956 78.6895 90.7617C78.6895 91.418 78.5436 92.0195 78.252 92.5664C77.9603 93.1133 77.541 93.5918 76.9941 94.002C76.4473 94.403 75.791 94.7174 75.0254 94.9453C74.2689 95.1641 73.4167 95.2734 72.4688 95.2734C71.0924 95.2734 69.9258 95.0273 68.9688 94.5352C68.0208 94.043 67.3008 93.4186 66.8086 92.6621C66.3255 91.8965 66.084 91.1126 66.084 90.3105H69.8164C69.8346 90.8483 69.9714 91.2812 70.2266 91.6094C70.4909 91.9375 70.8236 92.1745 71.2246 92.3203C71.6348 92.4661 72.0768 92.5391 72.5508 92.5391C73.0612 92.5391 73.485 92.4707 73.8223 92.334C74.1595 92.1882 74.4147 91.9967 74.5879 91.7598C74.7702 91.5137 74.8613 91.2311 74.8613 90.9121ZM85.4023 80.207V95H81.4512V80.207H85.4023ZM81.2051 76.3516C81.2051 75.7773 81.4056 75.3034 81.8066 74.9297C82.2077 74.556 82.7454 74.3691 83.4199 74.3691C84.0853 74.3691 84.6185 74.556 85.0195 74.9297C85.4297 75.3034 85.6348 75.7773 85.6348 76.3516C85.6348 76.9258 85.4297 77.3997 85.0195 77.7734C84.6185 78.1471 84.0853 78.334 83.4199 78.334C82.7454 78.334 82.2077 78.1471 81.8066 77.7734C81.4056 77.3997 81.2051 76.9258 81.2051 76.3516ZM98.0215 80.207H101.59V94.5078C101.59 95.8568 101.289 97.0007 100.688 97.9395C100.095 98.8874 99.2656 99.6029 98.1992 100.086C97.1328 100.578 95.8932 100.824 94.4805 100.824C93.8607 100.824 93.2044 100.742 92.5117 100.578C91.8281 100.414 91.1719 100.159 90.543 99.8125C89.9232 99.4661 89.4036 99.0286 88.9844 98.5L90.7207 96.1758C91.1764 96.7044 91.7051 97.1146 92.3066 97.4062C92.9082 97.707 93.5736 97.8574 94.3027 97.8574C95.0137 97.8574 95.6152 97.7253 96.1074 97.4609C96.5996 97.2057 96.9779 96.8275 97.2422 96.3262C97.5065 95.834 97.6387 95.237 97.6387 94.5352V83.625L98.0215 80.207ZM88.0684 87.7812V87.4941C88.0684 86.3639 88.2051 85.3385 88.4785 84.418C88.7611 83.4883 89.1576 82.6908 89.668 82.0254C90.1875 81.36 90.8164 80.8451 91.5547 80.4805C92.293 80.1159 93.127 79.9336 94.0566 79.9336C95.041 79.9336 95.8659 80.1159 96.5312 80.4805C97.1966 80.8451 97.7435 81.3646 98.1719 82.0391C98.6003 82.7044 98.9329 83.4928 99.1699 84.4043C99.416 85.3066 99.6074 86.2956 99.7441 87.3711V88C99.6074 89.0299 99.4023 89.987 99.1289 90.8711C98.8555 91.7552 98.4954 92.5299 98.0488 93.1953C97.6022 93.8516 97.0462 94.362 96.3809 94.7266C95.7246 95.0911 94.9408 95.2734 94.0293 95.2734C93.1178 95.2734 92.293 95.0866 91.5547 94.7129C90.8255 94.3392 90.2012 93.8151 89.6816 93.1406C89.1621 92.4661 88.7611 91.6732 88.4785 90.7617C88.2051 89.8503 88.0684 88.8568 88.0684 87.7812ZM92.0059 87.4941V87.7812C92.0059 88.3919 92.0651 88.9616 92.1836 89.4902C92.3021 90.0189 92.4844 90.4883 92.7305 90.8984C92.9857 91.2995 93.3001 91.6139 93.6738 91.8418C94.0566 92.0605 94.5078 92.1699 95.0273 92.1699C95.7474 92.1699 96.3353 92.0195 96.791 91.7188C97.2467 91.4089 97.5885 90.985 97.8164 90.4473C98.0443 89.9095 98.1764 89.2897 98.2129 88.5879V86.7969C98.1947 86.2227 98.1172 85.7077 97.9805 85.252C97.8438 84.7871 97.6523 84.3906 97.4062 84.0625C97.1602 83.7344 96.8411 83.4792 96.4492 83.2969C96.0573 83.1146 95.5924 83.0234 95.0547 83.0234C94.5352 83.0234 94.084 83.1419 93.7012 83.3789C93.3275 83.6068 93.013 83.9212 92.7578 84.3223C92.5117 84.7233 92.3249 85.1973 92.1973 85.7441C92.0697 86.2819 92.0059 86.8652 92.0059 87.4941ZM108.508 83.3652V95H104.57V80.207H108.262L108.508 83.3652ZM107.934 87.084H106.867C106.867 85.9902 107.008 85.0059 107.291 84.1309C107.574 83.2467 107.97 82.4948 108.48 81.875C108.991 81.2461 109.597 80.7676 110.299 80.4395C111.01 80.1022 111.803 79.9336 112.678 79.9336C113.37 79.9336 114.004 80.0339 114.578 80.2344C115.152 80.4349 115.645 80.7539 116.055 81.1914C116.474 81.6289 116.793 82.2077 117.012 82.9277C117.24 83.6478 117.354 84.5273 117.354 85.5664V95H113.389V85.5527C113.389 84.8965 113.298 84.3861 113.115 84.0215C112.933 83.6569 112.664 83.4017 112.309 83.2559C111.962 83.1009 111.534 83.0234 111.023 83.0234C110.495 83.0234 110.035 83.1283 109.643 83.3379C109.26 83.5475 108.941 83.8392 108.686 84.2129C108.439 84.5775 108.253 85.0059 108.125 85.498C107.997 85.9902 107.934 86.5189 107.934 87.084ZM124.504 80.207V95H120.553V80.207H124.504ZM120.307 76.3516C120.307 75.7773 120.507 75.3034 120.908 74.9297C121.309 74.556 121.847 74.3691 122.521 74.3691C123.187 74.3691 123.72 74.556 124.121 74.9297C124.531 75.3034 124.736 75.7773 124.736 76.3516C124.736 76.9258 124.531 77.3997 124.121 77.7734C123.72 78.1471 123.187 78.334 122.521 78.334C121.847 78.334 121.309 78.1471 120.908 77.7734C120.507 77.3997 120.307 76.9258 120.307 76.3516ZM131.613 83.3652V95H127.676V80.207H131.367L131.613 83.3652ZM131.039 87.084H129.973C129.973 85.9902 130.114 85.0059 130.396 84.1309C130.679 83.2467 131.076 82.4948 131.586 81.875C132.096 81.2461 132.702 80.7676 133.404 80.4395C134.115 80.1022 134.908 79.9336 135.783 79.9336C136.476 79.9336 137.109 80.0339 137.684 80.2344C138.258 80.4349 138.75 80.7539 139.16 81.1914C139.579 81.6289 139.898 82.2077 140.117 82.9277C140.345 83.6478 140.459 84.5273 140.459 85.5664V95H136.494V85.5527C136.494 84.8965 136.403 84.3861 136.221 84.0215C136.038 83.6569 135.77 83.4017 135.414 83.2559C135.068 83.1009 134.639 83.0234 134.129 83.0234C133.6 83.0234 133.14 83.1283 132.748 83.3379C132.365 83.5475 132.046 83.8392 131.791 84.2129C131.545 84.5775 131.358 85.0059 131.23 85.498C131.103 85.9902 131.039 86.5189 131.039 87.084ZM152.818 80.207H156.387V94.5078C156.387 95.8568 156.086 97.0007 155.484 97.9395C154.892 98.8874 154.062 99.6029 152.996 100.086C151.93 100.578 150.69 100.824 149.277 100.824C148.658 100.824 148.001 100.742 147.309 100.578C146.625 100.414 145.969 100.159 145.34 99.8125C144.72 99.4661 144.201 99.0286 143.781 98.5L145.518 96.1758C145.973 96.7044 146.502 97.1146 147.104 97.4062C147.705 97.707 148.37 97.8574 149.1 97.8574C149.811 97.8574 150.412 97.7253 150.904 97.4609C151.396 97.2057 151.775 96.8275 152.039 96.3262C152.303 95.834 152.436 95.237 152.436 94.5352V83.625L152.818 80.207ZM142.865 87.7812V87.4941C142.865 86.3639 143.002 85.3385 143.275 84.418C143.558 83.4883 143.954 82.6908 144.465 82.0254C144.984 81.36 145.613 80.8451 146.352 80.4805C147.09 80.1159 147.924 79.9336 148.854 79.9336C149.838 79.9336 150.663 80.1159 151.328 80.4805C151.993 80.8451 152.54 81.3646 152.969 82.0391C153.397 82.7044 153.73 83.4928 153.967 84.4043C154.213 85.3066 154.404 86.2956 154.541 87.3711V88C154.404 89.0299 154.199 89.987 153.926 90.8711C153.652 91.7552 153.292 92.5299 152.846 93.1953C152.399 93.8516 151.843 94.362 151.178 94.7266C150.521 95.0911 149.738 95.2734 148.826 95.2734C147.915 95.2734 147.09 95.0866 146.352 94.7129C145.622 94.3392 144.998 93.8151 144.479 93.1406C143.959 92.4661 143.558 91.6732 143.275 90.7617C143.002 89.8503 142.865 88.8568 142.865 87.7812ZM146.803 87.4941V87.7812C146.803 88.3919 146.862 88.9616 146.98 89.4902C147.099 90.0189 147.281 90.4883 147.527 90.8984C147.783 91.2995 148.097 91.6139 148.471 91.8418C148.854 92.0605 149.305 92.1699 149.824 92.1699C150.544 92.1699 151.132 92.0195 151.588 91.7188C152.044 91.4089 152.385 90.985 152.613 90.4473C152.841 89.9095 152.973 89.2897 153.01 88.5879V86.7969C152.992 86.2227 152.914 85.7077 152.777 85.252C152.641 84.7871 152.449 84.3906 152.203 84.0625C151.957 83.7344 151.638 83.4792 151.246 83.2969C150.854 83.1146 150.389 83.0234 149.852 83.0234C149.332 83.0234 148.881 83.1419 148.498 83.3789C148.124 83.6068 147.81 83.9212 147.555 84.3223C147.309 84.7233 147.122 85.1973 146.994 85.7441C146.867 86.2819 146.803 86.8652 146.803 87.4941Z" fill="white"/>
</g>
<g clip-path="url(#clip0_6514_12154)">
<path d="M211.346 15.0923C210.842 14.9571 210.304 15.0279 209.852 15.289C209.4 15.55 209.07 15.98 208.935 16.4844L207.236 22.8233C207.101 23.3276 207.172 23.865 207.433 24.3172C207.694 24.7694 208.124 25.0994 208.628 25.2345C209.133 25.3696 209.67 25.2989 210.122 25.0378C210.574 24.7767 210.904 24.3467 211.04 23.8424L212.738 17.5035C212.873 16.9991 212.802 16.4618 212.541 16.0096C212.28 15.5574 211.85 15.2274 211.346 15.0923ZM222.127 23.3348C221.866 22.8832 221.437 22.5536 220.933 22.4186C220.429 22.2836 219.892 22.3541 219.44 22.6147L213.814 25.863C213.58 25.987 213.374 26.1568 213.208 26.3622C213.041 26.5676 212.918 26.8045 212.845 27.0586C212.772 27.3127 212.751 27.5789 212.783 27.8414C212.815 28.1038 212.9 28.357 213.032 28.586C213.164 28.8149 213.341 29.0149 213.553 29.174C213.764 29.3331 214.005 29.4481 214.261 29.512C214.518 29.5759 214.785 29.5875 215.046 29.546C215.307 29.5046 215.557 29.411 215.781 29.2708L221.407 26.0225C221.859 25.7614 222.189 25.3317 222.324 24.8277C222.459 24.3238 222.388 23.7868 222.127 23.3348ZM197.888 16.8398C197.436 17.1009 197.106 17.5307 196.971 18.0346C196.836 18.5386 196.907 19.0755 197.167 19.5275L200.416 25.1536C200.54 25.3871 200.71 25.5932 200.915 25.7597C201.12 25.9261 201.357 26.0495 201.611 26.1224C201.865 26.1953 202.132 26.2163 202.394 26.1841C202.656 26.1519 202.91 26.0672 203.139 25.935C203.368 25.8028 203.568 25.6259 203.727 25.4147C203.886 25.2035 204.001 24.9625 204.065 24.706C204.129 24.4494 204.14 24.1826 204.099 23.9215C204.057 23.6604 203.964 23.4103 203.824 23.1861L200.575 17.5599C200.314 17.1083 199.884 16.7787 199.38 16.6437C198.876 16.5087 198.34 16.5792 197.888 16.8398ZM223.875 36.7932C224.01 36.2889 223.939 35.7515 223.678 35.2993C223.417 34.8471 222.987 34.5171 222.483 34.382L216.144 32.6835C215.64 32.5484 215.102 32.6191 214.65 32.8802C214.198 33.1413 213.868 33.5713 213.733 34.0756C213.598 34.58 213.668 35.1174 213.929 35.5695C214.191 36.0217 214.621 36.3517 215.125 36.4868L221.464 38.1853C221.968 38.3205 222.506 38.2497 222.958 37.9887C223.41 37.7276 223.74 37.2976 223.875 36.7932ZM208.161 34.5855C208.927 31.728 205.988 29.2882 203.321 30.5684L176.941 43.2078C174.103 44.5673 174.404 48.6997 177.406 49.6372L187.038 52.6341C188.075 52.9552 188.933 53.6854 189.425 54.6513L194.067 63.8361C195.5 66.674 199.679 66.2394 200.502 63.1688L208.161 34.5855Z" fill="#03071E"/>
</g>
<defs>
<filter id="filter0_d_6514_12154" x="0" y="59" width="190" height="61" filterUnits="userSpaceOnUse" color-interpolation-filters="sRGB">
<feFlood flood-opacity="0" result="BackgroundImageFix"/>
<feColorMatrix in="SourceAlpha" type="matrix" values="0 0 0 0 0 0 0 0 0 0 0 0 0 0 0 0 0 0 127 0" result="hardAlpha"/>
<feOffset dy="4"/>
<feGaussianBlur stdDeviation="2"/>
<feComposite in2="hardAlpha" operator="out"/>
<feColorMatrix type="matrix" values="0 0 0 0 0 0 0 0 0 0 0 0 0 0 0 0 0 0 0.25 0"/>
<feBlend mode="normal" in2="BackgroundImageFix" result="effect1_dropShadow_6514_12154"/>
<feBlend mode="normal" in="SourceGraphic" in2="effect1_dropShadow_6514_12154" result="shape"/>
</filter>
<clipPath id="clip0_6514_12154">
<rect width="63" height="63" fill="white" transform="matrix(-0.965926 -0.258819 -0.258819 0.965926 236.16 16.3057)"/>
</clipPath>
</defs>
</svg>
