<svg width="4876" height="1467" viewBox="0 0 4876 1467" fill="none" xmlns="http://www.w3.org/2000/svg">
<path d="M542.316 920.319L544.772 221.822L546.344 156L392.694 260.038L208 396.102L214.189 396.397H367.642V920.319V1037.52V1205.22H542.316V920.319Z" fill="black" stroke="black" stroke-width="0.460551" stroke-miterlimit="10"/>
<path d="M739.788 1205.4L1321.87 623.316H885.284C844.317 623.316 809.834 609.267 781.835 581.269C753.837 552.484 739.788 518.001 739.788 477.82H1612.96L1556.47 550.519L1103.58 1059.9H1467.36C1507.55 1059.9 1541.64 1074.34 1569.63 1103.13C1598.42 1131.91 1612.86 1166 1612.86 1205.49H739.788V1205.4Z" fill="black"/>
<path d="M1903.95 623.316C1862.98 623.316 1828.5 609.267 1800.5 581.269C1772.4 552.484 1758.45 518.001 1758.45 477.82H2631.62C2631.62 518.787 2617.18 553.27 2588.4 581.269C2559.61 609.366 2525.42 623.316 2486.03 623.316H1903.95ZM1903.95 914.307C1862.98 914.307 1828.5 900.259 1800.5 872.26C1772.4 843.475 1758.45 808.992 1758.45 768.812H2631.62C2631.62 809.778 2617.18 844.261 2588.4 872.26C2559.61 900.259 2525.42 914.307 2486.03 914.307H1903.95ZM1903.95 1205.4C1862.98 1205.4 1828.5 1191.35 1800.5 1163.35C1772.4 1134.56 1758.45 1100.08 1758.45 1059.9H2631.62C2631.62 1100.87 2617.18 1135.35 2588.4 1163.35C2559.61 1191.45 2525.42 1205.4 2486.03 1205.4H1903.95Z" fill="black"/>
<path d="M2777.11 1205.45V768.96H3431.99C3451.74 768.96 3468.73 762.181 3483.17 748.526C3497.52 734.182 3504.79 716.696 3504.79 696.261V623.464H2922.71C2881.74 623.464 2847.26 609.416 2819.26 581.417C2791.16 552.632 2777.21 518.15 2777.21 477.969H3650.38V769.058C3650.38 810.025 3635.94 844.508 3607.15 872.507C3578.37 900.506 3544.18 914.554 3504.79 914.554H3359.29L3650.38 1205.64H3432.09L3141.1 914.554H2922.8V1205.64H2777.31L2777.11 1205.45Z" fill="black"/>
<path d="M4523.35 1059.9C4564.32 1059.9 4598.8 1073.95 4626.8 1101.95C4654.9 1130.73 4668.85 1165.22 4668.85 1205.4H3795.68C3795.68 1164.43 3810.12 1129.95 3838.9 1101.95C3867.69 1073.85 3901.88 1059.9 3941.27 1059.9H4523.35ZM4668.85 477.82V914.406H4523.35V623.316H3941.27V914.406H3795.78V477.82H4668.95H4668.85Z" fill="black"/>
<path d="M4248.97 885.936L4249.46 741.815L4249.86 728.258L4218.13 749.675L4180.01 777.772L4181.29 777.87H4212.92V885.936V910.103V944.684H4248.97V885.936Z" fill="black" stroke="black" stroke-width="0.460551" stroke-miterlimit="10"/>
</svg>
