<svg width="3099" height="462" viewBox="0 0 3099 462" fill="none" xmlns="http://www.w3.org/2000/svg">
<path d="M0.15625 20.3125H108.405C136.391 20.3125 157.383 28.0741 171.38 43.5972C185.396 59.1204 192.557 82.1094 192.852 112.564L193.776 296.107C194.072 334.795 187.364 363.882 173.672 383.369C159.97 402.838 137.287 412.568 105.633 412.568H0.15625V20.3125ZM92.8825 343.157C107.167 343.157 114.318 336.162 114.318 322.164V119.845C114.318 111.031 113.625 104.415 112.248 99.998C110.89 95.5905 108.386 92.6245 104.746 91.0907C101.096 89.5661 95.4696 88.7992 87.8563 88.7992H79.1713V343.157H92.8825Z" fill="white"/>
<path d="M223.441 55.9386V0.203125H303.343V55.9386H223.441ZM223.441 412.564V78.2993H303.343V412.564H223.441Z" fill="white"/>
<path d="M424.79 461.426C401.063 461.426 382.418 459.513 368.873 455.697C355.319 451.899 342.005 444.683 328.922 434.038L356.307 387.913C375.793 399.472 395.122 405.247 414.294 405.247C426.785 405.247 436.219 401.292 442.603 393.383C449.006 385.473 452.212 374.672 452.212 360.969V342.711C445.8 365.533 428.901 376.935 401.506 376.935C378.685 376.935 361.869 369.174 351.059 353.651C340.24 338.128 334.835 317.43 334.835 291.558V165.968C334.835 136.456 339.769 113.855 349.655 98.1841C359.56 82.4946 376.837 74.6406 401.506 74.6406C415.818 74.6406 427.155 78.2257 435.507 85.3959C443.878 92.5477 449.449 102.656 452.212 115.74V78.2997H533.925V355.942C533.925 393.401 525.249 420.336 507.907 436.774C490.555 453.202 462.856 461.426 424.79 461.426ZM433.475 316.654C445.966 316.654 452.212 305.4 452.212 282.873V163.714C452.212 157.015 450.373 150.621 446.705 144.532C443.056 138.452 438.501 135.403 433.031 135.403C426.028 135.403 421.316 137.916 418.876 142.942C416.437 147.951 415.218 154.871 415.218 163.714V282.873C415.218 292.926 416.437 301.075 418.876 307.303C421.316 313.54 426.175 316.654 433.475 316.654Z" fill="white"/>
<path d="M564.508 55.9386V0.203125H644.41V55.9386H564.508ZM564.508 412.564V78.2993H644.41V412.564H564.508Z" fill="white"/>
<path d="M744.861 416.227C723.869 416.227 709.4 411.819 701.473 402.995C693.564 394.152 689.609 379.997 689.609 360.528V151.816H667.25V91.0907H689.609V20.3125H767.22V91.0907H790.06V151.816H767.22V339.498C767.22 345.291 767.673 349.551 768.587 352.286C769.521 355.021 771.96 356.389 775.905 356.389C778.954 356.389 781.855 356.241 784.59 355.945C787.325 355.649 789.145 355.502 790.06 355.502V410.276C785.495 411.514 778.88 412.799 770.214 414.157C761.538 415.534 753.084 416.227 744.861 416.227Z" fill="white"/>
<path d="M875.916 416.224C850.018 416.224 832.278 407.631 822.697 390.426C813.106 373.23 808.32 348.643 808.32 316.654C808.32 290.486 811.739 270.408 818.594 256.409C825.441 242.392 834.948 232.117 847.126 225.585C859.294 219.034 877.874 211.799 902.858 203.889L924.773 196.571V162.309C924.773 153.495 923.009 146.731 919.488 142.018C915.987 137.288 911.81 134.922 906.96 134.922C902.691 134.922 898.958 136.909 895.762 140.873C892.556 144.818 890.957 150.14 890.957 156.839V176.946H813.347V165.968C813.347 133.102 821.034 109.669 836.408 95.6708C851.782 81.6538 876.812 74.6406 911.506 74.6406C939.224 74.6406 961.749 81.8755 979.101 96.3361C996.443 110.806 1005.12 131.282 1005.12 157.763V412.565H925.66V372.833C921.715 386.536 915.395 397.189 906.701 404.803C898.025 412.417 887.76 416.224 875.916 416.224ZM907.403 354.131C913.483 354.131 917.825 351.618 920.412 346.591C922.999 341.565 924.293 335.393 924.293 328.075V234.936C912.411 239.5 903.652 245.284 898.016 252.307C892.399 259.311 889.59 269.04 889.59 281.505V324.415C889.59 344.226 895.521 354.131 907.403 354.131Z" fill="white"/>
<path d="M1035.68 412.562V18.0156H1116.99V412.562H1035.68Z" fill="white"/>
<path d="M1257.12 412.568V20.3125H1376.76L1409.65 259.591L1442.54 20.3125H1563.06V412.568H1491.4V129.899L1446.16 412.568H1375.87L1327.94 129.899V412.568H1257.12Z" fill="white"/>
<path d="M1657.12 416.224C1631.22 416.224 1613.49 407.631 1603.9 390.426C1594.31 373.23 1589.53 348.643 1589.53 316.654C1589.53 290.486 1592.95 270.408 1599.8 256.409C1606.65 242.392 1616.16 232.117 1628.33 225.585C1640.5 219.034 1659.08 211.799 1684.06 203.889L1705.98 196.571V162.309C1705.98 153.495 1704.22 146.731 1700.7 142.018C1697.19 137.288 1693.02 134.922 1688.17 134.922C1683.9 134.922 1680.17 136.909 1676.97 140.873C1673.76 144.818 1672.16 150.14 1672.16 156.839V176.946H1594.55V165.968C1594.55 133.102 1602.24 109.669 1617.62 95.6708C1632.99 81.6538 1658.02 74.6406 1692.71 74.6406C1720.43 74.6406 1742.96 81.8755 1760.31 96.3361C1777.65 110.806 1786.33 131.282 1786.33 157.763V412.565H1706.87V372.833C1702.92 386.536 1696.6 397.189 1687.91 404.803C1679.23 412.417 1668.97 416.224 1657.12 416.224ZM1688.61 354.131C1694.69 354.131 1699.03 351.618 1701.62 346.591C1704.21 341.565 1705.5 335.393 1705.5 328.075V234.936C1693.62 239.5 1684.86 245.284 1679.22 252.307C1673.61 259.311 1670.8 269.04 1670.8 281.505V324.415C1670.8 344.226 1676.73 354.131 1688.61 354.131Z" fill="white"/>
<path d="M1816.89 78.2979H1896.83V115.295C1900.77 102.211 1907.68 92.1024 1917.57 84.9506C1927.47 77.7804 1939.72 74.1953 1954.34 74.1953V140.871C1943.08 140.871 1930.67 142.479 1917.12 145.676C1903.6 148.854 1896.83 152.578 1896.83 156.838V412.563H1816.89V78.2979Z" fill="white"/>
<path d="M1973.96 412.562V18.0156H2052.97V193.39L2091.33 78.2972H2173.97L2123.75 223.513L2187.68 412.562H2102.75L2052.97 255.039V412.562H1973.96Z" fill="white"/>
<path d="M2291.75 416.224C2257.36 416.224 2232.7 406.79 2217.77 387.913C2202.85 369.045 2195.41 340.881 2195.41 303.422V169.184C2195.41 138.433 2204.22 114.992 2221.87 98.8493C2239.53 82.7164 2264.19 74.6406 2295.86 74.6406C2360.09 74.6406 2392.2 106.158 2392.2 169.184V193.393C2392.2 217.74 2391.91 237.523 2391.32 252.75H2275.31V317.578C2275.31 329.165 2276.53 338.229 2278.97 344.78C2281.41 351.313 2286.58 354.575 2294.49 354.575C2300.57 354.575 2304.91 352.754 2307.5 349.105C2310.09 345.436 2311.61 341.251 2312.08 336.538C2312.54 331.807 2312.78 324.887 2312.78 315.767V283.353H2392.2V302.498C2392.2 341.482 2384.67 370.19 2369.59 388.615C2354.53 407.021 2328.58 416.224 2291.75 416.224ZM2312.78 213.018V170.071C2312.78 146.029 2306.84 133.998 2294.97 133.998C2281.56 133.998 2274.86 146.029 2274.86 170.071V213.018H2312.78Z" fill="white"/>
<path d="M2489.91 416.227C2468.92 416.227 2454.45 411.819 2446.52 402.995C2438.61 394.152 2434.66 379.997 2434.66 360.528V151.816H2412.3V91.0907H2434.66V20.3125H2512.27V91.0907H2535.11V151.816H2512.27V339.498C2512.27 345.291 2512.72 349.551 2513.64 352.286C2514.57 355.021 2517.01 356.389 2520.96 356.389C2524 356.389 2526.91 356.241 2529.64 355.945C2532.38 355.649 2534.2 355.502 2535.11 355.502V410.276C2530.55 411.514 2523.93 412.799 2515.26 414.157C2506.59 415.534 2498.13 416.227 2489.91 416.227Z" fill="white"/>
<path d="M2559.77 55.9386V0.203125H2639.67V55.9386H2559.77ZM2559.77 412.564V78.2993H2639.67V412.564H2559.77Z" fill="white"/>
<path d="M2671.16 78.2997H2751.1V120.767C2754.42 107.073 2760.2 95.9572 2768.43 87.4287C2776.65 78.9095 2787.62 74.6406 2801.32 74.6406C2823.84 74.6406 2840.5 81.5798 2851.29 95.449C2862.1 109.3 2867.51 128.999 2867.51 154.548V412.565H2788.98V162.79C2788.98 155.472 2787.52 149.226 2784.62 144.051C2781.73 138.877 2777.24 136.29 2771.16 136.29C2762.96 136.29 2757.56 140.023 2754.98 147.489C2752.39 154.954 2751.1 164.924 2751.1 177.389V412.565H2671.16V78.2997Z" fill="white"/>
<path d="M2988.95 461.426C2965.22 461.426 2946.57 459.513 2933.03 455.697C2919.47 451.899 2906.16 444.683 2893.08 434.038L2920.46 387.913C2939.95 399.472 2959.28 405.247 2978.45 405.247C2990.94 405.247 3000.37 401.292 3006.76 393.383C3013.16 385.473 3016.37 374.672 3016.37 360.969V342.711C3009.96 365.533 2993.06 376.935 2965.66 376.935C2942.84 376.935 2926.03 369.174 2915.22 353.651C2904.4 338.128 2898.99 317.43 2898.99 291.558V165.968C2898.99 136.456 2903.93 113.855 2913.81 98.1841C2923.72 82.4946 2940.99 74.6406 2965.66 74.6406C2979.97 74.6406 2991.31 78.2257 2999.66 85.3959C3008.03 92.5477 3013.61 102.656 3016.37 115.74V78.2997H3098.08V355.942C3098.08 393.401 3089.41 420.336 3072.06 436.774C3054.71 453.202 3027.01 461.426 2988.95 461.426ZM2997.63 316.654C3010.12 316.654 3016.37 305.4 3016.37 282.873V163.714C3016.37 157.015 3014.53 150.621 3010.86 144.532C3007.21 138.452 3002.66 135.403 2997.19 135.403C2990.18 135.403 2985.47 137.916 2983.03 142.942C2980.59 147.951 2979.37 154.871 2979.37 163.714V282.873C2979.37 292.926 2980.59 301.075 2983.03 307.303C2985.47 313.54 2990.33 316.654 2997.63 316.654Z" fill="white"/>
</svg>
