<svg xmlns="http://www.w3.org/2000/svg" xmlns:xlink="http://www.w3.org/1999/xlink" width="1920" zoomAndPan="magnify" viewBox="0 0 1440 809.999993" height="1080" preserveAspectRatio="xMidYMid meet" version="1.0"><defs><g/><clipPath id="8f43b6e5c5"><path d="M 742.289062 472.800781 L 1440 472.800781 L 1440 656.671875 L 742.289062 656.671875 Z M 742.289062 472.800781 " clip-rule="nonzero"/></clipPath></defs><g fill="#3c096c" fill-opacity="1"><g transform="translate(-8.943225, 736.863693)"><g><path d="M 28.9375 -653.984375 L 229.921875 -653.984375 C 261.898438 -653.984375 286.644531 -646.75 304.15625 -632.28125 C 321.664062 -617.8125 333.460938 -597.507812 339.546875 -571.375 C 345.640625 -545.238281 348.6875 -511.867188 348.6875 -471.265625 C 348.6875 -434.210938 343.863281 -405.28125 334.21875 -384.46875 C 324.582031 -363.65625 307.832031 -349.191406 283.96875 -341.078125 C 303.769531 -337.015625 318.109375 -327.113281 326.984375 -311.375 C 335.867188 -295.644531 340.3125 -274.332031 340.3125 -247.4375 L 338.796875 0 L 210.890625 0 L 210.890625 -255.8125 C 210.890625 -274.082031 207.335938 -285.753906 200.234375 -290.828125 C 193.128906 -295.898438 180.1875 -298.4375 161.40625 -298.4375 L 161.40625 0 L 28.9375 0 Z M 193.375 -411.875 C 211.644531 -411.875 220.78125 -431.671875 220.78125 -471.265625 C 220.78125 -488.515625 220.019531 -501.453125 218.5 -510.078125 C 216.976562 -518.710938 214.1875 -524.679688 210.125 -527.984375 C 206.0625 -531.285156 200.222656 -532.9375 192.609375 -532.9375 L 162.15625 -532.9375 L 162.15625 -411.875 Z M 193.375 -411.875 "/></g></g></g><g fill="#3c096c" fill-opacity="1"><g transform="translate(354.21065, 736.863693)"><g><path d="M 25.890625 -594.59375 L 25.890625 -687.484375 L 159.125 -687.484375 L 159.125 -594.59375 Z M 25.890625 0 L 25.890625 -557.296875 L 159.125 -557.296875 L 159.125 0 Z M 25.890625 0 "/></g></g></g><g fill="#3c096c" fill-opacity="1"><g transform="translate(539.213519, 736.863693)"><g><path d="M 179.671875 6.09375 C 69.535156 6.09375 14.46875 -49.738281 14.46875 -161.40625 L 15.234375 -205.5625 L 148.453125 -205.5625 L 149.21875 -140.078125 C 149.21875 -126.890625 151.753906 -116.867188 156.828125 -110.015625 C 161.910156 -103.160156 170.285156 -99.734375 181.953125 -99.734375 C 199.722656 -99.734375 208.609375 -114.195312 208.609375 -143.125 C 208.609375 -164.445312 204.421875 -181.195312 196.046875 -193.375 C 187.671875 -205.5625 174.347656 -218.503906 156.078125 -232.203125 L 85.265625 -287.015625 C 60.898438 -305.796875 43.390625 -325.207031 32.734375 -345.25 C 22.078125 -365.300781 16.75 -393.601562 16.75 -430.15625 C 16.75 -458.570312 24.234375 -482.804688 39.203125 -502.859375 C 54.179688 -522.910156 74.101562 -538.007812 98.96875 -548.15625 C 123.84375 -558.3125 151.503906 -563.390625 181.953125 -563.390625 C 290.066406 -563.390625 344.125 -509.585938 344.125 -401.984375 L 344.125 -391.328125 L 206.3125 -391.328125 L 206.3125 -412.640625 C 206.3125 -425.835938 204.15625 -437.128906 199.84375 -446.515625 C 195.53125 -455.910156 188.300781 -460.609375 178.15625 -460.609375 C 169.019531 -460.609375 162.039062 -457.941406 157.21875 -452.609375 C 152.394531 -447.273438 149.984375 -440.039062 149.984375 -430.90625 C 149.984375 -410.601562 157.847656 -394.867188 173.578125 -383.703125 L 255.8125 -323.5625 C 285.25 -301.738281 307.832031 -278.007812 323.5625 -252.375 C 339.300781 -226.75 347.171875 -194.394531 347.171875 -155.3125 C 347.171875 -103.539062 332.453125 -63.695312 303.015625 -35.78125 C 273.578125 -7.863281 232.460938 6.09375 179.671875 6.09375 Z M 179.671875 6.09375 "/></g></g></g><g fill="#3c096c" fill-opacity="1"><g transform="translate(900.8447, 736.863693)"><g><path d="M 127.90625 6.09375 C 84.757812 6.09375 55.191406 -8.242188 39.203125 -36.921875 C 23.222656 -65.597656 15.234375 -106.582031 15.234375 -159.875 C 15.234375 -203.53125 20.941406 -237.03125 32.359375 -260.375 C 43.773438 -283.71875 59.632812 -300.84375 79.9375 -311.75 C 100.238281 -322.664062 131.203125 -334.722656 172.828125 -347.921875 L 209.359375 -360.109375 L 209.359375 -417.203125 C 209.359375 -431.921875 206.441406 -443.210938 200.609375 -451.078125 C 194.773438 -458.953125 187.796875 -462.890625 179.671875 -462.890625 C 172.566406 -462.890625 166.347656 -459.585938 161.015625 -452.984375 C 155.691406 -446.390625 153.03125 -437.507812 153.03125 -426.34375 L 153.03125 -392.84375 L 23.59375 -392.84375 L 23.59375 -411.125 C 23.59375 -465.9375 36.410156 -505.015625 62.046875 -528.359375 C 87.679688 -551.710938 129.425781 -563.390625 187.28125 -563.390625 C 233.46875 -563.390625 271.023438 -551.332031 299.953125 -527.21875 C 328.890625 -503.113281 343.359375 -468.984375 343.359375 -424.828125 L 343.359375 0 L 210.890625 0 L 210.890625 -66.234375 C 204.285156 -43.390625 193.75 -25.625 179.28125 -12.9375 C 164.820312 -0.25 147.695312 6.09375 127.90625 6.09375 Z M 180.4375 -97.453125 C 190.582031 -97.453125 197.8125 -101.640625 202.125 -110.015625 C 206.445312 -118.390625 208.609375 -128.664062 208.609375 -140.84375 L 208.609375 -296.15625 C 188.804688 -288.539062 174.210938 -278.894531 164.828125 -267.21875 C 155.441406 -255.550781 150.75 -239.3125 150.75 -218.5 L 150.75 -146.9375 C 150.75 -113.945312 160.644531 -97.453125 180.4375 -97.453125 Z M 180.4375 -97.453125 "/></g></g></g><g clip-path="url(#8f43b6e5c5)"><path fill="#000000" d="M 742.289062 472.800781 L 1439.710938 472.800781 L 1439.710938 656.671875 L 742.289062 656.671875 Z M 742.289062 472.800781 " fill-opacity="1" fill-rule="nonzero"/></g><g fill="#ffffff" fill-opacity="1"><g transform="translate(770.473969, 607.800541)"><g><path d="M 41.28125 -79.9375 C 47.007812 -79.9375 51.90625 -78.890625 55.96875 -76.796875 C 60.03125 -74.703125 63.097656 -71.765625 65.171875 -67.984375 C 67.253906 -64.210938 68.296875 -59.832031 68.296875 -54.84375 C 68.296875 -49.851562 67.253906 -45.476562 65.171875 -41.71875 C 63.097656 -37.96875 60.03125 -35.039062 55.96875 -32.9375 C 51.90625 -30.84375 47.007812 -29.796875 41.28125 -29.796875 L 26.1875 -29.796875 L 26.1875 0 L 10.390625 0 L 10.390625 -79.9375 Z M 39.203125 -42.328125 C 47.992188 -42.328125 52.390625 -46.5 52.390625 -54.84375 C 52.390625 -63.226562 47.992188 -67.421875 39.203125 -67.421875 L 26.1875 -67.421875 L 26.1875 -42.328125 Z M 39.203125 -42.328125 "/></g></g></g><g fill="#ffffff" fill-opacity="1"><g transform="translate(843.518628, 607.800541)"><g><path d="M 43.578125 1.140625 C 36.253906 1.140625 29.789062 -0.347656 24.1875 -3.328125 C 18.59375 -6.316406 14.207031 -10.882812 11.03125 -17.03125 C 7.863281 -23.175781 6.28125 -30.820312 6.28125 -39.96875 C 6.28125 -49.125 7.863281 -56.769531 11.03125 -62.90625 C 14.207031 -69.050781 18.59375 -73.617188 24.1875 -76.609375 C 29.789062 -79.597656 36.253906 -81.09375 43.578125 -81.09375 C 50.910156 -81.09375 57.363281 -79.601562 62.9375 -76.625 C 68.507812 -73.65625 72.875 -69.09375 76.03125 -62.9375 C 79.1875 -56.78125 80.765625 -49.125 80.765625 -39.96875 C 80.765625 -30.820312 79.1875 -23.164062 76.03125 -17 C 72.875 -10.84375 68.507812 -6.28125 62.9375 -3.3125 C 57.363281 -0.34375 50.910156 1.140625 43.578125 1.140625 Z M 43.578125 -12.578125 C 50.359375 -12.578125 55.535156 -14.753906 59.109375 -19.109375 C 62.679688 -23.460938 64.46875 -30.414062 64.46875 -39.96875 C 64.46875 -49.519531 62.679688 -56.484375 59.109375 -60.859375 C 55.535156 -65.234375 50.359375 -67.421875 43.578125 -67.421875 C 36.765625 -67.421875 31.5625 -65.234375 27.96875 -60.859375 C 24.375 -56.484375 22.578125 -49.519531 22.578125 -39.96875 C 22.578125 -30.414062 24.375 -23.460938 27.96875 -19.109375 C 31.5625 -14.753906 36.765625 -12.578125 43.578125 -12.578125 Z M 43.578125 -12.578125 "/></g></g></g><g fill="#ffffff" fill-opacity="1"><g transform="translate(930.614548, 607.800541)"><g><path d="M 10.390625 0 L 10.390625 -79.9375 L 42.484375 -79.9375 C 50.765625 -79.9375 57.007812 -78.03125 61.21875 -74.21875 C 65.425781 -70.414062 67.53125 -65.160156 67.53125 -58.453125 C 67.53125 -53.609375 66.296875 -49.632812 63.828125 -46.53125 C 61.367188 -43.4375 57.703125 -41.066406 52.828125 -39.421875 L 52.828125 -38.28125 C 55.335938 -37.1875 57.363281 -35.5625 58.90625 -33.40625 C 60.457031 -31.257812 61.925781 -28.070312 63.3125 -23.84375 L 71.296875 0 L 55.0625 0 L 47.25 -23.890625 C 46.445312 -26.296875 45.539062 -28.164062 44.53125 -29.5 C 43.53125 -30.832031 42.253906 -31.796875 40.703125 -32.390625 C 39.160156 -32.992188 37.148438 -33.296875 34.671875 -33.296875 L 26.1875 -33.296875 L 26.1875 0 Z M 40.578125 -45.828125 C 48.234375 -45.828125 52.0625 -49.394531 52.0625 -56.53125 C 52.0625 -63.789062 48.234375 -67.421875 40.578125 -67.421875 L 26.1875 -67.421875 L 26.1875 -45.828125 Z M 40.578125 -45.828125 "/></g></g></g><g fill="#ffffff" fill-opacity="1"><g transform="translate(1005.354099, 607.800541)"><g><path d="M 64.078125 -79.9375 L 64.078125 -66.65625 L 41.015625 -66.65625 L 41.015625 0 L 25.265625 0 L 25.265625 -66.65625 L 2.1875 -66.65625 L 2.1875 -79.9375 Z M 64.078125 -79.9375 "/></g></g></g><g fill="#ffffff" fill-opacity="1"><g transform="translate(1071.619164, 607.800541)"><g><path d="M 61.078125 -79.9375 L 61.078125 -66.703125 L 26.1875 -66.703125 L 26.1875 -45.546875 L 57.84375 -45.546875 L 57.84375 -32.484375 L 26.1875 -32.484375 L 26.1875 0 L 10.390625 0 L 10.390625 -79.9375 Z M 61.078125 -79.9375 "/></g></g></g><g fill="#ffffff" fill-opacity="1"><g transform="translate(1136.244015, 607.800541)"><g><path d="M 43.578125 1.140625 C 36.253906 1.140625 29.789062 -0.347656 24.1875 -3.328125 C 18.59375 -6.316406 14.207031 -10.882812 11.03125 -17.03125 C 7.863281 -23.175781 6.28125 -30.820312 6.28125 -39.96875 C 6.28125 -49.125 7.863281 -56.769531 11.03125 -62.90625 C 14.207031 -69.050781 18.59375 -73.617188 24.1875 -76.609375 C 29.789062 -79.597656 36.253906 -81.09375 43.578125 -81.09375 C 50.910156 -81.09375 57.363281 -79.601562 62.9375 -76.625 C 68.507812 -73.65625 72.875 -69.09375 76.03125 -62.9375 C 79.1875 -56.78125 80.765625 -49.125 80.765625 -39.96875 C 80.765625 -30.820312 79.1875 -23.164062 76.03125 -17 C 72.875 -10.84375 68.507812 -6.28125 62.9375 -3.3125 C 57.363281 -0.34375 50.910156 1.140625 43.578125 1.140625 Z M 43.578125 -12.578125 C 50.359375 -12.578125 55.535156 -14.753906 59.109375 -19.109375 C 62.679688 -23.460938 64.46875 -30.414062 64.46875 -39.96875 C 64.46875 -49.519531 62.679688 -56.484375 59.109375 -60.859375 C 55.535156 -65.234375 50.359375 -67.421875 43.578125 -67.421875 C 36.765625 -67.421875 31.5625 -65.234375 27.96875 -60.859375 C 24.375 -56.484375 22.578125 -49.519531 22.578125 -39.96875 C 22.578125 -30.414062 24.375 -23.460938 27.96875 -19.109375 C 31.5625 -14.753906 36.765625 -12.578125 43.578125 -12.578125 Z M 43.578125 -12.578125 "/></g></g></g><g fill="#ffffff" fill-opacity="1"><g transform="translate(1223.339912, 607.800541)"><g><path d="M 26.1875 -79.9375 L 26.1875 -13.234375 L 62.109375 -13.234375 L 62.109375 0 L 10.390625 0 L 10.390625 -79.9375 Z M 26.1875 -79.9375 "/></g></g></g><g fill="#ffffff" fill-opacity="1"><g transform="translate(1288.074101, 607.800541)"><g><path d="M 26.1875 0 L 10.390625 0 L 10.390625 -79.9375 L 26.1875 -79.9375 Z M 26.1875 0 "/></g></g></g><g fill="#ffffff" fill-opacity="1"><g transform="translate(1324.705767, 607.800541)"><g><path d="M 43.578125 1.140625 C 36.253906 1.140625 29.789062 -0.347656 24.1875 -3.328125 C 18.59375 -6.316406 14.207031 -10.882812 11.03125 -17.03125 C 7.863281 -23.175781 6.28125 -30.820312 6.28125 -39.96875 C 6.28125 -49.125 7.863281 -56.769531 11.03125 -62.90625 C 14.207031 -69.050781 18.59375 -73.617188 24.1875 -76.609375 C 29.789062 -79.597656 36.253906 -81.09375 43.578125 -81.09375 C 50.910156 -81.09375 57.363281 -79.601562 62.9375 -76.625 C 68.507812 -73.65625 72.875 -69.09375 76.03125 -62.9375 C 79.1875 -56.78125 80.765625 -49.125 80.765625 -39.96875 C 80.765625 -30.820312 79.1875 -23.164062 76.03125 -17 C 72.875 -10.84375 68.507812 -6.28125 62.9375 -3.3125 C 57.363281 -0.34375 50.910156 1.140625 43.578125 1.140625 Z M 43.578125 -12.578125 C 50.359375 -12.578125 55.535156 -14.753906 59.109375 -19.109375 C 62.679688 -23.460938 64.46875 -30.414062 64.46875 -39.96875 C 64.46875 -49.519531 62.679688 -56.484375 59.109375 -60.859375 C 55.535156 -65.234375 50.359375 -67.421875 43.578125 -67.421875 C 36.765625 -67.421875 31.5625 -65.234375 27.96875 -60.859375 C 24.375 -56.484375 22.578125 -49.519531 22.578125 -39.96875 C 22.578125 -30.414062 24.375 -23.460938 27.96875 -19.109375 C 31.5625 -14.753906 36.765625 -12.578125 43.578125 -12.578125 Z M 43.578125 -12.578125 "/></g></g></g></svg>