<svg xmlns="http://www.w3.org/2000/svg" xmlns:xlink="http://www.w3.org/1999/xlink" width="1920" zoomAndPan="magnify" viewBox="0 0 1440 809.999993" height="1080" preserveAspectRatio="xMidYMid meet" version="1.0"><defs><g/></defs><g fill="#a276cd" fill-opacity="1"><g transform="translate(72.197297, 644.768476)"><g><path d="M 158.71875 10.421875 C 108.945312 10.421875 71.394531 1.507812 46.0625 -16.3125 C 20.726562 -34.132812 8.0625 -60.304688 8.0625 -94.828125 L 8.0625 -457.3125 L 149.640625 -457.3125 L 149.640625 -112.640625 C 149.640625 -100.535156 152.773438 -94.484375 159.046875 -94.484375 C 165.328125 -94.484375 168.46875 -100.425781 168.46875 -112.3125 L 168.46875 -457.3125 L 309.6875 -457.3125 L 309.6875 -94.828125 C 309.6875 -60.304688 297.019531 -34.132812 271.6875 -16.3125 C 246.363281 1.507812 208.707031 10.421875 158.71875 10.421875 Z M 158.71875 10.421875 "/></g></g><g transform="translate(389.959505, 644.768476)"><g><path d="M 8.75 0 L 8.75 -457.3125 L 153 -457.3125 L 153 0 Z M 8.75 0 "/></g></g><g transform="translate(551.698787, 644.768476)"><g><path d="M -16.8125 70.28125 L 101.890625 -478.15625 L 241.765625 -478.15625 L 125.09375 69.9375 Z M -16.8125 70.28125 "/></g></g><g transform="translate(786.069431, 644.768476)"><g><path d="M 158.71875 10.421875 C 108.945312 10.421875 71.394531 1.507812 46.0625 -16.3125 C 20.726562 -34.132812 8.0625 -60.304688 8.0625 -94.828125 L 8.0625 -457.3125 L 149.640625 -457.3125 L 149.640625 -112.640625 C 149.640625 -100.535156 152.773438 -94.484375 159.046875 -94.484375 C 165.328125 -94.484375 168.46875 -100.425781 168.46875 -112.3125 L 168.46875 -457.3125 L 309.6875 -457.3125 L 309.6875 -94.828125 C 309.6875 -60.304688 297.019531 -34.132812 271.6875 -16.3125 C 246.363281 1.507812 208.707031 10.421875 158.71875 10.421875 Z M 158.71875 10.421875 "/></g></g><g transform="translate(1103.83164, 644.768476)"><g><path d="M 2.6875 0 L 41.703125 -227.984375 L 6.71875 -457.3125 L 150.984375 -457.3125 L 159.390625 -280.109375 L 164.09375 -280.109375 L 174.1875 -457.3125 L 318.09375 -457.3125 L 281.78125 -232.6875 L 322.140625 0 L 174.515625 0 L 165.4375 -173.84375 L 160.390625 -173.84375 L 150.640625 0 Z M 2.6875 0 "/></g></g></g><path stroke-linecap="butt" transform="matrix(0.989415, 0, 0, 0.989415, -184.767246, 101.816506)" fill="none" stroke-linejoin="miter" d="M 389.365089 528.535654 C 339.067079 528.535654 301.114585 519.530179 275.511556 501.515279 C 249.912474 483.504327 237.108985 457.05247 237.108985 422.159706 L 237.108985 55.797527 L 380.189848 55.797527 L 380.189848 404.148754 C 380.189848 416.383725 383.360123 422.499237 389.704621 422.499237 C 396.049118 422.499237 399.219393 416.498218 399.219393 404.488285 L 399.219393 55.797527 L 541.956776 55.797527 L 541.956776 422.159706 C 541.956776 457.05247 529.157236 483.504327 503.554206 501.515279 C 477.951177 519.530179 439.888138 528.535654 389.365089 528.535654 Z M 558.949134 517.99834 L 558.949134 55.797527 L 704.746247 55.797527 L 704.746247 517.99834 Z M 696.589599 589.0275 L 816.558645 34.726846 L 957.937903 34.726846 L 840.009993 588.687969 Z M 1110.873069 528.535654 C 1060.575059 528.535654 1022.622565 519.530179 997.023484 501.515279 C 971.420454 483.504327 958.616965 457.05247 958.616965 422.159706 L 958.616965 55.797527 L 1101.697828 55.797527 L 1101.697828 404.148754 C 1101.697828 416.383725 1104.868103 422.499237 1111.2126 422.499237 C 1117.557098 422.499237 1120.727373 416.498218 1120.727373 404.488285 L 1120.727373 55.797527 L 1263.468704 55.797527 L 1263.468704 422.159706 C 1263.468704 457.05247 1250.665216 483.504327 1225.062186 501.515279 C 1199.463105 519.530179 1161.396118 528.535654 1110.873069 528.535654 Z M 1274.341602 517.99834 L 1313.766715 287.57897 L 1278.419926 55.797527 L 1424.217039 55.797527 L 1432.713218 234.900292 L 1437.470604 234.900292 L 1447.668388 55.797527 L 1593.125969 55.797527 L 1556.421056 282.821584 L 1597.204293 517.99834 L 1448.007919 517.99834 L 1438.832678 342.294835 L 1433.73576 342.294835 L 1423.877508 517.99834 Z M 1274.341602 517.99834 " stroke="#5a189a" stroke-width="26.101049" stroke-opacity="1" stroke-miterlimit="4"/></svg>