<svg xmlns="http://www.w3.org/2000/svg" xmlns:xlink="http://www.w3.org/1999/xlink" width="1920" zoomAndPan="magnify" viewBox="0 0 1440 809.999993" height="1080" preserveAspectRatio="xMidYMid meet" version="1.0"><defs><g/></defs><g fill="#e0feca" fill-opacity="1"><g transform="translate(421.842098, 289.461313)"><g><path d="M 0 -265.625 L 83.984375 -265.625 L 90.234375 -89.84375 L 93.171875 -89.84375 L 99.609375 -265.625 L 175.390625 -265.625 L 182.03125 -89.84375 L 184.765625 -89.84375 L 191.21875 -265.625 L 275 -265.625 L 232.8125 0 L 143.75 0 L 138.875 -142.96875 L 136.328125 -142.96875 L 131.25 0 L 42.1875 0 Z M 0 -265.625 "/></g></g><g transform="translate(697.035687, 289.461313)"><g><path d="M 5.078125 0 L 5.078125 -265.625 L 136.921875 -265.625 L 136.921875 -210.359375 L 90.046875 -210.359375 L 90.046875 -151.765625 L 127.15625 -151.765625 L 127.15625 -111.53125 L 90.046875 -111.53125 L 90.046875 -53.71875 L 137.890625 -53.71875 L 137.890625 0 Z M 5.078125 0 "/></g></g><g transform="translate(837.269185, 289.461313)"><g><path d="M 5.078125 0 L 5.078125 -265.625 L 90.625 -265.625 C 110.9375 -265.625 127.242188 -264.03125 139.546875 -260.84375 C 151.859375 -257.65625 160.75 -252.546875 166.21875 -245.515625 C 171.6875 -238.484375 174.421875 -229.238281 174.421875 -217.78125 L 174.421875 -169.34375 C 174.421875 -160.875 172.988281 -153.382812 170.125 -146.875 C 167.257812 -140.363281 161.984375 -135.613281 154.296875 -132.625 C 161.984375 -129.757812 167.648438 -125.070312 171.296875 -118.5625 C 174.941406 -112.050781 176.765625 -104.5625 176.765625 -96.09375 L 176.765625 -47.859375 C 176.765625 -36.398438 173.992188 -27.15625 168.453125 -20.125 C 162.921875 -13.09375 154.003906 -7.976562 141.703125 -4.78125 C 129.398438 -1.59375 113.09375 0 92.78125 0 Z M 84.765625 -152.34375 L 88.28125 -152.34375 C 91.019531 -152.34375 92.972656 -153.023438 94.140625 -154.390625 C 95.316406 -155.765625 95.90625 -158.273438 95.90625 -161.921875 L 95.90625 -209.1875 C 95.90625 -212.570312 95.445312 -214.914062 94.53125 -216.21875 C 93.625 -217.519531 91.800781 -218.171875 89.0625 -218.171875 L 84.765625 -218.171875 Z M 84.765625 -47.65625 L 89.0625 -47.65625 C 91.800781 -47.65625 93.625 -48.304688 94.53125 -49.609375 C 95.445312 -50.910156 95.90625 -53.191406 95.90625 -56.453125 L 95.90625 -103.515625 C 95.90625 -107.160156 95.316406 -109.664062 94.140625 -111.03125 C 92.972656 -112.40625 91.019531 -113.09375 88.28125 -113.09375 L 84.765625 -113.09375 Z M 84.765625 -47.65625 "/></g></g></g><g fill="#e0feca" fill-opacity="1"><g transform="translate(145.185862, 689.211293)"><g><path d="M 5.078125 0 L 5.078125 -265.625 L 92 -265.625 C 121.8125 -265.625 144.300781 -258.882812 159.46875 -245.40625 C 174.644531 -231.9375 182.234375 -211.984375 182.234375 -185.546875 L 182.234375 -80.28125 C 182.234375 -53.84375 174.644531 -33.851562 159.46875 -20.3125 C 144.300781 -6.769531 121.875 0 92.1875 0 Z M 86.140625 -65.234375 L 90.625 -65.234375 C 93.625 -65.234375 95.476562 -66.207031 96.1875 -68.15625 C 96.90625 -70.113281 97.265625 -74.023438 97.265625 -79.890625 L 97.265625 -185.15625 C 97.265625 -191.28125 96.90625 -195.285156 96.1875 -197.171875 C 95.476562 -199.054688 93.625 -200 90.625 -200 L 86.140625 -200 Z M 86.140625 -65.234375 "/></g></g><g transform="translate(331.122198, 689.211293)"><g><path d="M 5.078125 0 L 5.078125 -265.625 L 136.921875 -265.625 L 136.921875 -210.359375 L 90.046875 -210.359375 L 90.046875 -151.765625 L 127.15625 -151.765625 L 127.15625 -111.53125 L 90.046875 -111.53125 L 90.046875 -53.71875 L 137.890625 -53.71875 L 137.890625 0 Z M 5.078125 0 "/></g></g><g transform="translate(471.355696, 689.211293)"><g><path d="M 47.265625 0 L 0 -265.625 L 83.984375 -265.625 L 90.234375 -89.84375 L 93.171875 -89.84375 L 99.609375 -265.625 L 183.203125 -265.625 L 136.140625 0 Z M 47.265625 0 "/></g></g><g transform="translate(654.752983, 689.211293)"><g><path d="M 5.078125 0 L 5.078125 -265.625 L 136.921875 -265.625 L 136.921875 -210.359375 L 90.046875 -210.359375 L 90.046875 -151.765625 L 127.15625 -151.765625 L 127.15625 -111.53125 L 90.046875 -111.53125 L 90.046875 -53.71875 L 137.890625 -53.71875 L 137.890625 0 Z M 5.078125 0 "/></g></g><g transform="translate(794.986481, 689.211293)"><g><path d="M 5.078125 0 L 5.078125 -265.625 L 88.875 -265.625 L 88.875 -58.796875 L 126.375 -58.796875 L 126.375 0 Z M 5.078125 0 "/></g></g><g transform="translate(924.477858, 689.211293)"><g><path d="M 3.90625 -79.6875 L 3.90625 -187.3125 C 3.90625 -214.78125 11.648438 -235.546875 27.140625 -249.609375 C 42.640625 -263.671875 65.5625 -270.703125 95.90625 -270.703125 C 126.238281 -270.703125 149.148438 -263.640625 164.640625 -249.515625 C 180.140625 -235.390625 187.890625 -214.394531 187.890625 -186.53125 L 187.890625 -79.6875 C 187.890625 -51.820312 180.140625 -30.726562 164.640625 -16.40625 C 149.148438 -2.082031 126.238281 5.078125 95.90625 5.078125 C 65.5625 5.078125 42.769531 -2.082031 27.53125 -16.40625 C 12.300781 -30.726562 4.425781 -51.820312 3.90625 -79.6875 Z M 90.4375 -68.75 C 90.4375 -64.976562 92.257812 -63.09375 95.90625 -63.09375 C 99.550781 -63.09375 101.375 -64.976562 101.375 -68.75 L 101.375 -197.46875 C 101.375 -201.238281 99.550781 -203.125 95.90625 -203.125 C 92.257812 -203.125 90.4375 -201.238281 90.4375 -197.46875 Z M 90.4375 -68.75 "/></g></g><g transform="translate(1116.273533, 689.211293)"><g><path d="M 5.078125 0 L 5.078125 -265.625 L 87.109375 -265.625 C 100.128906 -265.625 112.007812 -264.84375 122.75 -263.28125 C 133.5 -261.71875 142.742188 -258.722656 150.484375 -254.296875 C 158.234375 -249.867188 164.222656 -243.519531 168.453125 -235.25 C 172.691406 -226.988281 174.8125 -216.21875 174.8125 -202.9375 L 174.8125 -124.03125 C 174.675781 -111.132812 172.457031 -100.679688 168.15625 -92.671875 C 163.863281 -84.671875 157.972656 -78.488281 150.484375 -74.125 C 143.003906 -69.757812 134.378906 -66.765625 124.609375 -65.140625 C 114.847656 -63.515625 104.300781 -62.703125 92.96875 -62.703125 L 88.875 -62.703125 L 88.875 0 Z M 84.765625 -113.09375 L 89.453125 -113.09375 C 91.796875 -113.09375 93.457031 -113.707031 94.4375 -114.9375 C 95.414062 -116.175781 95.90625 -118.488281 95.90625 -121.875 L 95.90625 -200.59375 C 95.90625 -203.976562 95.445312 -206.285156 94.53125 -207.515625 C 93.625 -208.753906 91.800781 -209.375 89.0625 -209.375 L 84.765625 -209.375 Z M 84.765625 -113.09375 "/></g></g></g></svg>