<svg width="313" height="700" viewBox="0 0 313 700" fill="none" xmlns="http://www.w3.org/2000/svg">
<g clip-path="url(#clip0_471_5022)">
<rect width="313" height="700" fill="white"/>
<g clip-path="url(#clip1_471_5022)">
<path fill-rule="evenodd" clip-rule="evenodd" d="M27.7422 99.9063C27.7422 98.3944 28.3428 96.9444 29.4119 95.8753C30.481 94.8062 31.931 94.2056 33.4429 94.2056C34.9548 94.2056 36.4048 94.8062 37.4739 95.8753C38.543 96.9444 39.1436 98.3944 39.1436 99.9063C39.1436 101.418 38.543 102.868 37.4739 103.937C36.4048 105.006 34.9548 105.607 33.4429 105.607C31.931 105.607 30.481 105.006 29.4119 103.937C28.3428 102.868 27.7422 101.418 27.7422 99.9063ZM33.1176 102.346L36.3997 98.2432L35.8068 97.7689L33.0081 101.266L31.0258 99.6144L30.5393 100.198L33.1176 102.346Z" fill="black"/>
<path d="M43.9202 104.406V95.8932H48.274C49.3929 95.8932 50.228 96.0999 50.7793 96.5134C51.3306 96.9188 51.6063 97.4539 51.6063 98.1187C51.6063 98.5565 51.4887 98.9417 51.2536 99.2741C51.0266 99.5984 50.7023 99.8578 50.2807 100.052C49.8672 100.239 49.3726 100.332 48.797 100.332L49.0402 99.7484C49.6402 99.7484 50.1631 99.8416 50.6091 100.028C51.055 100.206 51.3996 100.47 51.6428 100.819C51.8941 101.159 52.0198 101.577 52.0198 102.071C52.0198 102.809 51.7198 103.385 51.1198 103.798C50.528 104.204 49.6605 104.406 48.5173 104.406H43.9202ZM46.3039 102.667H48.3227C48.7362 102.667 49.0483 102.598 49.2591 102.46C49.478 102.314 49.5875 102.096 49.5875 101.804C49.5875 101.512 49.478 101.297 49.2591 101.159C49.0483 101.013 48.7362 100.94 48.3227 100.94H46.1336V99.2741H47.9578C48.3632 99.2741 48.6673 99.2052 48.87 99.0673C49.0727 98.9295 49.174 98.7228 49.174 98.4471C49.174 98.1714 49.0727 97.9687 48.87 97.839C48.6673 97.7012 48.3632 97.6323 47.9578 97.6323H46.3039V102.667ZM56.6115 104.516C55.8331 104.516 55.1521 104.37 54.5683 104.078C53.9927 103.778 53.5427 103.373 53.2184 102.862C52.9022 102.343 52.7441 101.755 52.7441 101.098C52.7441 100.442 52.8981 99.8578 53.2062 99.347C53.5224 98.8282 53.9562 98.4268 54.5075 98.143C55.0588 97.8512 55.6791 97.7052 56.3682 97.7052C57.0168 97.7052 57.6087 97.839 58.1438 98.1066C58.6789 98.366 59.1046 98.7511 59.4208 99.2619C59.737 99.7727 59.8951 100.393 59.8951 101.123C59.8951 101.204 59.891 101.297 59.8829 101.402C59.8748 101.508 59.8667 101.605 59.8586 101.694H54.6413V100.478H58.6303L57.7546 100.819C57.7627 100.519 57.706 100.259 57.5844 100.04C57.4709 99.8213 57.3087 99.6511 57.0979 99.5295C56.8952 99.4079 56.656 99.347 56.3804 99.347C56.1047 99.347 55.8615 99.4079 55.6507 99.5295C55.448 99.6511 55.2899 99.8254 55.1764 100.052C55.0629 100.271 55.0061 100.531 55.0061 100.831V101.183C55.0061 101.508 55.071 101.787 55.2007 102.023C55.3385 102.258 55.5331 102.44 55.7845 102.57C56.0358 102.691 56.3358 102.752 56.6844 102.752C57.0087 102.752 57.2844 102.708 57.5114 102.619C57.7465 102.521 57.9776 102.375 58.2046 102.181L59.4208 103.445C59.1046 103.794 58.7154 104.062 58.2533 104.248C57.7911 104.427 57.2439 104.516 56.6115 104.516ZM61.228 104.406V97.8877C61.228 97.0931 61.4631 96.4607 61.9334 95.9905C62.4117 95.5121 63.0928 95.2729 63.9765 95.2729C64.2603 95.2729 64.54 95.3013 64.8157 95.3581C65.0913 95.4148 65.3224 95.4999 65.5089 95.6134L64.9373 97.2431C64.84 97.1863 64.7305 97.1417 64.6089 97.1093C64.4873 97.0688 64.3657 97.0485 64.2441 97.0485C64.0008 97.0485 63.8103 97.1215 63.6725 97.2674C63.5427 97.4052 63.4779 97.6201 63.4779 97.912V98.3863L63.5387 99.347V104.406H61.228ZM60.2672 99.7849V98.0579H65.0467V99.7849H60.2672ZM69.1378 104.516C68.4162 104.516 67.7757 104.37 67.2162 104.078C66.6568 103.786 66.2149 103.385 65.8906 102.874C65.5744 102.355 65.4163 101.763 65.4163 101.098C65.4163 100.433 65.5744 99.8457 65.8906 99.3349C66.2149 98.8241 66.6568 98.4268 67.2162 98.143C67.7757 97.8512 68.4162 97.7052 69.1378 97.7052C69.8593 97.7052 70.4999 97.8512 71.0593 98.143C71.6268 98.4268 72.0687 98.8241 72.3849 99.3349C72.7011 99.8457 72.8592 100.433 72.8592 101.098C72.8592 101.763 72.7011 102.355 72.3849 102.874C72.0687 103.385 71.6268 103.786 71.0593 104.078C70.4999 104.37 69.8593 104.516 69.1378 104.516ZM69.1378 102.679C69.4053 102.679 69.6404 102.619 69.8431 102.497C70.0539 102.375 70.2201 102.197 70.3418 101.962C70.4634 101.719 70.5242 101.431 70.5242 101.098C70.5242 100.766 70.4634 100.486 70.3418 100.259C70.2201 100.024 70.0539 99.8457 69.8431 99.7241C69.6404 99.6024 69.4053 99.5416 69.1378 99.5416C68.8783 99.5416 68.6432 99.6024 68.4324 99.7241C68.2297 99.8457 68.0635 100.024 67.9338 100.259C67.8121 100.486 67.7513 100.766 67.7513 101.098C67.7513 101.431 67.8121 101.719 67.9338 101.962C68.0635 102.197 68.2297 102.375 68.4324 102.497C68.6432 102.619 68.8783 102.679 69.1378 102.679ZM73.9296 104.406V97.8147H76.1308V99.7362L75.8025 99.1889C75.9971 98.6944 76.3133 98.3255 76.7511 98.0822C77.1889 97.8309 77.7199 97.7052 78.3442 97.7052V99.7849C78.2388 99.7686 78.1456 99.7605 78.0645 99.7605C77.9916 99.7524 77.9105 99.7484 77.8213 99.7484C77.351 99.7484 76.97 99.8781 76.6781 100.138C76.3862 100.389 76.2403 100.802 76.2403 101.378V104.406H73.9296ZM82.6923 104.516C81.9139 104.516 81.2329 104.37 80.6491 104.078C80.0735 103.778 79.6235 103.373 79.2992 102.862C78.983 102.343 78.8249 101.755 78.8249 101.098C78.8249 100.442 78.979 99.8578 79.287 99.347C79.6032 98.8282 80.037 98.4268 80.5883 98.143C81.1397 97.8512 81.7599 97.7052 82.4491 97.7052C83.0977 97.7052 83.6895 97.839 84.2246 98.1066C84.7597 98.366 85.1854 98.7511 85.5016 99.2619C85.8178 99.7727 85.9759 100.393 85.9759 101.123C85.9759 101.204 85.9718 101.297 85.9637 101.402C85.9556 101.508 85.9475 101.605 85.9394 101.694H80.7221V100.478H84.7111L83.8355 100.819C83.8436 100.519 83.7868 100.259 83.6652 100.04C83.5517 99.8213 83.3895 99.6511 83.1787 99.5295C82.9761 99.4079 82.7369 99.347 82.4612 99.347C82.1856 99.347 81.9423 99.4079 81.7315 99.5295C81.5288 99.6511 81.3707 99.8254 81.2572 100.052C81.1437 100.271 81.087 100.531 81.087 100.831V101.183C81.087 101.508 81.1518 101.787 81.2815 102.023C81.4194 102.258 81.614 102.44 81.8653 102.57C82.1166 102.691 82.4166 102.752 82.7653 102.752C83.0896 102.752 83.3652 102.708 83.5922 102.619C83.8274 102.521 84.0584 102.375 84.2854 102.181L85.5016 103.445C85.1854 103.794 84.7962 104.062 84.3341 104.248C83.872 104.427 83.3247 104.516 82.6923 104.516ZM94.9343 104.577C94.2614 104.577 93.6371 104.471 93.0614 104.26C92.4939 104.041 91.9993 103.733 91.5777 103.336C91.1642 102.939 90.8399 102.473 90.6048 101.937C90.3697 101.394 90.2521 100.798 90.2521 100.15C90.2521 99.5011 90.3697 98.9092 90.6048 98.3741C90.8399 97.8309 91.1642 97.3607 91.5777 96.9634C91.9993 96.5661 92.4939 96.2621 93.0614 96.0513C93.6371 95.8324 94.2614 95.7229 94.9343 95.7229C95.7208 95.7229 96.4221 95.8607 97.0383 96.1364C97.6626 96.4121 98.1814 96.8093 98.5949 97.3282L97.0626 98.7146C96.7869 98.3903 96.4829 98.143 96.1505 97.9728C95.8262 97.8025 95.4613 97.7174 95.0559 97.7174C94.7073 97.7174 94.387 97.7741 94.0952 97.8877C93.8033 98.0012 93.552 98.1674 93.3412 98.3863C93.1385 98.5971 92.9763 98.8525 92.8547 99.1525C92.7412 99.4524 92.6844 99.7849 92.6844 100.15C92.6844 100.515 92.7412 100.847 92.8547 101.147C92.9763 101.447 93.1385 101.706 93.3412 101.925C93.552 102.136 93.8033 102.298 94.0952 102.412C94.387 102.525 94.7073 102.582 95.0559 102.582C95.4613 102.582 95.8262 102.497 96.1505 102.327C96.4829 102.156 96.7869 101.909 97.0626 101.585L98.5949 102.971C98.1814 103.482 97.6626 103.879 97.0383 104.163C96.4221 104.439 95.7208 104.577 94.9343 104.577ZM99.4641 104.406V95.3824H101.775V104.406H99.4641ZM106.73 104.516C105.952 104.516 105.271 104.37 104.687 104.078C104.112 103.778 103.662 103.373 103.337 102.862C103.021 102.343 102.863 101.755 102.863 101.098C102.863 100.442 103.017 99.8578 103.325 99.347C103.641 98.8282 104.075 98.4268 104.626 98.143C105.178 97.8512 105.798 97.7052 106.487 97.7052C107.136 97.7052 107.728 97.839 108.263 98.1066C108.798 98.366 109.223 98.7511 109.54 99.2619C109.856 99.7727 110.014 100.393 110.014 101.123C110.014 101.204 110.01 101.297 110.002 101.402C109.994 101.508 109.986 101.605 109.977 101.694H104.76V100.478H108.749L107.874 100.819C107.882 100.519 107.825 100.259 107.703 100.04C107.59 99.8213 107.428 99.6511 107.217 99.5295C107.014 99.4079 106.775 99.347 106.499 99.347C106.224 99.347 105.98 99.4079 105.77 99.5295C105.567 99.6511 105.409 99.8254 105.295 100.052C105.182 100.271 105.125 100.531 105.125 100.831V101.183C105.125 101.508 105.19 101.787 105.32 102.023C105.457 102.258 105.652 102.44 105.903 102.57C106.155 102.691 106.455 102.752 106.803 102.752C107.128 102.752 107.403 102.708 107.63 102.619C107.865 102.521 108.097 102.375 108.324 102.181L109.54 103.445C109.223 103.794 108.834 104.062 108.372 104.248C107.91 104.427 107.363 104.516 106.73 104.516ZM114.927 104.406V103.178L114.769 102.874V100.612C114.769 100.247 114.655 99.9673 114.428 99.7727C114.209 99.57 113.856 99.4687 113.37 99.4687C113.054 99.4687 112.734 99.5214 112.409 99.6268C112.085 99.7241 111.809 99.8619 111.582 100.04L110.804 98.4714C111.177 98.2282 111.623 98.0417 112.142 97.912C112.669 97.7741 113.192 97.7052 113.711 97.7052C114.781 97.7052 115.608 97.9525 116.191 98.4471C116.783 98.9336 117.079 99.6997 117.079 100.746V104.406H114.927ZM112.981 104.516C112.454 104.516 112.008 104.427 111.643 104.248C111.278 104.07 110.998 103.827 110.804 103.518C110.617 103.21 110.524 102.866 110.524 102.485C110.524 102.079 110.626 101.731 110.828 101.439C111.039 101.139 111.359 100.912 111.789 100.758C112.219 100.596 112.774 100.515 113.455 100.515H115.012V101.719H113.771C113.398 101.719 113.135 101.779 112.981 101.901C112.835 102.023 112.762 102.185 112.762 102.387C112.762 102.59 112.839 102.752 112.993 102.874C113.147 102.996 113.358 103.056 113.625 103.056C113.877 103.056 114.104 102.996 114.306 102.874C114.517 102.744 114.671 102.55 114.769 102.29L115.085 103.141C114.963 103.595 114.724 103.94 114.367 104.175C114.019 104.402 113.556 104.516 112.981 104.516ZM118.538 104.406V97.8147H120.739V99.6876L120.313 99.1403C120.565 98.6619 120.909 98.3052 121.347 98.0701C121.785 97.8268 122.28 97.7052 122.831 97.7052C123.342 97.7052 123.804 97.8106 124.217 98.0214C124.631 98.2241 124.955 98.5403 125.19 98.97C125.433 99.3997 125.555 99.9551 125.555 100.636V104.406H123.244V101.013C123.244 100.543 123.147 100.202 122.952 99.9916C122.766 99.7727 122.502 99.6632 122.162 99.6632C121.919 99.6632 121.696 99.72 121.493 99.8335C121.29 99.9389 121.132 100.105 121.019 100.332C120.905 100.559 120.848 100.855 120.848 101.22V104.406H118.538ZM134.583 104.577C133.326 104.577 132.345 104.232 131.639 103.543C130.934 102.854 130.581 101.877 130.581 100.612V95.8932H132.989V100.539C132.989 101.269 133.131 101.792 133.415 102.108C133.707 102.424 134.104 102.582 134.607 102.582C135.11 102.582 135.503 102.424 135.787 102.108C136.07 101.792 136.212 101.269 136.212 100.539V95.8932H138.584V100.612C138.584 101.877 138.231 102.854 137.526 103.543C136.82 104.232 135.839 104.577 134.583 104.577ZM144.253 104.516C143.693 104.516 143.215 104.394 142.818 104.151C142.42 103.9 142.116 103.527 141.905 103.032C141.703 102.529 141.601 101.889 141.601 101.11C141.601 100.324 141.699 99.6835 141.893 99.1889C142.088 98.6863 142.38 98.3133 142.769 98.0701C143.166 97.8268 143.661 97.7052 144.253 97.7052C144.853 97.7052 145.396 97.8471 145.882 98.1309C146.377 98.4066 146.766 98.7998 147.05 99.3106C147.342 99.8132 147.488 100.413 147.488 101.11C147.488 101.808 147.342 102.412 147.05 102.923C146.766 103.433 146.377 103.827 145.882 104.102C145.396 104.378 144.853 104.516 144.253 104.516ZM140.106 106.766V97.8147H142.307V98.9336L142.295 101.11L142.416 103.3V106.766H140.106ZM143.766 102.679C144.026 102.679 144.257 102.619 144.459 102.497C144.67 102.375 144.836 102.197 144.958 101.962C145.088 101.727 145.153 101.443 145.153 101.11C145.153 100.778 145.088 100.494 144.958 100.259C144.836 100.024 144.67 99.8457 144.459 99.7241C144.257 99.6024 144.026 99.5416 143.766 99.5416C143.507 99.5416 143.272 99.6024 143.061 99.7241C142.858 99.8457 142.692 100.024 142.562 100.259C142.441 100.494 142.38 100.778 142.38 101.11C142.38 101.443 142.441 101.727 142.562 101.962C142.692 102.197 142.858 102.375 143.061 102.497C143.272 102.619 143.507 102.679 143.766 102.679Z" fill="black"/>
<path d="M46.0798 243.571L105.554 184.097C107.962 181.688 110.822 179.778 113.969 178.474C117.116 177.171 120.488 176.5 123.895 176.5C127.301 176.5 130.674 177.171 133.821 178.474C136.968 179.778 139.827 181.688 142.236 184.097L201.71 243.571M184.418 226.279L200.661 210.035C203.069 207.627 205.929 205.716 209.076 204.413C212.223 203.109 215.596 202.438 219.002 202.438C222.408 202.438 225.781 203.109 228.928 204.413C232.075 205.716 234.935 207.627 237.343 210.035L270.879 243.571M63.372 286.801H253.586C258.173 286.801 262.571 284.979 265.814 281.736C269.057 278.494 270.879 274.095 270.879 269.509V131.171C270.879 126.585 269.057 122.187 265.814 118.944C262.571 115.701 258.173 113.879 253.586 113.879H63.372C58.7859 113.879 54.3875 115.701 51.1446 118.944C47.9017 122.187 46.0798 126.585 46.0798 131.171V269.509C46.0798 274.095 47.9017 278.494 51.1446 281.736C54.3875 284.979 58.7859 286.801 63.372 286.801ZM184.418 157.11H184.51V157.202H184.418V157.11ZM188.741 157.11C188.741 158.256 188.285 159.356 187.474 160.167C186.664 160.977 185.564 161.433 184.418 161.433C183.271 161.433 182.171 160.977 181.361 160.167C180.55 159.356 180.094 158.256 180.094 157.11C180.094 155.963 180.55 154.864 181.361 154.053C182.171 153.242 183.271 152.787 184.418 152.787C185.564 152.787 186.664 153.242 187.474 154.053C188.285 154.864 188.741 155.963 188.741 157.11Z" stroke="black" stroke-width="1.14015" stroke-linecap="round" stroke-linejoin="round"/>
<path d="M43.4668 412.264L72.5501 383.181C73.7279 382.003 75.1262 381.069 76.6651 380.431C78.204 379.794 79.8534 379.466 81.5192 379.466C83.1849 379.466 84.8343 379.794 86.3732 380.431C87.9121 381.069 89.3104 382.003 90.4882 383.181L119.572 412.264M111.115 403.808L119.059 395.865C120.236 394.687 121.635 393.753 123.174 393.116C124.712 392.478 126.362 392.15 128.028 392.15C129.693 392.15 131.343 392.478 132.882 393.116C134.421 393.753 135.819 394.687 136.997 395.865L153.396 412.264M51.9229 433.405H144.94C147.182 433.405 149.333 432.514 150.919 430.928C152.505 429.342 153.396 427.191 153.396 424.948V357.3C153.396 355.057 152.505 352.906 150.919 351.32C149.333 349.735 147.182 348.844 144.94 348.844H51.9229C49.6802 348.844 47.5293 349.735 45.9435 351.32C44.3577 352.906 43.4668 355.057 43.4668 357.3V424.948C43.4668 427.191 44.3577 429.342 45.9435 430.928C47.5293 432.514 49.6802 433.405 51.9229 433.405ZM111.115 369.984H111.161V370.029H111.115V369.984ZM113.229 369.984C113.229 370.545 113.007 371.082 112.61 371.479C112.214 371.875 111.676 372.098 111.115 372.098C110.555 372.098 110.017 371.875 109.621 371.479C109.224 371.082 109.001 370.545 109.001 369.984C109.001 369.423 109.224 368.886 109.621 368.489C110.017 368.093 110.555 367.87 111.115 367.87C111.676 367.87 112.214 368.093 112.61 368.489C113.007 368.886 113.229 369.423 113.229 369.984Z" stroke="black" stroke-width="1.14015" stroke-linecap="round" stroke-linejoin="round"/>
<circle cx="33.4429" cy="329.176" r="5.70073" fill="black"/>
<path d="M43.7954 335.476V326.963H47.8209C48.7614 326.963 49.5884 327.137 50.3018 327.486C51.0153 327.834 51.5707 328.325 51.968 328.957C52.3734 329.59 52.576 330.344 52.576 331.219C52.576 332.087 52.3734 332.841 51.968 333.481C51.5707 334.114 51.0153 334.604 50.3018 334.953C49.5884 335.302 48.7614 335.476 47.8209 335.476H43.7954ZM46.2034 333.554H47.7236C48.21 333.554 48.6316 333.465 48.9884 333.287C49.3532 333.1 49.637 332.833 49.8397 332.484C50.0424 332.127 50.1437 331.706 50.1437 331.219C50.1437 330.725 50.0424 330.303 49.8397 329.954C49.637 329.606 49.3532 329.342 48.9884 329.164C48.6316 328.978 48.21 328.884 47.7236 328.884H46.2034V333.554ZM56.5063 335.585C55.9712 335.585 55.4888 335.48 55.0591 335.269C54.6375 335.058 54.3051 334.73 54.0618 334.284C53.8267 333.83 53.7092 333.258 53.7092 332.569V328.884H56.0199V332.192C56.0199 332.703 56.1131 333.068 56.2996 333.287C56.4942 333.506 56.7658 333.615 57.1144 333.615C57.3414 333.615 57.5482 333.562 57.7346 333.457C57.9211 333.352 58.0711 333.185 58.1846 332.958C58.2981 332.723 58.3549 332.423 58.3549 332.058V328.884H60.6656V335.476H58.4643V333.615L58.89 334.138C58.663 334.625 58.3346 334.989 57.9049 335.233C57.4752 335.468 57.009 335.585 56.5063 335.585ZM62.1539 335.476V328.884H64.3552V330.806L64.0268 330.259C64.2214 329.764 64.5376 329.395 64.9754 329.152C65.4132 328.9 65.9443 328.775 66.5686 328.775V330.854C66.4632 330.838 66.3699 330.83 66.2889 330.83C66.2159 330.822 66.1348 330.818 66.0456 330.818C65.5754 330.818 65.1943 330.948 64.9024 331.207C64.6106 331.458 64.4646 331.872 64.4646 332.448V335.476H62.1539ZM67.5221 335.476V328.884H69.8328V335.476H67.5221ZM68.6775 328.155C68.2559 328.155 67.9153 328.037 67.6559 327.802C67.3964 327.567 67.2667 327.275 67.2667 326.926C67.2667 326.578 67.3964 326.286 67.6559 326.051C67.9153 325.816 68.2559 325.698 68.6775 325.698C69.0991 325.698 69.4396 325.811 69.699 326.038C69.9585 326.257 70.0882 326.541 70.0882 326.89C70.0882 327.255 69.9585 327.559 69.699 327.802C69.4477 328.037 69.1072 328.155 68.6775 328.155ZM71.3345 335.476V328.884H73.5357V330.757L73.1101 330.21C73.3614 329.732 73.706 329.375 74.1438 329.14C74.5816 328.896 75.0762 328.775 75.6275 328.775C76.1383 328.775 76.6004 328.88 77.0139 329.091C77.4274 329.294 77.7517 329.61 77.9868 330.04C78.2301 330.469 78.3517 331.025 78.3517 331.706V335.476H76.041V332.083C76.041 331.613 75.9437 331.272 75.7491 331.061C75.5626 330.842 75.2991 330.733 74.9586 330.733C74.7154 330.733 74.4924 330.79 74.2897 330.903C74.087 331.008 73.9289 331.175 73.8154 331.402C73.7019 331.629 73.6452 331.925 73.6452 332.29V335.476H71.3345ZM83.1084 337.945C82.476 337.945 81.872 337.872 81.2963 337.726C80.7288 337.58 80.2423 337.365 79.8369 337.081L80.6761 335.464C80.9517 335.683 81.2923 335.853 81.6976 335.974C82.1111 336.104 82.5125 336.169 82.9016 336.169C83.5259 336.169 83.9759 336.031 84.2516 335.756C84.5272 335.488 84.6651 335.095 84.6651 334.576V333.798L84.7867 331.949L84.7745 330.088V328.884H86.9758V334.272C86.9758 335.52 86.6393 336.445 85.9663 337.045C85.2934 337.645 84.3408 337.945 83.1084 337.945ZM82.7071 335.135C82.1233 335.135 81.5841 335.006 81.0896 334.746C80.6031 334.479 80.2099 334.11 79.9099 333.639C79.618 333.161 79.4721 332.598 79.4721 331.949C79.4721 331.3 79.618 330.741 79.9099 330.271C80.2099 329.792 80.6031 329.423 81.0896 329.164C81.5841 328.905 82.1233 328.775 82.7071 328.775C83.2665 328.775 83.7448 328.888 84.1421 329.115C84.5394 329.334 84.8394 329.679 85.0421 330.149C85.2529 330.619 85.3583 331.219 85.3583 331.949C85.3583 332.679 85.2529 333.279 85.0421 333.749C84.8394 334.219 84.5394 334.568 84.1421 334.795C83.7448 335.022 83.2665 335.135 82.7071 335.135ZM83.2543 333.299C83.53 333.299 83.7732 333.242 83.984 333.129C84.2029 333.015 84.3732 332.857 84.4948 332.654C84.6245 332.452 84.6894 332.217 84.6894 331.949C84.6894 331.681 84.6245 331.446 84.4948 331.244C84.3732 331.041 84.2029 330.887 83.984 330.781C83.7732 330.668 83.53 330.611 83.2543 330.611C82.9787 330.611 82.7314 330.668 82.5125 330.781C82.2936 330.887 82.1192 331.041 81.9895 331.244C81.8679 331.446 81.8071 331.681 81.8071 331.949C81.8071 332.217 81.8679 332.452 81.9895 332.654C82.1192 332.857 82.2936 333.015 82.5125 333.129C82.7314 333.242 82.9787 333.299 83.2543 333.299ZM93.9211 335.476V328.872H91.3064V326.963H98.9317V328.872H96.3291V335.476H93.9211ZM99.7194 335.476V326.452H102.03V330.757L101.495 330.21C101.746 329.732 102.091 329.375 102.529 329.14C102.966 328.896 103.461 328.775 104.012 328.775C104.523 328.775 104.985 328.88 105.399 329.091C105.812 329.294 106.137 329.61 106.372 330.04C106.615 330.469 106.737 331.025 106.737 331.706V335.476H104.426V332.083C104.426 331.613 104.329 331.272 104.134 331.061C103.948 330.842 103.684 330.733 103.343 330.733C103.1 330.733 102.877 330.79 102.675 330.903C102.472 331.008 102.314 331.175 102.2 331.402C102.087 331.629 102.03 331.925 102.03 332.29V335.476H99.7194ZM111.724 335.585C110.946 335.585 110.265 335.439 109.681 335.147C109.106 334.847 108.656 334.442 108.331 333.931C108.015 333.412 107.857 332.825 107.857 332.168C107.857 331.511 108.011 330.927 108.319 330.417C108.635 329.898 109.069 329.496 109.62 329.213C110.172 328.921 110.792 328.775 111.481 328.775C112.13 328.775 112.722 328.909 113.257 329.176C113.792 329.436 114.217 329.821 114.534 330.331C114.85 330.842 115.008 331.463 115.008 332.192C115.008 332.273 115.004 332.367 114.996 332.472C114.988 332.577 114.98 332.675 114.971 332.764H109.754V331.548H113.743L112.868 331.888C112.876 331.588 112.819 331.329 112.697 331.11C112.584 330.891 112.422 330.721 112.211 330.599C112.008 330.477 111.769 330.417 111.493 330.417C111.218 330.417 110.974 330.477 110.764 330.599C110.561 330.721 110.403 330.895 110.289 331.122C110.176 331.341 110.119 331.6 110.119 331.9V332.253C110.119 332.577 110.184 332.857 110.314 333.092C110.451 333.327 110.646 333.51 110.897 333.639C111.149 333.761 111.449 333.822 111.797 333.822C112.122 333.822 112.397 333.777 112.624 333.688C112.859 333.591 113.09 333.445 113.317 333.25L114.534 334.515C114.217 334.864 113.828 335.131 113.366 335.318C112.904 335.496 112.357 335.585 111.724 335.585ZM123.966 335.646C123.293 335.646 122.669 335.541 122.093 335.33C121.526 335.111 121.031 334.803 120.61 334.406C120.196 334.008 119.872 333.542 119.637 333.007C119.402 332.464 119.284 331.868 119.284 331.219C119.284 330.571 119.402 329.979 119.637 329.444C119.872 328.9 120.196 328.43 120.61 328.033C121.031 327.636 121.526 327.332 122.093 327.121C122.669 326.902 123.293 326.792 123.966 326.792C124.753 326.792 125.454 326.93 126.07 327.206C126.695 327.482 127.213 327.879 127.627 328.398L126.095 329.784C125.819 329.46 125.515 329.213 125.183 329.042C124.858 328.872 124.493 328.787 124.088 328.787C123.739 328.787 123.419 328.844 123.127 328.957C122.835 329.071 122.584 329.237 122.373 329.456C122.171 329.667 122.008 329.922 121.887 330.222C121.773 330.522 121.716 330.854 121.716 331.219C121.716 331.584 121.773 331.917 121.887 332.217C122.008 332.517 122.171 332.776 122.373 332.995C122.584 333.206 122.835 333.368 123.127 333.481C123.419 333.595 123.739 333.652 124.088 333.652C124.493 333.652 124.858 333.566 125.183 333.396C125.515 333.226 125.819 332.979 126.095 332.654L127.627 334.041C127.213 334.552 126.695 334.949 126.07 335.233C125.454 335.508 124.753 335.646 123.966 335.646ZM128.496 335.476V326.452H130.807V335.476H128.496ZM135.762 335.585C134.984 335.585 134.303 335.439 133.719 335.147C133.144 334.847 132.694 334.442 132.369 333.931C132.053 333.412 131.895 332.825 131.895 332.168C131.895 331.511 132.049 330.927 132.357 330.417C132.673 329.898 133.107 329.496 133.658 329.213C134.21 328.921 134.83 328.775 135.519 328.775C136.168 328.775 136.76 328.909 137.295 329.176C137.83 329.436 138.256 329.821 138.572 330.331C138.888 330.842 139.046 331.463 139.046 332.192C139.046 332.273 139.042 332.367 139.034 332.472C139.026 332.577 139.018 332.675 139.01 332.764H133.792V331.548H137.781L136.906 331.888C136.914 331.588 136.857 331.329 136.735 331.11C136.622 330.891 136.46 330.721 136.249 330.599C136.046 330.477 135.807 330.417 135.531 330.417C135.256 330.417 135.012 330.477 134.802 330.599C134.599 330.721 134.441 330.895 134.327 331.122C134.214 331.341 134.157 331.6 134.157 331.9V332.253C134.157 332.577 134.222 332.857 134.352 333.092C134.489 333.327 134.684 333.51 134.935 333.639C135.187 333.761 135.487 333.822 135.835 333.822C136.16 333.822 136.435 333.777 136.662 333.688C136.897 333.591 137.129 333.445 137.356 333.25L138.572 334.515C138.256 334.864 137.866 335.131 137.404 335.318C136.942 335.496 136.395 335.585 135.762 335.585ZM143.959 335.476V334.248L143.801 333.943V331.681C143.801 331.317 143.687 331.037 143.46 330.842C143.241 330.64 142.888 330.538 142.402 330.538C142.086 330.538 141.766 330.591 141.441 330.696C141.117 330.794 140.841 330.931 140.614 331.11L139.836 329.541C140.209 329.298 140.655 329.111 141.174 328.982C141.701 328.844 142.224 328.775 142.743 328.775C143.813 328.775 144.64 329.022 145.224 329.517C145.815 330.003 146.111 330.769 146.111 331.815V335.476H143.959ZM142.013 335.585C141.486 335.585 141.04 335.496 140.675 335.318C140.31 335.139 140.031 334.896 139.836 334.588C139.649 334.28 139.556 333.935 139.556 333.554C139.556 333.149 139.658 332.8 139.86 332.508C140.071 332.208 140.391 331.981 140.821 331.827C141.251 331.665 141.806 331.584 142.487 331.584H144.044V332.788H142.803C142.43 332.788 142.167 332.849 142.013 332.971C141.867 333.092 141.794 333.254 141.794 333.457C141.794 333.66 141.871 333.822 142.025 333.943C142.179 334.065 142.39 334.126 142.657 334.126C142.909 334.126 143.136 334.065 143.338 333.943C143.549 333.814 143.703 333.619 143.801 333.36L144.117 334.211C143.995 334.665 143.756 335.01 143.399 335.245C143.051 335.472 142.589 335.585 142.013 335.585ZM147.57 335.476V328.884H149.771V330.757L149.345 330.21C149.597 329.732 149.941 329.375 150.379 329.14C150.817 328.896 151.312 328.775 151.863 328.775C152.374 328.775 152.836 328.88 153.249 329.091C153.663 329.294 153.987 329.61 154.222 330.04C154.465 330.469 154.587 331.025 154.587 331.706V335.476H152.276V332.083C152.276 331.613 152.179 331.272 151.984 331.061C151.798 330.842 151.535 330.733 151.194 330.733C150.951 330.733 150.728 330.79 150.525 330.903C150.322 331.008 150.164 331.175 150.051 331.402C149.937 331.629 149.881 331.925 149.881 332.29V335.476H147.57ZM163.615 335.646C162.358 335.646 161.377 335.302 160.672 334.612C159.966 333.923 159.613 332.946 159.613 331.681V326.963H162.021V331.608C162.021 332.338 162.163 332.861 162.447 333.177C162.739 333.493 163.136 333.652 163.639 333.652C164.142 333.652 164.535 333.493 164.819 333.177C165.102 332.861 165.244 332.338 165.244 331.608V326.963H167.616V331.681C167.616 332.946 167.263 333.923 166.558 334.612C165.852 335.302 164.871 335.646 163.615 335.646ZM173.285 335.585C172.725 335.585 172.247 335.464 171.85 335.22C171.452 334.969 171.148 334.596 170.938 334.102C170.735 333.599 170.633 332.958 170.633 332.18C170.633 331.394 170.731 330.753 170.925 330.259C171.12 329.756 171.412 329.383 171.801 329.14C172.198 328.896 172.693 328.775 173.285 328.775C173.885 328.775 174.428 328.917 174.914 329.2C175.409 329.476 175.798 329.869 176.082 330.38C176.374 330.883 176.52 331.483 176.52 332.18C176.52 332.877 176.374 333.481 176.082 333.992C175.798 334.503 175.409 334.896 174.914 335.172C174.428 335.447 173.885 335.585 173.285 335.585ZM169.138 337.835V328.884H171.339V330.003L171.327 332.18L171.448 334.369V337.835H169.138ZM172.798 333.749C173.058 333.749 173.289 333.688 173.491 333.566C173.702 333.445 173.868 333.266 173.99 333.031C174.12 332.796 174.185 332.512 174.185 332.18C174.185 331.848 174.12 331.564 173.99 331.329C173.868 331.094 173.702 330.915 173.491 330.794C173.289 330.672 173.058 330.611 172.798 330.611C172.539 330.611 172.304 330.672 172.093 330.794C171.89 330.915 171.724 331.094 171.594 331.329C171.473 331.564 171.412 331.848 171.412 332.18C171.412 332.512 171.473 332.796 171.594 333.031C171.724 333.266 171.89 333.445 172.093 333.566C172.304 333.688 172.539 333.749 172.798 333.749Z" fill="black"/>
<g clip-path="url(#clip2_471_5022)">
<rect x="159.239" y="348.559" width="110.974" height="85.1309" rx="6.08078" fill="white"/>
<rect x="159.619" y="348.939" width="110.214" height="84.3708" fill="#616161" stroke="#55565A" stroke-width="0.760097"/>
<path d="M224.904 389.041C226.205 389.949 226.205 391.874 224.904 392.782L211.881 401.866C210.37 402.92 208.297 401.839 208.297 399.996L208.297 381.828C208.297 379.985 210.37 378.903 211.881 379.957L224.904 389.041Z" fill="#D5D5D5"/>
</g>
<path d="M61.2282 55V47.2653H58.2364V46.4869H65.1199V47.2653H62.1281V55H61.2282ZM68.4221 55.0608C67.7573 55.0608 67.1735 54.923 66.6708 54.6473C66.1682 54.3635 65.7749 53.9784 65.4912 53.492C65.2074 52.9974 65.0655 52.4339 65.0655 51.8015C65.0655 51.1691 65.1993 50.6097 65.4668 50.1232C65.7425 49.6368 66.1155 49.2557 66.5857 48.98C67.0641 48.6963 67.5992 48.5544 68.191 48.5544C68.791 48.5544 69.3221 48.6922 69.7842 48.9679C70.2544 49.2354 70.6233 49.6165 70.8909 50.1111C71.1585 50.5975 71.2922 51.161 71.2922 51.8015C71.2922 51.842 71.2882 51.8866 71.2801 51.9353C71.2801 51.9758 71.2801 52.0204 71.2801 52.0691H65.7222V51.4245H70.8179L70.4774 51.6799C70.4774 51.2178 70.3761 50.8083 70.1734 50.4516C69.9788 50.0867 69.7112 49.803 69.3707 49.6003C69.0302 49.3976 68.637 49.2962 68.191 49.2962C67.7532 49.2962 67.36 49.3976 67.0114 49.6003C66.6627 49.803 66.3911 50.0867 66.1965 50.4516C66.002 50.8164 65.9047 51.234 65.9047 51.7042V51.838C65.9047 52.3245 66.0101 52.7542 66.2209 53.1271C66.4398 53.492 66.7398 53.7798 67.1208 53.9906C67.51 54.1933 67.9519 54.2946 68.4464 54.2946C68.8356 54.2946 69.1964 54.2257 69.5288 54.0879C69.8693 53.9501 70.1612 53.7393 70.4044 53.4555L70.8909 54.0149C70.6071 54.3554 70.2504 54.6149 69.8207 54.7933C69.3991 54.9716 68.9329 55.0608 68.4221 55.0608ZM73.0498 55V45.9761H73.9132V55H73.0498ZM76.3158 55V45.9761H77.1793V55H76.3158ZM85.4038 55.0608C84.8606 55.0608 84.3863 54.9595 83.9809 54.7568C83.5755 54.5541 83.2593 54.25 83.0323 53.8447C82.8134 53.4393 82.7039 52.9325 82.7039 52.3245V48.6152H83.5674V52.2272C83.5674 52.9082 83.7336 53.4231 84.066 53.7717C84.4066 54.1122 84.8809 54.2825 85.4889 54.2825C85.9349 54.2825 86.32 54.1933 86.6443 54.0149C86.9767 53.8284 87.228 53.5609 87.3983 53.2123C87.5767 52.8636 87.6659 52.4461 87.6659 51.9596V48.6152H88.5293V55H87.7023V53.2487L87.8361 53.5649C87.6334 54.0352 87.3172 54.4041 86.8875 54.6716C86.4659 54.9311 85.9714 55.0608 85.4038 55.0608ZM92.6506 55.0608C92.1236 55.0608 91.625 54.9878 91.1547 54.8419C90.6845 54.6879 90.3156 54.4973 90.048 54.2703L90.4372 53.5893C90.6966 53.7838 91.029 53.9541 91.4344 54.1C91.8398 54.2379 92.2655 54.3068 92.7114 54.3068C93.3195 54.3068 93.7573 54.2136 94.0248 54.0271C94.2924 53.8325 94.4262 53.5771 94.4262 53.2609C94.4262 53.0258 94.3491 52.8434 94.1951 52.7136C94.0492 52.5758 93.8546 52.4745 93.6113 52.4096C93.3681 52.3366 93.0965 52.2758 92.7965 52.2272C92.4965 52.1785 92.1965 52.1218 91.8966 52.0569C91.6047 51.992 91.3371 51.8988 91.0939 51.7772C90.8507 51.6475 90.652 51.4731 90.498 51.2542C90.352 51.0353 90.2791 50.7435 90.2791 50.3786C90.2791 50.03 90.3764 49.7178 90.571 49.4422C90.7655 49.1665 91.0493 48.9517 91.4223 48.7976C91.8033 48.6355 92.2655 48.5544 92.8087 48.5544C93.2222 48.5544 93.6357 48.6111 94.0492 48.7246C94.4626 48.83 94.8032 48.9719 95.0707 49.1503L94.6937 49.8435C94.4099 49.6489 94.1059 49.5111 93.7816 49.43C93.4573 49.3408 93.133 49.2962 92.8087 49.2962C92.233 49.2962 91.8074 49.3976 91.5317 49.6003C91.2642 49.7949 91.1304 50.0462 91.1304 50.3543C91.1304 50.5975 91.2034 50.788 91.3493 50.9259C91.5033 51.0637 91.702 51.1732 91.9452 51.2542C92.1965 51.3272 92.4682 51.388 92.76 51.4367C93.06 51.4853 93.3559 51.5461 93.6478 51.6191C93.9478 51.6839 94.2194 51.7772 94.4626 51.8988C94.714 52.0123 94.9126 52.1785 95.0586 52.3974C95.2126 52.6082 95.2896 52.8879 95.2896 53.2366C95.2896 53.6095 95.1842 53.9338 94.9734 54.2095C94.7707 54.4771 94.4708 54.6879 94.0735 54.8419C93.6843 54.9878 93.21 55.0608 92.6506 55.0608ZM100.057 55V45.9761H100.92V50.3664L100.75 50.0381C100.953 49.5759 101.277 49.2152 101.723 48.9557C102.169 48.6882 102.7 48.5544 103.316 48.5544C103.835 48.5544 104.289 48.6557 104.678 48.8584C105.076 49.053 105.384 49.353 105.603 49.7584C105.83 50.1638 105.943 50.6745 105.943 51.2907V55H105.08V51.3759C105.08 50.7029 104.909 50.1962 104.569 49.8557C104.236 49.507 103.766 49.3327 103.158 49.3327C102.704 49.3327 102.307 49.426 101.966 49.6124C101.634 49.7908 101.374 50.0543 101.188 50.4029C101.01 50.7435 100.92 51.1569 100.92 51.6434V55H100.057ZM110.878 55.0608C110.262 55.0608 109.707 54.923 109.212 54.6473C108.725 54.3635 108.34 53.9784 108.057 53.492C107.773 52.9974 107.631 52.4339 107.631 51.8015C107.631 51.161 107.773 50.5975 108.057 50.1111C108.34 49.6246 108.725 49.2435 109.212 48.9679C109.698 48.6922 110.254 48.5544 110.878 48.5544C111.51 48.5544 112.07 48.6922 112.556 48.9679C113.051 49.2435 113.436 49.6246 113.712 50.1111C113.995 50.5975 114.137 51.161 114.137 51.8015C114.137 52.4339 113.995 52.9974 113.712 53.492C113.436 53.9784 113.051 54.3635 112.556 54.6473C112.062 54.923 111.502 55.0608 110.878 55.0608ZM110.878 54.2946C111.34 54.2946 111.75 54.1933 112.106 53.9906C112.463 53.7798 112.743 53.4879 112.946 53.115C113.156 52.7339 113.262 52.2961 113.262 51.8015C113.262 51.2988 113.156 50.861 112.946 50.4881C112.743 50.1151 112.463 49.8273 112.106 49.6246C111.75 49.4138 111.344 49.3084 110.89 49.3084C110.436 49.3084 110.031 49.4138 109.674 49.6246C109.317 49.8273 109.034 50.1151 108.823 50.4881C108.612 50.861 108.507 51.2988 108.507 51.8015C108.507 52.2961 108.612 52.7339 108.823 53.115C109.034 53.4879 109.317 53.7798 109.674 53.9906C110.031 54.1933 110.432 54.2946 110.878 54.2946ZM117.023 55L114.615 48.6152H115.442L117.631 54.5379H117.254L119.504 48.6152H120.246L122.472 54.5379H122.095L124.32 48.6152H125.111L122.691 55H121.876L119.735 49.43H119.991L117.838 55H117.023ZM129.643 57.4201C129.343 57.4201 129.055 57.3715 128.779 57.2742C128.511 57.1769 128.28 57.031 128.086 56.8364L128.487 56.1918C128.649 56.3459 128.824 56.4634 129.01 56.5445C129.205 56.6337 129.42 56.6783 129.655 56.6783C129.938 56.6783 130.182 56.5972 130.384 56.4351C130.595 56.281 130.794 56.0054 130.98 55.6081L131.394 54.6716L131.491 54.5379L134.118 48.6152H134.969L131.771 55.7662C131.592 56.1797 131.394 56.508 131.175 56.7513C130.964 56.9945 130.733 57.1648 130.482 57.262C130.23 57.3674 129.951 57.4201 129.643 57.4201ZM131.345 55.1824L128.402 48.6152H129.302L131.905 54.4771L131.345 55.1824ZM138.61 55.0608C137.994 55.0608 137.438 54.923 136.944 54.6473C136.457 54.3635 136.072 53.9784 135.788 53.492C135.505 52.9974 135.363 52.4339 135.363 51.8015C135.363 51.161 135.505 50.5975 135.788 50.1111C136.072 49.6246 136.457 49.2435 136.944 48.9679C137.43 48.6922 137.985 48.5544 138.61 48.5544C139.242 48.5544 139.802 48.6922 140.288 48.9679C140.783 49.2435 141.168 49.6246 141.443 50.1111C141.727 50.5975 141.869 51.161 141.869 51.8015C141.869 52.4339 141.727 52.9974 141.443 53.492C141.168 53.9784 140.783 54.3635 140.288 54.6473C139.793 54.923 139.234 55.0608 138.61 55.0608ZM138.61 54.2946C139.072 54.2946 139.481 54.1933 139.838 53.9906C140.195 53.7798 140.475 53.4879 140.677 53.115C140.888 52.7339 140.993 52.2961 140.993 51.8015C140.993 51.2988 140.888 50.861 140.677 50.4881C140.475 50.1151 140.195 49.8273 139.838 49.6246C139.481 49.4138 139.076 49.3084 138.622 49.3084C138.168 49.3084 137.762 49.4138 137.406 49.6246C137.049 49.8273 136.765 50.1151 136.554 50.4881C136.344 50.861 136.238 51.2988 136.238 51.8015C136.238 52.2961 136.344 52.7339 136.554 53.115C136.765 53.4879 137.049 53.7798 137.406 53.9906C137.762 54.1933 138.164 54.2946 138.61 54.2946ZM146.271 55.0608C145.728 55.0608 145.253 54.9595 144.848 54.7568C144.443 54.5541 144.126 54.25 143.899 53.8447C143.681 53.4393 143.571 52.9325 143.571 52.3245V48.6152H144.435V52.2272C144.435 52.9082 144.601 53.4231 144.933 53.7717C145.274 54.1122 145.748 54.2825 146.356 54.2825C146.802 54.2825 147.187 54.1933 147.511 54.0149C147.844 53.8284 148.095 53.5609 148.265 53.2123C148.444 52.8636 148.533 52.4461 148.533 51.9596V48.6152H149.396V55H148.57V53.2487L148.703 53.5649C148.501 54.0352 148.184 54.4041 147.755 54.6716C147.333 54.9311 146.839 55.0608 146.271 55.0608ZM151.28 48.9435L151.815 46.7058L151.912 47.2166C151.726 47.2166 151.568 47.1599 151.438 47.0463C151.316 46.9247 151.256 46.7666 151.256 46.572C151.256 46.3775 151.316 46.2194 151.438 46.0977C151.568 45.9761 151.722 45.9153 151.9 45.9153C152.087 45.9153 152.237 45.9802 152.35 46.1099C152.472 46.2315 152.533 46.3856 152.533 46.572C152.533 46.6369 152.529 46.7018 152.52 46.7666C152.512 46.8315 152.496 46.9045 152.472 46.9855C152.456 47.0585 152.427 47.1517 152.387 47.2653L151.864 48.9435H151.28ZM154.38 55V48.6152H155.207V50.3543L155.122 50.0502C155.3 49.5638 155.6 49.1949 156.022 48.9435C156.444 48.6841 156.966 48.5544 157.591 48.5544V49.3935C157.558 49.3935 157.526 49.3935 157.493 49.3935C157.461 49.3854 157.429 49.3814 157.396 49.3814C156.723 49.3814 156.196 49.5881 155.815 50.0016C155.434 50.407 155.244 50.9867 155.244 51.7407V55H154.38ZM161.819 55.0608C161.154 55.0608 160.57 54.923 160.068 54.6473C159.565 54.3635 159.172 53.9784 158.888 53.492C158.604 52.9974 158.462 52.4339 158.462 51.8015C158.462 51.1691 158.596 50.6097 158.864 50.1232C159.139 49.6368 159.512 49.2557 159.983 48.98C160.461 48.6963 160.996 48.5544 161.588 48.5544C162.188 48.5544 162.719 48.6922 163.181 48.9679C163.651 49.2354 164.02 49.6165 164.288 50.1111C164.555 50.5975 164.689 51.161 164.689 51.8015C164.689 51.842 164.685 51.8866 164.677 51.9353C164.677 51.9758 164.677 52.0204 164.677 52.0691H159.119V51.4245H164.215L163.874 51.6799C163.874 51.2178 163.773 50.8083 163.57 50.4516C163.376 50.0867 163.108 49.803 162.768 49.6003C162.427 49.3976 162.034 49.2962 161.588 49.2962C161.15 49.2962 160.757 49.3976 160.408 49.6003C160.06 49.803 159.788 50.0867 159.593 50.4516C159.399 50.8164 159.302 51.234 159.302 51.7042V51.838C159.302 52.3245 159.407 52.7542 159.618 53.1271C159.837 53.492 160.137 53.7798 160.518 53.9906C160.907 54.1933 161.349 54.2946 161.843 54.2946C162.233 54.2946 162.593 54.2257 162.926 54.0879C163.266 53.9501 163.558 53.7393 163.801 53.4555L164.288 54.0149C164.004 54.3554 163.647 54.6149 163.218 54.7933C162.796 54.9716 162.33 55.0608 161.819 55.0608ZM172.281 55.0608C171.648 55.0608 171.081 54.923 170.578 54.6473C170.084 54.3635 169.694 53.9784 169.411 53.492C169.127 52.9974 168.985 52.4339 168.985 51.8015C168.985 51.161 169.127 50.5975 169.411 50.1111C169.694 49.6246 170.084 49.2435 170.578 48.9679C171.081 48.6922 171.648 48.5544 172.281 48.5544C172.824 48.5544 173.315 48.6598 173.752 48.8706C174.19 49.0814 174.535 49.3976 174.786 49.8192L174.142 50.257C173.923 49.9327 173.651 49.6935 173.327 49.5395C173.002 49.3854 172.65 49.3084 172.269 49.3084C171.815 49.3084 171.405 49.4138 171.04 49.6246C170.675 49.8273 170.388 50.1151 170.177 50.4881C169.966 50.861 169.861 51.2988 169.861 51.8015C169.861 52.3042 169.966 52.742 170.177 53.115C170.388 53.4879 170.675 53.7798 171.04 53.9906C171.405 54.1933 171.815 54.2946 172.269 54.2946C172.65 54.2946 173.002 54.2176 173.327 54.0636C173.651 53.9095 173.923 53.6744 174.142 53.3582L174.786 53.796C174.535 54.2095 174.19 54.5257 173.752 54.7446C173.315 54.9554 172.824 55.0608 172.281 55.0608ZM176.387 55V45.9761H177.251V55H176.387ZM182.365 55.0608C181.701 55.0608 181.117 54.923 180.614 54.6473C180.111 54.3635 179.718 53.9784 179.434 53.492C179.151 52.9974 179.009 52.4339 179.009 51.8015C179.009 51.1691 179.143 50.6097 179.41 50.1232C179.686 49.6368 180.059 49.2557 180.529 48.98C181.007 48.6963 181.542 48.5544 182.134 48.5544C182.734 48.5544 183.265 48.6922 183.728 48.9679C184.198 49.2354 184.567 49.6165 184.834 50.1111C185.102 50.5975 185.236 51.161 185.236 51.8015C185.236 51.842 185.231 51.8866 185.223 51.9353C185.223 51.9758 185.223 52.0204 185.223 52.0691H179.666V51.4245H184.761L184.421 51.6799C184.421 51.2178 184.319 50.8083 184.117 50.4516C183.922 50.0867 183.655 49.803 183.314 49.6003C182.973 49.3976 182.58 49.2962 182.134 49.2962C181.697 49.2962 181.303 49.3976 180.955 49.6003C180.606 49.803 180.334 50.0867 180.14 50.4516C179.945 50.8164 179.848 51.234 179.848 51.7042V51.838C179.848 52.3245 179.953 52.7542 180.164 53.1271C180.383 53.492 180.683 53.7798 181.064 53.9906C181.453 54.1933 181.895 54.2946 182.39 54.2946C182.779 54.2946 183.14 54.2257 183.472 54.0879C183.813 53.9501 184.105 53.7393 184.348 53.4555L184.834 54.0149C184.55 54.3554 184.194 54.6149 183.764 54.7933C183.342 54.9716 182.876 55.0608 182.365 55.0608ZM190.816 55V53.5893L190.78 53.3582V50.9988C190.78 50.4556 190.626 50.0381 190.317 49.7462C190.017 49.4543 189.567 49.3084 188.968 49.3084C188.554 49.3084 188.161 49.3773 187.788 49.5151C187.415 49.653 187.099 49.8354 186.839 50.0624L186.45 49.4178C186.774 49.1422 187.164 48.9314 187.618 48.7854C188.072 48.6314 188.55 48.5544 189.053 48.5544C189.88 48.5544 190.516 48.7611 190.962 49.1746C191.416 49.58 191.643 50.2002 191.643 51.0353V55H190.816ZM188.615 55.0608C188.136 55.0608 187.719 54.9838 187.362 54.8297C187.014 54.6676 186.746 54.4487 186.56 54.173C186.373 53.8892 186.28 53.5649 186.28 53.2001C186.28 52.8677 186.357 52.5677 186.511 52.3001C186.673 52.0245 186.932 51.8056 187.289 51.6434C187.654 51.4731 188.141 51.388 188.749 51.388H190.95V52.0326H188.773C188.157 52.0326 187.727 52.142 187.484 52.3609C187.249 52.5799 187.131 52.8515 187.131 53.1758C187.131 53.5406 187.273 53.8325 187.557 54.0514C187.841 54.2703 188.238 54.3798 188.749 54.3798C189.235 54.3798 189.653 54.2703 190.001 54.0514C190.358 53.8244 190.617 53.5001 190.78 53.0785L190.974 53.6744C190.812 54.096 190.528 54.4325 190.123 54.6838C189.726 54.9351 189.223 55.0608 188.615 55.0608ZM193.988 55V48.6152H194.815V50.3664L194.682 50.0381C194.884 49.5759 195.209 49.2152 195.654 48.9557C196.1 48.6882 196.631 48.5544 197.248 48.5544C197.767 48.5544 198.221 48.6557 198.61 48.8584C199.007 49.053 199.315 49.353 199.534 49.7584C199.761 50.1638 199.875 50.6745 199.875 51.2907V55H199.011V51.3759C199.011 50.7029 198.841 50.1962 198.5 49.8557C198.168 49.507 197.698 49.3327 197.09 49.3327C196.636 49.3327 196.238 49.426 195.898 49.6124C195.565 49.7908 195.306 50.0543 195.119 50.4029C194.941 50.7435 194.852 51.1569 194.852 51.6434V55H193.988ZM202.207 55V48.6152H203.07V55H202.207ZM202.645 47.2044C202.466 47.2044 202.316 47.1436 202.195 47.022C202.073 46.9004 202.012 46.7545 202.012 46.5842C202.012 46.4139 202.073 46.2721 202.195 46.1585C202.316 46.0369 202.466 45.9761 202.645 45.9761C202.823 45.9761 202.973 46.0329 203.095 46.1464C203.216 46.2599 203.277 46.4018 203.277 46.572C203.277 46.7504 203.216 46.9004 203.095 47.022C202.981 47.1436 202.831 47.2044 202.645 47.2044ZM205.473 55V48.6152H206.3V50.3664L206.166 50.0381C206.369 49.5759 206.693 49.2152 207.139 48.9557C207.585 48.6882 208.116 48.5544 208.732 48.5544C209.251 48.5544 209.705 48.6557 210.094 48.8584C210.492 49.053 210.8 49.353 211.019 49.7584C211.246 50.1638 211.359 50.6745 211.359 51.2907V55H210.496V51.3759C210.496 50.7029 210.325 50.1962 209.985 49.8557C209.652 49.507 209.182 49.3327 208.574 49.3327C208.12 49.3327 207.723 49.426 207.382 49.6124C207.05 49.7908 206.79 50.0543 206.604 50.4029C206.426 50.7435 206.336 51.1569 206.336 51.6434V55H205.473ZM216.416 57.4201C215.832 57.4201 215.272 57.335 214.737 57.1648C214.202 56.9945 213.769 56.7513 213.436 56.4351L213.874 55.7783C214.174 56.0459 214.543 56.2567 214.981 56.4107C215.427 56.5729 215.897 56.654 216.391 56.654C217.202 56.654 217.798 56.4634 218.179 56.0824C218.56 55.7094 218.751 55.1257 218.751 54.3311V52.738L218.872 51.6434L218.787 50.5489V48.6152H219.614V54.2217C219.614 55.3243 219.343 56.131 218.799 56.6418C218.264 57.1607 217.47 57.4201 216.416 57.4201ZM216.258 54.7568C215.649 54.7568 215.102 54.627 214.616 54.3676C214.129 54.1 213.744 53.7311 213.46 53.2609C213.185 52.7907 213.047 52.2515 213.047 51.6434C213.047 51.0353 213.185 50.5002 213.46 50.0381C213.744 49.5678 214.129 49.203 214.616 48.9435C215.102 48.6841 215.649 48.5544 216.258 48.5544C216.825 48.5544 217.336 48.6719 217.79 48.9071C218.244 49.1422 218.605 49.4908 218.872 49.953C219.14 50.4151 219.274 50.9786 219.274 51.6434C219.274 52.3082 219.14 52.8717 218.872 53.3339C218.605 53.796 218.244 54.1487 217.79 54.3919C217.336 54.6352 216.825 54.7568 216.258 54.7568ZM216.343 53.9906C216.813 53.9906 217.23 53.8933 217.595 53.6987C217.96 53.496 218.248 53.2204 218.459 52.8717C218.67 52.515 218.775 52.1056 218.775 51.6434C218.775 51.1813 218.67 50.7759 218.459 50.4273C218.248 50.0786 217.96 49.807 217.595 49.6124C217.23 49.4097 216.813 49.3084 216.343 49.3084C215.881 49.3084 215.463 49.4097 215.09 49.6124C214.725 49.807 214.437 50.0786 214.227 50.4273C214.024 50.7759 213.923 51.1813 213.923 51.6434C213.923 52.1056 214.024 52.515 214.227 52.8717C214.437 53.2204 214.725 53.496 215.09 53.6987C215.463 53.8933 215.881 53.9906 216.343 53.9906ZM227.839 55.0608C227.296 55.0608 226.821 54.9595 226.416 54.7568C226.011 54.5541 225.694 54.25 225.467 53.8447C225.248 53.4393 225.139 52.9325 225.139 52.3245V48.6152H226.002V52.2272C226.002 52.9082 226.169 53.4231 226.501 53.7717C226.842 54.1122 227.316 54.2825 227.924 54.2825C228.37 54.2825 228.755 54.1933 229.079 54.0149C229.412 53.8284 229.663 53.5609 229.833 53.2123C230.012 52.8636 230.101 52.4461 230.101 51.9596V48.6152H230.964V55H230.137V53.2487L230.271 53.5649C230.069 54.0352 229.752 54.4041 229.323 54.6716C228.901 54.9311 228.406 55.0608 227.839 55.0608ZM236.667 55.0608C236.115 55.0608 235.617 54.9351 235.171 54.6838C234.725 54.4244 234.368 54.0555 234.101 53.5771C233.841 53.0906 233.711 52.4988 233.711 51.8015C233.711 51.1042 233.841 50.5164 234.101 50.0381C234.36 49.5516 234.713 49.1827 235.159 48.9314C235.605 48.68 236.107 48.5544 236.667 48.5544C237.275 48.5544 237.818 48.6922 238.296 48.9679C238.783 49.2354 239.164 49.6165 239.439 50.1111C239.715 50.5975 239.853 51.161 239.853 51.8015C239.853 52.4501 239.715 53.0177 239.439 53.5041C239.164 53.9906 238.783 54.3717 238.296 54.6473C237.818 54.923 237.275 55.0608 236.667 55.0608ZM233.371 57.3593V48.6152H234.198V50.5367L234.113 51.8137L234.234 53.1028V57.3593H233.371ZM236.606 54.2946C237.06 54.2946 237.465 54.1933 237.822 53.9906C238.179 53.7798 238.463 53.4879 238.673 53.115C238.884 52.7339 238.99 52.2961 238.99 51.8015C238.99 51.3069 238.884 50.8732 238.673 50.5002C238.463 50.1273 238.179 49.8354 237.822 49.6246C237.465 49.4138 237.06 49.3084 236.606 49.3084C236.152 49.3084 235.742 49.4138 235.378 49.6246C235.021 49.8354 234.737 50.1273 234.526 50.5002C234.324 50.8732 234.222 51.3069 234.222 51.8015C234.222 52.2961 234.324 52.7339 234.526 53.115C234.737 53.4879 235.021 53.7798 235.378 53.9906C235.742 54.1933 236.152 54.2946 236.606 54.2946ZM241.65 52.4461L241.479 46.4869H242.501L242.319 52.4461H241.65ZM241.99 55.0608C241.812 55.0608 241.658 55 241.528 54.8784C241.406 54.7487 241.346 54.5987 241.346 54.4284C241.346 54.25 241.406 54.1041 241.528 53.9906C241.658 53.869 241.812 53.8082 241.99 53.8082C242.177 53.8082 242.327 53.869 242.44 53.9906C242.562 54.1041 242.623 54.25 242.623 54.4284C242.623 54.5987 242.562 54.7487 242.44 54.8784C242.327 55 242.177 55.0608 241.99 55.0608Z" fill="black"/>
<rect x="45.9846" y="508.394" width="148.606" height="30.2019" rx="15.101" fill="#4C5763"/>
<path d="M64.7622 528.165C64.0893 528.165 63.465 528.059 62.8893 527.849C62.3218 527.63 61.8272 527.322 61.4056 526.924C60.9921 526.527 60.6678 526.061 60.4327 525.526C60.1976 524.983 60.08 524.387 60.08 523.738C60.08 523.089 60.1976 522.498 60.4327 521.962C60.6678 521.419 60.9921 520.949 61.4056 520.552C61.8272 520.154 62.3218 519.85 62.8893 519.64C63.465 519.421 64.0893 519.311 64.7622 519.311C65.5486 519.311 66.25 519.449 66.8661 519.725C67.4904 520 68.0093 520.398 68.4228 520.917L66.8905 522.303C66.6148 521.979 66.3108 521.731 65.9784 521.561C65.654 521.391 65.2892 521.306 64.8838 521.306C64.5352 521.306 64.2149 521.363 63.923 521.476C63.6312 521.59 63.3798 521.756 63.169 521.975C62.9663 522.185 62.8042 522.441 62.6826 522.741C62.5691 523.041 62.5123 523.373 62.5123 523.738C62.5123 524.103 62.5691 524.435 62.6826 524.735C62.8042 525.035 62.9663 525.295 63.169 525.514C63.3798 525.724 63.6312 525.887 63.923 526C64.2149 526.114 64.5352 526.17 64.8838 526.17C65.2892 526.17 65.654 526.085 65.9784 525.915C66.3108 525.745 66.6148 525.497 66.8905 525.173L68.4228 526.56C68.0093 527.07 67.4904 527.468 66.8661 527.751C66.25 528.027 65.5486 528.165 64.7622 528.165ZM73.2937 527.995V526.766L73.1356 526.462V524.2C73.1356 523.835 73.0221 523.556 72.7951 523.361C72.5762 523.158 72.2235 523.057 71.737 523.057C71.4208 523.057 71.1006 523.11 70.7763 523.215C70.452 523.312 70.1763 523.45 69.9493 523.629L69.1709 522.06C69.5439 521.817 69.9898 521.63 70.5087 521.5C71.0357 521.363 71.5587 521.294 72.0776 521.294C73.1478 521.294 73.9748 521.541 74.5585 522.035C75.1504 522.522 75.4463 523.288 75.4463 524.334V527.995H73.2937ZM71.3479 528.104C70.8209 528.104 70.3749 528.015 70.0101 527.837C69.6452 527.658 69.3655 527.415 69.1709 527.107C68.9845 526.799 68.8912 526.454 68.8912 526.073C68.8912 525.668 68.9926 525.319 69.1953 525.027C69.4061 524.727 69.7263 524.5 70.156 524.346C70.5857 524.184 71.1411 524.103 71.8222 524.103H73.3788V525.307H72.1384C71.7654 525.307 71.5019 525.368 71.3479 525.489C71.2019 525.611 71.129 525.773 71.129 525.976C71.129 526.179 71.206 526.341 71.36 526.462C71.5141 526.584 71.7249 526.645 71.9924 526.645C72.2438 526.645 72.4708 526.584 72.6735 526.462C72.8843 526.333 73.0383 526.138 73.1356 525.879L73.4518 526.73C73.3302 527.184 73.091 527.528 72.7343 527.764C72.3857 527.991 71.9235 528.104 71.3479 528.104ZM81.0519 528.104C80.4925 528.104 80.0141 527.982 79.6169 527.739C79.2196 527.488 78.9156 527.115 78.7048 526.62C78.5021 526.118 78.4007 525.477 78.4007 524.699C78.4007 523.912 78.498 523.272 78.6926 522.777C78.8872 522.275 79.1791 521.902 79.5682 521.658C79.9655 521.415 80.4601 521.294 81.0519 521.294C81.6519 521.294 82.1951 521.435 82.6816 521.719C83.1761 521.995 83.5653 522.388 83.8491 522.899C84.141 523.402 84.2869 524.002 84.2869 524.699C84.2869 525.396 84.141 526 83.8491 526.511C83.5653 527.022 83.1761 527.415 82.6816 527.691C82.1951 527.966 81.6519 528.104 81.0519 528.104ZM76.9048 530.354V521.403H79.1061V522.522L79.0939 524.699L79.2155 526.888V530.354H76.9048ZM80.5655 526.268C80.8249 526.268 81.056 526.207 81.2587 526.085C81.4695 525.964 81.6357 525.785 81.7573 525.55C81.887 525.315 81.9519 525.031 81.9519 524.699C81.9519 524.366 81.887 524.083 81.7573 523.848C81.6357 523.612 81.4695 523.434 81.2587 523.312C81.056 523.191 80.8249 523.13 80.5655 523.13C80.306 523.13 80.0709 523.191 79.8601 523.312C79.6574 523.434 79.4912 523.612 79.3615 523.848C79.2399 524.083 79.1791 524.366 79.1791 524.699C79.1791 525.031 79.2399 525.315 79.3615 525.55C79.4912 525.785 79.6574 525.964 79.8601 526.085C80.0709 526.207 80.306 526.268 80.5655 526.268ZM88.304 528.104C87.4608 528.104 86.8041 527.897 86.3338 527.484C85.8636 527.062 85.6285 526.43 85.6285 525.587V519.932H87.9392V525.562C87.9392 525.797 88.004 525.984 88.1338 526.122C88.2635 526.251 88.4297 526.316 88.6324 526.316C88.908 526.316 89.1432 526.247 89.3377 526.11L89.9093 527.727C89.7148 527.857 89.4756 527.95 89.1918 528.007C88.908 528.072 88.6121 528.104 88.304 528.104ZM84.6677 523.118V521.403H89.4472V523.118H84.6677ZM93.5732 528.104C93.0381 528.104 92.5557 527.999 92.126 527.788C91.7044 527.577 91.372 527.249 91.1287 526.803C90.8936 526.349 90.776 525.777 90.776 525.088V521.403H93.0867V524.711C93.0867 525.222 93.18 525.587 93.3665 525.806C93.561 526.024 93.8326 526.134 94.1813 526.134C94.4083 526.134 94.615 526.081 94.8015 525.976C94.988 525.87 95.138 525.704 95.2515 525.477C95.365 525.242 95.4218 524.942 95.4218 524.577V521.403H97.7325V527.995H95.5312V526.134L95.9569 526.657C95.7298 527.143 95.4015 527.508 94.9718 527.751C94.5421 527.987 94.0759 528.104 93.5732 528.104ZM99.2208 527.995V521.403H101.422V523.325L101.094 522.777C101.288 522.283 101.604 521.914 102.042 521.671C102.48 521.419 103.011 521.294 103.635 521.294V523.373C103.53 523.357 103.437 523.349 103.356 523.349C103.283 523.341 103.202 523.337 103.113 523.337C102.642 523.337 102.261 523.466 101.969 523.726C101.677 523.977 101.532 524.391 101.532 524.966V527.995H99.2208ZM107.984 528.104C107.205 528.104 106.524 527.958 105.94 527.666C105.365 527.366 104.915 526.961 104.59 526.45C104.274 525.931 104.116 525.343 104.116 524.687C104.116 524.03 104.27 523.446 104.578 522.935C104.894 522.417 105.328 522.015 105.88 521.731C106.431 521.44 107.051 521.294 107.74 521.294C108.389 521.294 108.981 521.427 109.516 521.695C110.051 521.954 110.477 522.34 110.793 522.85C111.109 523.361 111.267 523.981 111.267 524.711C111.267 524.792 111.263 524.885 111.255 524.991C111.247 525.096 111.239 525.193 111.231 525.283H106.013V524.066H110.002L109.127 524.407C109.135 524.107 109.078 523.848 108.956 523.629C108.843 523.41 108.681 523.239 108.47 523.118C108.267 522.996 108.028 522.935 107.752 522.935C107.477 522.935 107.234 522.996 107.023 523.118C106.82 523.239 106.662 523.414 106.548 523.641C106.435 523.86 106.378 524.119 106.378 524.419V524.772C106.378 525.096 106.443 525.376 106.573 525.611C106.711 525.846 106.905 526.029 107.157 526.158C107.408 526.28 107.708 526.341 108.056 526.341C108.381 526.341 108.656 526.296 108.883 526.207C109.119 526.11 109.35 525.964 109.577 525.769L110.793 527.034C110.477 527.382 110.087 527.65 109.625 527.837C109.163 528.015 108.616 528.104 107.984 528.104ZM115.981 527.995V519.482H119.873C120.651 519.482 121.32 519.607 121.879 519.859C122.447 520.11 122.885 520.475 123.193 520.953C123.501 521.423 123.655 521.983 123.655 522.631C123.655 523.272 123.501 523.827 123.193 524.298C122.885 524.768 122.447 525.133 121.879 525.392C121.32 525.643 120.651 525.769 119.873 525.769H117.319L118.389 524.723V527.995H115.981ZM118.389 524.979L117.319 523.872H119.727C120.23 523.872 120.603 523.762 120.846 523.544C121.097 523.325 121.223 523.021 121.223 522.631C121.223 522.234 121.097 521.926 120.846 521.707C120.603 521.488 120.23 521.379 119.727 521.379H117.319L118.389 520.272V524.979ZM124.838 527.995V521.403H127.149V527.995H124.838ZM125.994 520.673C125.572 520.673 125.232 520.556 124.972 520.321C124.713 520.086 124.583 519.794 124.583 519.445C124.583 519.096 124.713 518.805 124.972 518.569C125.232 518.334 125.572 518.217 125.994 518.217C126.415 518.217 126.756 518.33 127.015 518.557C127.275 518.776 127.405 519.06 127.405 519.409C127.405 519.773 127.275 520.077 127.015 520.321C126.764 520.556 126.424 520.673 125.994 520.673ZM132.02 528.104C131.29 528.104 130.637 527.958 130.062 527.666C129.494 527.374 129.048 526.973 128.724 526.462C128.399 525.943 128.237 525.352 128.237 524.687C128.237 524.022 128.399 523.434 128.724 522.923C129.048 522.412 129.494 522.015 130.062 521.731C130.637 521.44 131.29 521.294 132.02 521.294C132.765 521.294 133.41 521.452 133.953 521.768C134.496 522.084 134.882 522.53 135.109 523.106L133.321 524.018C133.167 523.71 132.976 523.487 132.749 523.349C132.522 523.203 132.275 523.13 132.007 523.13C131.74 523.13 131.497 523.191 131.278 523.312C131.059 523.434 130.884 523.612 130.755 523.848C130.633 524.075 130.572 524.354 130.572 524.687C130.572 525.027 130.633 525.315 130.755 525.55C130.884 525.785 131.059 525.964 131.278 526.085C131.497 526.207 131.74 526.268 132.007 526.268C132.275 526.268 132.522 526.199 132.749 526.061C132.976 525.915 133.167 525.688 133.321 525.38L135.109 526.292C134.882 526.868 134.496 527.314 133.953 527.63C133.41 527.946 132.765 528.104 132.02 528.104ZM139.029 528.104C138.185 528.104 137.529 527.897 137.058 527.484C136.588 527.062 136.353 526.43 136.353 525.587V519.932H138.664V525.562C138.664 525.797 138.729 525.984 138.858 526.122C138.988 526.251 139.154 526.316 139.357 526.316C139.633 526.316 139.868 526.247 140.062 526.11L140.634 527.727C140.439 527.857 140.2 527.95 139.916 528.007C139.633 528.072 139.337 528.104 139.029 528.104ZM135.392 523.118V521.403H140.172V523.118H135.392ZM144.298 528.104C143.763 528.104 143.28 527.999 142.851 527.788C142.429 527.577 142.097 527.249 141.853 526.803C141.618 526.349 141.501 525.777 141.501 525.088V521.403H143.811V524.711C143.811 525.222 143.905 525.587 144.091 525.806C144.286 526.024 144.557 526.134 144.906 526.134C145.133 526.134 145.34 526.081 145.526 525.976C145.713 525.87 145.863 525.704 145.976 525.477C146.09 525.242 146.146 524.942 146.146 524.577V521.403H148.457V527.995H146.256V526.134L146.681 526.657C146.454 527.143 146.126 527.508 145.696 527.751C145.267 527.987 144.8 528.104 144.298 528.104ZM149.945 527.995V521.403H152.147V523.325L151.818 522.777C152.013 522.283 152.329 521.914 152.767 521.671C153.205 521.419 153.736 521.294 154.36 521.294V523.373C154.255 523.357 154.161 523.349 154.08 523.349C154.007 523.341 153.926 523.337 153.837 523.337C153.367 523.337 152.986 523.466 152.694 523.726C152.402 523.977 152.256 524.391 152.256 524.966V527.995H149.945ZM158.708 528.104C157.93 528.104 157.249 527.958 156.665 527.666C156.089 527.366 155.639 526.961 155.315 526.45C154.999 525.931 154.841 525.343 154.841 524.687C154.841 524.03 154.995 523.446 155.303 522.935C155.619 522.417 156.053 522.015 156.604 521.731C157.155 521.44 157.776 521.294 158.465 521.294C159.113 521.294 159.705 521.427 160.24 521.695C160.776 521.954 161.201 522.34 161.517 522.85C161.834 523.361 161.992 523.981 161.992 524.711C161.992 524.792 161.988 524.885 161.98 524.991C161.971 525.096 161.963 525.193 161.955 525.283H156.738V524.066H160.727L159.851 524.407C159.859 524.107 159.803 523.848 159.681 523.629C159.568 523.41 159.405 523.239 159.195 523.118C158.992 522.996 158.753 522.935 158.477 522.935C158.201 522.935 157.958 522.996 157.747 523.118C157.545 523.239 157.387 523.414 157.273 523.641C157.16 523.86 157.103 524.119 157.103 524.419V524.772C157.103 525.096 157.168 525.376 157.297 525.611C157.435 525.846 157.63 526.029 157.881 526.158C158.132 526.28 158.432 526.341 158.781 526.341C159.105 526.341 159.381 526.296 159.608 526.207C159.843 526.11 160.074 525.964 160.301 525.769L161.517 527.034C161.201 527.382 160.812 527.65 160.35 527.837C159.888 528.015 159.341 528.104 158.708 528.104Z" fill="white"/>
<path d="M187.749 528.815C187.749 529.219 187.589 529.605 187.304 529.89C187.019 530.175 186.632 530.336 186.229 530.336H172.548C172.144 530.336 171.758 530.175 171.473 529.89C171.188 529.605 171.027 529.219 171.027 528.815V520.454C171.027 520.051 171.188 519.664 171.473 519.379C171.758 519.094 172.144 518.934 172.548 518.934H175.588L177.108 516.654H181.669L183.189 518.934H186.229C186.632 518.934 187.019 519.094 187.304 519.379C187.589 519.664 187.749 520.051 187.749 520.454V528.815Z" stroke="white" stroke-width="0.760097" stroke-linecap="round" stroke-linejoin="round"/>
<path d="M179.388 527.295C181.068 527.295 182.429 525.934 182.429 524.255C182.429 522.576 181.068 521.214 179.388 521.214C177.709 521.214 176.348 522.576 176.348 524.255C176.348 525.934 177.709 527.295 179.388 527.295Z" stroke="white" stroke-width="0.760097" stroke-linecap="round" stroke-linejoin="round"/>
<path d="M33.823 443.785V585.163" stroke="#C1C1C1" stroke-width="0.760097"/>
<circle cx="34.2032" cy="473.809" r="5.70073" fill="black"/>
<path d="M46.5745 480.108V472.933H43.753V471.595H50.977V472.933H48.1555V480.108H46.5745ZM55.6743 480.108V478.795L55.5891 478.515V476.217C55.5891 475.771 55.4554 475.426 55.1878 475.183C54.9202 474.932 54.5149 474.806 53.9716 474.806C53.6068 474.806 53.246 474.863 52.8893 474.976C52.5406 475.09 52.2447 475.248 52.0015 475.451L51.4056 474.344C51.7542 474.076 52.1677 473.878 52.646 473.748C53.1325 473.61 53.6352 473.541 54.1541 473.541C55.0946 473.541 55.8202 473.768 56.331 474.222C56.8499 474.668 57.1093 475.361 57.1093 476.302V480.108H55.6743ZM53.6311 480.194C53.1447 480.194 52.719 480.112 52.3542 479.95C51.9893 479.78 51.7055 479.549 51.5028 479.257C51.3083 478.957 51.211 478.621 51.211 478.248C51.211 477.883 51.2961 477.554 51.4664 477.263C51.6447 476.971 51.9326 476.74 52.3298 476.569C52.7271 476.399 53.2541 476.314 53.9108 476.314H55.7959V477.323H54.0203C53.5014 477.323 53.1528 477.409 52.9744 477.579C52.796 477.741 52.7068 477.944 52.7068 478.187C52.7068 478.463 52.8163 478.681 53.0352 478.844C53.2541 479.006 53.5581 479.087 53.9473 479.087C54.3203 479.087 54.6527 479.002 54.9446 478.831C55.2446 478.661 55.4594 478.41 55.5891 478.077L55.8445 478.99C55.6986 479.371 55.4351 479.667 55.054 479.877C54.6811 480.088 54.2068 480.194 53.6311 480.194ZM60.3008 478.661L60.3373 476.752L63.7303 473.614H65.5546L62.6723 476.509L61.8696 477.177L60.3008 478.661ZM59.0603 480.108V471.085H60.5805V480.108H59.0603ZM63.9614 480.108L61.5899 477.177L62.5507 475.961L65.81 480.108H63.9614ZM69.5713 480.194C68.8497 480.194 68.2173 480.052 67.6741 479.768C67.139 479.476 66.7214 479.079 66.4215 478.576C66.1296 478.073 65.9836 477.502 65.9836 476.861C65.9836 476.213 66.1255 475.641 66.4093 475.146C66.7012 474.644 67.0985 474.251 67.6011 473.967C68.1119 473.683 68.6916 473.541 69.3402 473.541C69.9726 473.541 70.5361 473.679 71.0307 473.955C71.5253 474.23 71.9144 474.619 72.1982 475.122C72.482 475.625 72.6239 476.217 72.6239 476.898C72.6239 476.963 72.6198 477.036 72.6117 477.117C72.6117 477.198 72.6076 477.275 72.5995 477.348H67.1876V476.338H71.7969L71.201 476.655C71.2091 476.282 71.132 475.953 70.9699 475.669C70.8077 475.386 70.5848 475.163 70.301 475.001C70.0253 474.838 69.7051 474.757 69.3402 474.757C68.9673 474.757 68.6389 474.838 68.3551 475.001C68.0795 475.163 67.8606 475.39 67.6984 475.682C67.5444 475.965 67.4674 476.302 67.4674 476.691V476.934C67.4674 477.323 67.5565 477.668 67.7349 477.968C67.9133 478.268 68.1646 478.499 68.4889 478.661C68.8132 478.823 69.1862 478.904 69.6078 478.904C69.9726 478.904 70.301 478.848 70.5929 478.734C70.8848 478.621 71.1442 478.442 71.3712 478.199L72.186 479.135C71.8942 479.476 71.5253 479.739 71.0793 479.926C70.6415 480.104 70.1388 480.194 69.5713 480.194ZM77.5911 480.108V471.595H81.0936C81.8476 471.595 82.4922 471.717 83.0273 471.96C83.5705 472.203 83.9881 472.552 84.2799 473.006C84.5718 473.46 84.7178 473.999 84.7178 474.624C84.7178 475.248 84.5718 475.787 84.2799 476.241C83.9881 476.695 83.5705 477.044 83.0273 477.287C82.4922 477.53 81.8476 477.652 81.0936 477.652H78.4667L79.1721 476.91V480.108H77.5911ZM79.1721 477.08L78.4667 476.314H81.0206C81.7179 476.314 82.2409 476.168 82.5895 475.876C82.9462 475.576 83.1246 475.159 83.1246 474.624C83.1246 474.08 82.9462 473.663 82.5895 473.371C82.2409 473.079 81.7179 472.933 81.0206 472.933H78.4667L79.1721 472.155V477.08ZM86.2694 480.108V473.614H87.7896V480.108H86.2694ZM87.0356 472.544C86.7518 472.544 86.5167 472.455 86.3302 472.276C86.1518 472.098 86.0627 471.883 86.0627 471.632C86.0627 471.372 86.1518 471.157 86.3302 470.987C86.5167 470.809 86.7518 470.72 87.0356 470.72C87.3194 470.72 87.5504 470.805 87.7288 470.975C87.9153 471.137 88.0085 471.344 88.0085 471.595C88.0085 471.863 87.9193 472.09 87.741 472.276C87.5626 472.455 87.3275 472.544 87.0356 472.544ZM92.7644 480.194C92.0834 480.194 91.4753 480.052 90.9402 479.768C90.4132 479.476 89.9997 479.079 89.6997 478.576C89.3997 478.073 89.2497 477.502 89.2497 476.861C89.2497 476.213 89.3997 475.641 89.6997 475.146C89.9997 474.644 90.4132 474.251 90.9402 473.967C91.4753 473.683 92.0834 473.541 92.7644 473.541C93.3968 473.541 93.9522 473.671 94.4306 473.93C94.917 474.182 95.2859 474.555 95.5373 475.049L94.3698 475.73C94.1752 475.422 93.936 475.195 93.6522 475.049C93.3766 474.903 93.0766 474.83 92.7523 474.83C92.3793 474.83 92.0428 474.911 91.7429 475.074C91.4429 475.236 91.2078 475.471 91.0375 475.779C90.8672 476.079 90.7821 476.44 90.7821 476.861C90.7821 477.283 90.8672 477.648 91.0375 477.956C91.2078 478.256 91.4429 478.487 91.7429 478.649C92.0428 478.811 92.3793 478.892 92.7523 478.892C93.0766 478.892 93.3766 478.819 93.6522 478.673C93.936 478.527 94.1752 478.3 94.3698 477.992L95.5373 478.673C95.2859 479.16 94.917 479.537 94.4306 479.804C93.9522 480.064 93.3968 480.194 92.7644 480.194ZM99.379 480.194C98.6655 480.194 98.1142 480.011 97.725 479.646C97.3358 479.273 97.1413 478.726 97.1413 478.004V472.179H98.6615V477.968C98.6615 478.276 98.7385 478.515 98.8925 478.685C99.0547 478.856 99.2776 478.941 99.5614 478.941C99.9019 478.941 100.186 478.852 100.413 478.673L100.838 479.756C100.66 479.902 100.441 480.011 100.182 480.084C99.9222 480.157 99.6546 480.194 99.379 480.194ZM96.071 474.83V473.614H100.401V474.83H96.071ZM104.837 480.194C104.286 480.194 103.8 480.092 103.378 479.889C102.956 479.679 102.628 479.362 102.393 478.941C102.158 478.511 102.04 477.972 102.04 477.323V473.614H103.56V477.117C103.56 477.7 103.69 478.138 103.95 478.43C104.217 478.714 104.594 478.856 105.081 478.856C105.437 478.856 105.745 478.783 106.005 478.637C106.272 478.491 106.479 478.272 106.625 477.98C106.779 477.688 106.856 477.327 106.856 476.898V473.614H108.376V480.108H106.929V478.357L107.185 478.892C106.966 479.314 106.645 479.638 106.224 479.865C105.802 480.084 105.34 480.194 104.837 480.194ZM110.367 480.108V473.614H111.814V475.402L111.644 474.879C111.838 474.441 112.142 474.109 112.556 473.882C112.978 473.655 113.5 473.541 114.125 473.541V474.988C114.06 474.972 113.999 474.964 113.942 474.964C113.886 474.956 113.829 474.952 113.772 474.952C113.196 474.952 112.738 475.122 112.398 475.463C112.057 475.795 111.887 476.294 111.887 476.959V480.108H110.367ZM118.408 480.194C117.686 480.194 117.054 480.052 116.51 479.768C115.975 479.476 115.558 479.079 115.258 478.576C114.966 478.073 114.82 477.502 114.82 476.861C114.82 476.213 114.962 475.641 115.246 475.146C115.537 474.644 115.935 474.251 116.437 473.967C116.948 473.683 117.528 473.541 118.176 473.541C118.809 473.541 119.372 473.679 119.867 473.955C120.361 474.23 120.751 474.619 121.034 475.122C121.318 475.625 121.46 476.217 121.46 476.898C121.46 476.963 121.456 477.036 121.448 477.117C121.448 477.198 121.444 477.275 121.436 477.348H116.024V476.338H120.633L120.037 476.655C120.045 476.282 119.968 475.953 119.806 475.669C119.644 475.386 119.421 475.163 119.137 475.001C118.862 474.838 118.541 474.757 118.176 474.757C117.804 474.757 117.475 474.838 117.191 475.001C116.916 475.163 116.697 475.39 116.535 475.682C116.381 475.965 116.304 476.302 116.304 476.691V476.934C116.304 477.323 116.393 477.668 116.571 477.968C116.75 478.268 117.001 478.499 117.325 478.661C117.649 478.823 118.022 478.904 118.444 478.904C118.809 478.904 119.137 478.848 119.429 478.734C119.721 478.621 119.98 478.442 120.207 478.199L121.022 479.135C120.73 479.476 120.361 479.739 119.916 479.926C119.478 480.104 118.975 480.194 118.408 480.194ZM43.5341 495.108L47.292 486.595H49.6635L53.4336 495.108H50.9283L47.9852 487.775H48.9338L45.9907 495.108H43.5341ZM45.5894 493.454L46.2096 491.679H50.3689L50.9891 493.454H45.5894ZM54.2744 495.108V488.59C54.2744 487.795 54.5095 487.163 54.9797 486.693C55.4581 486.214 56.1391 485.975 57.0229 485.975C57.3066 485.975 57.5863 486.003 57.862 486.06C58.1377 486.117 58.3687 486.202 58.5552 486.316L57.9836 487.945C57.8863 487.888 57.7769 487.844 57.6553 487.811C57.5336 487.771 57.412 487.751 57.2904 487.751C57.0472 487.751 56.8567 487.824 56.7188 487.97C56.5891 488.107 56.5242 488.322 56.5242 488.614V489.088L56.585 490.049V495.108H54.2744ZM53.3136 490.487V488.76H58.0931V490.487H53.3136ZM61.8905 495.218C61.0473 495.218 60.3906 495.011 59.9204 494.598C59.4501 494.176 59.215 493.544 59.215 492.7V487.045H61.5257V492.676C61.5257 492.911 61.5905 493.098 61.7203 493.236C61.85 493.365 62.0162 493.43 62.2189 493.43C62.4945 493.43 62.7297 493.361 62.9243 493.223L63.4958 494.841C63.3013 494.971 63.0621 495.064 62.7783 495.121C62.4945 495.185 62.1986 495.218 61.8905 495.218ZM58.2542 490.232V488.517H63.0337V490.232H58.2542ZM67.6507 495.218C66.8724 495.218 66.1913 495.072 65.6076 494.78C65.0319 494.48 64.582 494.075 64.2577 493.564C63.9415 493.045 63.7834 492.457 63.7834 491.8C63.7834 491.144 63.9374 490.56 64.2455 490.049C64.5617 489.53 64.9955 489.129 65.5468 488.845C66.0981 488.553 66.7183 488.407 67.4075 488.407C68.0561 488.407 68.648 488.541 69.1831 488.809C69.7182 489.068 70.1438 489.453 70.46 489.964C70.7762 490.475 70.9343 491.095 70.9343 491.825C70.9343 491.906 70.9303 491.999 70.9222 492.104C70.9141 492.21 70.906 492.307 70.8979 492.396H65.6806V491.18H69.6695L68.7939 491.521C68.802 491.221 68.7453 490.961 68.6237 490.742C68.5101 490.523 68.348 490.353 68.1372 490.232C67.9345 490.11 67.6953 490.049 67.4197 490.049C67.144 490.049 66.9008 490.11 66.69 490.232C66.4873 490.353 66.3292 490.528 66.2157 490.755C66.1022 490.973 66.0454 491.233 66.0454 491.533V491.886C66.0454 492.21 66.1103 492.49 66.24 492.725C66.3778 492.96 66.5724 493.142 66.8237 493.272C67.0751 493.394 67.3751 493.454 67.7237 493.454C68.048 493.454 68.3237 493.41 68.5507 493.321C68.7858 493.223 69.0169 493.077 69.2439 492.883L70.46 494.148C70.1438 494.496 69.7547 494.764 69.2925 494.95C68.8304 495.129 68.2831 495.218 67.6507 495.218ZM71.9997 495.108V488.517H74.201V490.438L73.8726 489.891C74.0672 489.397 74.3834 489.028 74.8212 488.784C75.259 488.533 75.7901 488.407 76.4144 488.407V490.487C76.309 490.471 76.2157 490.463 76.1346 490.463C76.0617 490.455 75.9806 490.451 75.8914 490.451C75.4212 490.451 75.0401 490.58 74.7482 490.84C74.4564 491.091 74.3104 491.505 74.3104 492.08V495.108H71.9997ZM85.2847 495.279C84.6118 495.279 83.9875 495.173 83.4118 494.962C82.8443 494.744 82.3497 494.435 81.9281 494.038C81.5146 493.641 81.1903 493.175 80.9552 492.64C80.7201 492.096 80.6025 491.5 80.6025 490.852C80.6025 490.203 80.7201 489.611 80.9552 489.076C81.1903 488.533 81.5146 488.063 81.9281 487.666C82.3497 487.268 82.8443 486.964 83.4118 486.753C83.9875 486.535 84.6118 486.425 85.2847 486.425C86.0711 486.425 86.7725 486.563 87.3886 486.839C88.0129 487.114 88.5318 487.511 88.9453 488.03L87.413 489.417C87.1373 489.092 86.8333 488.845 86.5009 488.675C86.1765 488.505 85.8117 488.42 85.4063 488.42C85.0577 488.42 84.7374 488.476 84.4456 488.59C84.1537 488.703 83.9023 488.87 83.6915 489.088C83.4888 489.299 83.3267 489.555 83.2051 489.855C83.0916 490.155 83.0348 490.487 83.0348 490.852C83.0348 491.217 83.0916 491.549 83.2051 491.849C83.3267 492.149 83.4888 492.409 83.6915 492.627C83.9023 492.838 84.1537 493 84.4456 493.114C84.7374 493.227 85.0577 493.284 85.4063 493.284C85.8117 493.284 86.1765 493.199 86.5009 493.029C86.8333 492.859 87.1373 492.611 87.413 492.287L88.9453 493.673C88.5318 494.184 88.0129 494.581 87.3886 494.865C86.7725 495.141 86.0711 495.279 85.2847 495.279ZM89.8145 495.108V486.085H92.1252V495.108H89.8145ZM97.0807 495.218C96.3024 495.218 95.6214 495.072 95.0376 494.78C94.462 494.48 94.012 494.075 93.6877 493.564C93.3715 493.045 93.2134 492.457 93.2134 491.8C93.2134 491.144 93.3674 490.56 93.6755 490.049C93.9917 489.53 94.4255 489.129 94.9768 488.845C95.5281 488.553 96.1484 488.407 96.8375 488.407C97.4861 488.407 98.078 488.541 98.6131 488.809C99.1482 489.068 99.5739 489.453 99.8901 489.964C100.206 490.475 100.364 491.095 100.364 491.825C100.364 491.906 100.36 491.999 100.352 492.104C100.344 492.21 100.336 492.307 100.328 492.396H95.1106V491.18H99.0996L98.2239 491.521C98.232 491.221 98.1753 490.961 98.0537 490.742C97.9402 490.523 97.778 490.353 97.5672 490.232C97.3645 490.11 97.1253 490.049 96.8497 490.049C96.574 490.049 96.3308 490.11 96.12 490.232C95.9173 490.353 95.7592 490.528 95.6457 490.755C95.5322 490.973 95.4754 491.233 95.4754 491.533V491.886C95.4754 492.21 95.5403 492.49 95.67 492.725C95.8078 492.96 96.0024 493.142 96.2538 493.272C96.5051 493.394 96.8051 493.454 97.1537 493.454C97.478 493.454 97.7537 493.41 97.9807 493.321C98.2158 493.223 98.4469 493.077 98.6739 492.883L99.8901 494.148C99.5739 494.496 99.1847 494.764 98.7225 494.95C98.2604 495.129 97.7131 495.218 97.0807 495.218ZM105.277 495.108V493.88L105.119 493.576V491.314C105.119 490.949 105.005 490.669 104.778 490.475C104.56 490.272 104.207 490.171 103.72 490.171C103.404 490.171 103.084 490.224 102.76 490.329C102.435 490.426 102.16 490.564 101.933 490.742L101.154 489.174C101.527 488.93 101.973 488.744 102.492 488.614C103.019 488.476 103.542 488.407 104.061 488.407C105.131 488.407 105.958 488.655 106.542 489.149C107.134 489.636 107.43 490.402 107.43 491.448V495.108H105.277ZM103.331 495.218C102.804 495.218 102.358 495.129 101.993 494.95C101.629 494.772 101.349 494.529 101.154 494.221C100.968 493.913 100.875 493.568 100.875 493.187C100.875 492.781 100.976 492.433 101.179 492.141C101.389 491.841 101.71 491.614 102.139 491.46C102.569 491.298 103.124 491.217 103.806 491.217H105.362V492.421H104.122C103.749 492.421 103.485 492.482 103.331 492.603C103.185 492.725 103.112 492.887 103.112 493.09C103.112 493.292 103.189 493.454 103.343 493.576C103.497 493.698 103.708 493.758 103.976 493.758C104.227 493.758 104.454 493.698 104.657 493.576C104.868 493.446 105.022 493.252 105.119 492.992L105.435 493.844C105.314 494.298 105.074 494.642 104.718 494.877C104.369 495.104 103.907 495.218 103.331 495.218ZM108.888 495.108V488.517H111.089V490.39L110.664 489.842C110.915 489.364 111.26 489.007 111.697 488.772C112.135 488.529 112.63 488.407 113.181 488.407C113.692 488.407 114.154 488.513 114.568 488.724C114.981 488.926 115.305 489.242 115.541 489.672C115.784 490.102 115.905 490.657 115.905 491.338V495.108H113.595V491.715C113.595 491.245 113.497 490.905 113.303 490.694C113.116 490.475 112.853 490.365 112.512 490.365C112.269 490.365 112.046 490.422 111.843 490.536C111.641 490.641 111.483 490.807 111.369 491.034C111.256 491.261 111.199 491.557 111.199 491.922V495.108H108.888ZM124.933 495.279C123.676 495.279 122.695 494.934 121.99 494.245C121.285 493.556 120.932 492.579 120.932 491.314V486.595H123.34V491.241C123.34 491.971 123.482 492.494 123.765 492.81C124.057 493.126 124.455 493.284 124.957 493.284C125.46 493.284 125.853 493.126 126.137 492.81C126.421 492.494 126.563 491.971 126.563 491.241V486.595H128.934V491.314C128.934 492.579 128.581 493.556 127.876 494.245C127.171 494.934 126.19 495.279 124.933 495.279ZM134.603 495.218C134.044 495.218 133.565 495.096 133.168 494.853C132.771 494.602 132.467 494.229 132.256 493.734C132.053 493.231 131.952 492.591 131.952 491.813C131.952 491.026 132.049 490.386 132.244 489.891C132.438 489.388 132.73 489.015 133.119 488.772C133.517 488.529 134.011 488.407 134.603 488.407C135.203 488.407 135.746 488.549 136.233 488.833C136.727 489.109 137.116 489.502 137.4 490.013C137.692 490.515 137.838 491.115 137.838 491.813C137.838 492.51 137.692 493.114 137.4 493.625C137.116 494.135 136.727 494.529 136.233 494.804C135.746 495.08 135.203 495.218 134.603 495.218ZM130.456 497.468V488.517H132.657V489.636L132.645 491.813L132.767 494.002V497.468H130.456ZM134.117 493.381C134.376 493.381 134.607 493.321 134.81 493.199C135.021 493.077 135.187 492.899 135.308 492.664C135.438 492.429 135.503 492.145 135.503 491.813C135.503 491.48 135.438 491.196 135.308 490.961C135.187 490.726 135.021 490.548 134.81 490.426C134.607 490.305 134.376 490.244 134.117 490.244C133.857 490.244 133.622 490.305 133.411 490.426C133.209 490.548 133.042 490.726 132.913 490.961C132.791 491.196 132.73 491.48 132.73 491.813C132.73 492.145 132.791 492.429 132.913 492.664C133.042 492.899 133.209 493.077 133.411 493.199C133.622 493.321 133.857 493.381 134.117 493.381Z" fill="black"/>
<rect x="28.5024" y="576" width="275.915" height="39.3231" rx="19.6616" fill="#ACACAC"/>
<path d="M109.811 600.162V591.649H116.488V593.509H112.195V598.301H116.646V600.162H109.811ZM112.025 596.744V594.944H115.977V596.744H112.025ZM117.873 600.162V593.57H120.074V595.443L119.648 594.896C119.9 594.417 120.244 594.061 120.682 593.825C121.12 593.582 121.615 593.461 122.166 593.461C122.677 593.461 123.139 593.566 123.552 593.777C123.966 593.979 124.29 594.296 124.525 594.725C124.768 595.155 124.89 595.71 124.89 596.392V600.162H122.579V596.769C122.579 596.298 122.482 595.958 122.288 595.747C122.101 595.528 121.838 595.419 121.497 595.419C121.254 595.419 121.031 595.475 120.828 595.589C120.625 595.694 120.467 595.86 120.354 596.088C120.24 596.315 120.184 596.61 120.184 596.975V600.162H117.873ZM129.294 600.271C128.694 600.271 128.147 600.133 127.652 599.858C127.166 599.574 126.777 599.181 126.485 598.678C126.193 598.167 126.047 597.559 126.047 596.854C126.047 596.156 126.193 595.556 126.485 595.054C126.777 594.543 127.166 594.15 127.652 593.874C128.147 593.598 128.694 593.461 129.294 593.461C129.862 593.461 130.34 593.582 130.729 593.825C131.126 594.069 131.426 594.442 131.629 594.944C131.832 595.447 131.933 596.083 131.933 596.854C131.933 597.64 131.836 598.285 131.641 598.787C131.447 599.29 131.155 599.663 130.766 599.906C130.376 600.149 129.886 600.271 129.294 600.271ZM129.781 598.435C130.04 598.435 130.271 598.374 130.474 598.252C130.685 598.131 130.851 597.952 130.972 597.717C131.094 597.474 131.155 597.186 131.155 596.854C131.155 596.521 131.094 596.242 130.972 596.015C130.851 595.779 130.685 595.601 130.474 595.479C130.271 595.358 130.04 595.297 129.781 595.297C129.513 595.297 129.274 595.358 129.063 595.479C128.86 595.601 128.698 595.779 128.577 596.015C128.455 596.242 128.394 596.521 128.394 596.854C128.394 597.186 128.455 597.474 128.577 597.717C128.698 597.952 128.86 598.131 129.063 598.252C129.274 598.374 129.513 598.435 129.781 598.435ZM131.228 600.162V599.031L131.24 596.854L131.118 594.677V591.138H133.429V600.162H131.228ZM140.376 600.162V593.558H137.762V591.649H145.387V593.558H142.784V600.162H140.376ZM146.175 600.162V591.138H148.485V595.443L147.95 594.896C148.202 594.417 148.546 594.061 148.984 593.825C149.422 593.582 149.916 593.461 150.468 593.461C150.978 593.461 151.441 593.566 151.854 593.777C152.268 593.979 152.592 594.296 152.827 594.725C153.07 595.155 153.192 595.71 153.192 596.392V600.162H150.881V596.769C150.881 596.298 150.784 595.958 150.589 595.747C150.403 595.528 150.139 595.419 149.799 595.419C149.556 595.419 149.333 595.475 149.13 595.589C148.927 595.694 148.769 595.86 148.656 596.088C148.542 596.315 148.485 596.61 148.485 596.975V600.162H146.175ZM158.18 600.271C157.401 600.271 156.72 600.125 156.136 599.833C155.561 599.533 155.111 599.128 154.786 598.617C154.47 598.098 154.312 597.51 154.312 596.854C154.312 596.197 154.466 595.613 154.774 595.102C155.091 594.584 155.524 594.182 156.076 593.898C156.627 593.607 157.247 593.461 157.936 593.461C158.585 593.461 159.177 593.594 159.712 593.862C160.247 594.121 160.673 594.506 160.989 595.017C161.305 595.528 161.463 596.148 161.463 596.878C161.463 596.959 161.459 597.052 161.451 597.158C161.443 597.263 161.435 597.36 161.427 597.45H156.209V596.233H160.198L159.323 596.574C159.331 596.274 159.274 596.015 159.152 595.796C159.039 595.577 158.877 595.406 158.666 595.285C158.463 595.163 158.224 595.102 157.949 595.102C157.673 595.102 157.43 595.163 157.219 595.285C157.016 595.406 156.858 595.581 156.745 595.808C156.631 596.027 156.574 596.286 156.574 596.586V596.939C156.574 597.263 156.639 597.543 156.769 597.778C156.907 598.013 157.101 598.196 157.353 598.325C157.604 598.447 157.904 598.508 158.253 598.508C158.577 598.508 158.853 598.463 159.08 598.374C159.315 598.277 159.546 598.131 159.773 597.936L160.989 599.201C160.673 599.549 160.284 599.817 159.821 600.004C159.359 600.182 158.812 600.271 158.18 600.271ZM170.422 600.332C169.749 600.332 169.124 600.226 168.549 600.016C167.981 599.797 167.487 599.489 167.065 599.091C166.652 598.694 166.327 598.228 166.092 597.693C165.857 597.15 165.739 596.554 165.739 595.905C165.739 595.256 165.857 594.665 166.092 594.129C166.327 593.586 166.652 593.116 167.065 592.719C167.487 592.321 167.981 592.017 168.549 591.807C169.124 591.588 169.749 591.478 170.422 591.478C171.208 591.478 171.909 591.616 172.526 591.892C173.15 592.167 173.669 592.565 174.082 593.084L172.55 594.47C172.274 594.146 171.97 593.898 171.638 593.728C171.313 593.558 170.949 593.473 170.543 593.473C170.195 593.473 169.874 593.53 169.582 593.643C169.291 593.757 169.039 593.923 168.828 594.142C168.626 594.352 168.464 594.608 168.342 594.908C168.228 595.208 168.172 595.54 168.172 595.905C168.172 596.27 168.228 596.602 168.342 596.902C168.464 597.202 168.626 597.462 168.828 597.681C169.039 597.891 169.291 598.054 169.582 598.167C169.874 598.281 170.195 598.337 170.543 598.337C170.949 598.337 171.313 598.252 171.638 598.082C171.97 597.912 172.274 597.664 172.55 597.34L174.082 598.727C173.669 599.237 173.15 599.635 172.526 599.918C171.909 600.194 171.208 600.332 170.422 600.332ZM174.951 600.162V591.138H177.262V600.162H174.951ZM182.218 600.271C181.439 600.271 180.758 600.125 180.174 599.833C179.599 599.533 179.149 599.128 178.825 598.617C178.508 598.098 178.35 597.51 178.35 596.854C178.35 596.197 178.504 595.613 178.812 595.102C179.129 594.584 179.562 594.182 180.114 593.898C180.665 593.607 181.285 593.461 181.974 593.461C182.623 593.461 183.215 593.594 183.75 593.862C184.285 594.121 184.711 594.506 185.027 595.017C185.343 595.528 185.501 596.148 185.501 596.878C185.501 596.959 185.497 597.052 185.489 597.158C185.481 597.263 185.473 597.36 185.465 597.45H180.247V596.233H184.236L183.361 596.574C183.369 596.274 183.312 596.015 183.191 595.796C183.077 595.577 182.915 595.406 182.704 595.285C182.501 595.163 182.262 595.102 181.987 595.102C181.711 595.102 181.468 595.163 181.257 595.285C181.054 595.406 180.896 595.581 180.783 595.808C180.669 596.027 180.612 596.286 180.612 596.586V596.939C180.612 597.263 180.677 597.543 180.807 597.778C180.945 598.013 181.139 598.196 181.391 598.325C181.642 598.447 181.942 598.508 182.291 598.508C182.615 598.508 182.891 598.463 183.118 598.374C183.353 598.277 183.584 598.131 183.811 597.936L185.027 599.201C184.711 599.549 184.322 599.817 183.859 600.004C183.397 600.182 182.85 600.271 182.218 600.271ZM190.414 600.162V598.933L190.256 598.629V596.367C190.256 596.002 190.142 595.723 189.915 595.528C189.696 595.325 189.344 595.224 188.857 595.224C188.541 595.224 188.221 595.277 187.897 595.382C187.572 595.479 187.297 595.617 187.07 595.796L186.291 594.227C186.664 593.984 187.11 593.797 187.629 593.667C188.156 593.53 188.679 593.461 189.198 593.461C190.268 593.461 191.095 593.708 191.679 594.202C192.271 594.689 192.567 595.455 192.567 596.501V600.162H190.414ZM188.468 600.271C187.941 600.271 187.495 600.182 187.13 600.004C186.765 599.825 186.486 599.582 186.291 599.274C186.105 598.966 186.011 598.621 186.011 598.24C186.011 597.835 186.113 597.486 186.316 597.194C186.526 596.894 186.847 596.667 187.276 596.513C187.706 596.351 188.261 596.27 188.942 596.27H190.499V597.474H189.259C188.886 597.474 188.622 597.535 188.468 597.656C188.322 597.778 188.249 597.94 188.249 598.143C188.249 598.345 188.326 598.508 188.48 598.629C188.634 598.751 188.845 598.812 189.113 598.812C189.364 598.812 189.591 598.751 189.794 598.629C190.005 598.5 190.159 598.305 190.256 598.046L190.572 598.897C190.45 599.351 190.211 599.695 189.855 599.931C189.506 600.158 189.044 600.271 188.468 600.271ZM194.025 600.162V593.57H196.226V595.443L195.801 594.896C196.052 594.417 196.397 594.061 196.834 593.825C197.272 593.582 197.767 593.461 198.318 593.461C198.829 593.461 199.291 593.566 199.705 593.777C200.118 593.979 200.442 594.296 200.677 594.725C200.921 595.155 201.042 595.71 201.042 596.392V600.162H198.732V596.769C198.732 596.298 198.634 595.958 198.44 595.747C198.253 595.528 197.99 595.419 197.649 595.419C197.406 595.419 197.183 595.475 196.98 595.589C196.778 595.694 196.62 595.86 196.506 596.088C196.393 596.315 196.336 596.61 196.336 596.975V600.162H194.025ZM210.07 600.332C208.813 600.332 207.832 599.987 207.127 599.298C206.421 598.609 206.069 597.632 206.069 596.367V591.649H208.477V596.294C208.477 597.024 208.619 597.547 208.902 597.863C209.194 598.179 209.592 598.337 210.094 598.337C210.597 598.337 210.99 598.179 211.274 597.863C211.558 597.547 211.7 597.024 211.7 596.294V591.649H214.071V596.367C214.071 597.632 213.718 598.609 213.013 599.298C212.308 599.987 211.327 600.332 210.07 600.332ZM219.74 600.271C219.18 600.271 218.702 600.149 218.305 599.906C217.908 599.655 217.604 599.282 217.393 598.787C217.19 598.285 217.089 597.644 217.089 596.866C217.089 596.079 217.186 595.439 217.381 594.944C217.575 594.442 217.867 594.069 218.256 593.825C218.653 593.582 219.148 593.461 219.74 593.461C220.34 593.461 220.883 593.602 221.37 593.886C221.864 594.162 222.253 594.555 222.537 595.066C222.829 595.569 222.975 596.169 222.975 596.866C222.975 597.563 222.829 598.167 222.537 598.678C222.253 599.189 221.864 599.582 221.37 599.858C220.883 600.133 220.34 600.271 219.74 600.271ZM215.593 602.521V593.57H217.794V594.689L217.782 596.866L217.904 599.055V602.521H215.593ZM219.253 598.435C219.513 598.435 219.744 598.374 219.947 598.252C220.157 598.131 220.324 597.952 220.445 597.717C220.575 597.482 220.64 597.198 220.64 596.866C220.64 596.533 220.575 596.25 220.445 596.015C220.324 595.779 220.157 595.601 219.947 595.479C219.744 595.358 219.513 595.297 219.253 595.297C218.994 595.297 218.759 595.358 218.548 595.479C218.345 595.601 218.179 595.779 218.049 596.015C217.928 596.25 217.867 596.533 217.867 596.866C217.867 597.198 217.928 597.482 218.049 597.717C218.179 597.952 218.345 598.131 218.548 598.252C218.759 598.374 218.994 598.435 219.253 598.435Z" fill="white"/>
<path d="M33.823 102.328V323.896" stroke="black" stroke-width="0.760097"/>
<path d="M33.823 221.877L33.823 471.189" stroke="black" stroke-width="0.760097"/>
</g>
<g filter="url(#filter0_d_471_5022)">
<path d="M-0.078125 642.994L116.824 642.994C122.041 642.994 126.663 646.406 129.746 650.616C133.99 656.411 141.859 663.359 155.114 663.136C168.81 662.906 177.262 655.578 181.802 649.828C184.834 645.986 189.243 642.994 194.138 642.994L313.078 642.994V700.001H-0.078125V642.994Z" fill="#F6F6F6"/>
</g>
<rect x="140.5" y="627" width="32" height="32" rx="16" fill="#4C5763"/>
<path d="M151.5 648.833H154.577V643.93H158.423V648.833H161.5V641.333L156.5 637.551L151.5 641.333V648.833ZM150.667 649.666V640.916L156.5 636.51L162.333 640.916V649.666H157.59V644.763H155.41V649.666H150.667Z" fill="white"/>
</g>
<defs>
<filter id="filter0_d_471_5022" x="-13.7597" y="632.352" width="349.64" height="93.491" filterUnits="userSpaceOnUse" color-interpolation-filters="sRGB">
<feFlood flood-opacity="0" result="BackgroundImageFix"/>
<feColorMatrix in="SourceAlpha" type="matrix" values="0 0 0 0 0 0 0 0 0 0 0 0 0 0 0 0 0 0 127 0" result="hardAlpha"/>
<feOffset dx="4.56052" dy="7.60087"/>
<feGaussianBlur stdDeviation="9.12105"/>
<feComposite in2="hardAlpha" operator="out"/>
<feColorMatrix type="matrix" values="0 0 0 0 0.0901961 0 0 0 0 0 0 0 0 0 0.717647 0 0 0 1 0"/>
<feBlend mode="normal" in2="BackgroundImageFix" result="effect1_dropShadow_471_5022"/>
<feBlend mode="normal" in="SourceGraphic" in2="effect1_dropShadow_471_5022" result="shape"/>
</filter>
<clipPath id="clip0_471_5022">
<rect width="313" height="700" fill="white"/>
</clipPath>
<clipPath id="clip1_471_5022">
<rect width="294" height="588" fill="white" transform="translate(9.5 43)"/>
</clipPath>
<clipPath id="clip2_471_5022">
<rect x="159.239" y="348.559" width="110.974" height="85.1309" rx="6.08078" fill="white"/>
</clipPath>
</defs>
</svg>
