<svg xmlns="http://www.w3.org/2000/svg" xmlns:xlink="http://www.w3.org/1999/xlink" width="1012" zoomAndPan="magnify" viewBox="0 0 759 425.249996" height="567" preserveAspectRatio="xMidYMid meet" version="1.0"><defs><g/></defs><g fill="#545454" fill-opacity="1"><g transform="translate(224.053639, 152.213513)"><g><path d="M -1.375 -5.15625 L 0.234375 -5.15625 C 4.078125 -5.15625 6.835938 -5.90625 8.515625 -7.40625 C 10.203125 -8.914062 11.382812 -11.109375 12.0625 -13.984375 L 24.859375 -74.25 C 25.171875 -75.769531 25.328125 -76.910156 25.328125 -77.671875 C 25.328125 -80.953125 22.367188 -82.59375 16.453125 -82.59375 L 14.890625 -82.59375 L 15.96875 -87.765625 L 51.75 -87.765625 L 50.65625 -82.59375 L 49.046875 -82.59375 C 45.160156 -82.59375 42.375 -81.898438 40.6875 -80.515625 C 39.007812 -79.140625 37.875 -77.050781 37.28125 -74.25 L 22.75 -6.125 L 46.9375 -6.125 C 53.21875 -6.125 57.601562 -9.828125 60.09375 -17.234375 L 63.328125 -26.40625 L 69.6875 -26.40625 L 63.328125 0 L -2.46875 0 Z M -1.375 -5.15625 "/></g></g></g><g fill="#545454" fill-opacity="1"><g transform="translate(296.713939, 152.213513)"><g><path d="M 22.75 -6.125 L 46.46875 -6.125 C 53.382812 -6.125 58.023438 -9.484375 60.390625 -16.203125 L 62.3125 -21.484375 L 68.734375 -21.484375 L 63.328125 0 L -2.578125 0 L -1.625 -5.15625 L 0 -5.15625 C 4.164062 -5.15625 7.054688 -5.882812 8.671875 -7.34375 C 10.296875 -8.8125 11.390625 -10.828125 11.953125 -13.390625 L 24.734375 -73.78125 C 24.972656 -74.894531 25.09375 -75.875 25.09375 -76.71875 C 25.09375 -78.632812 24.53125 -80.09375 23.40625 -81.09375 C 22.289062 -82.09375 19.972656 -82.59375 16.453125 -82.59375 L 14.890625 -82.59375 L 15.96875 -87.765625 L 77.921875 -87.765625 L 74.015625 -66.265625 L 67.59375 -66.265625 L 67.953125 -70.046875 C 68.148438 -71.972656 68.25 -73.097656 68.25 -73.421875 C 68.25 -78.898438 65.328125 -81.640625 59.484375 -81.640625 L 38.84375 -81.640625 L 31.8125 -48.921875 L 61.46875 -48.921875 L 60.265625 -42.921875 L 30.609375 -42.921875 Z M 22.75 -6.125 "/></g></g></g><g fill="#545454" fill-opacity="1"><g transform="translate(369.374239, 152.213513)"><g><path d="M 39.4375 -13.5 C 39.113281 -11.976562 38.953125 -10.835938 38.953125 -10.078125 C 38.953125 -6.796875 41.914062 -5.15625 47.84375 -5.15625 L 50.65625 -5.15625 L 49.515625 0 L 11.28125 0 L 12.421875 -5.15625 L 15.25 -5.15625 C 19.375 -5.15625 22.234375 -5.863281 23.828125 -7.28125 C 25.429688 -8.707031 26.515625 -10.742188 27.078125 -13.390625 L 41.546875 -81.640625 L 29.78125 -81.640625 C 23.9375 -81.640625 19.832031 -78.273438 17.46875 -71.546875 L 15.734375 -66.265625 L 9.359375 -66.265625 L 14.53125 -87.765625 L 83.734375 -87.765625 L 79.78125 -66.265625 L 73.421875 -66.265625 C 73.816406 -69.472656 74.015625 -71.976562 74.015625 -73.78125 C 74.015625 -79.019531 71.3125 -81.640625 65.90625 -81.640625 L 53.96875 -81.640625 Z M 39.4375 -13.5 "/></g></g></g><g fill="#545454" fill-opacity="1"><g transform="translate(440.773976, 152.213513)"><g><path d="M 10.078125 -54.078125 L 10.5625 -59.25 C 18.925781 -61.125 23.109375 -64.566406 23.109375 -69.578125 C 23.109375 -71.015625 21.789062 -72.570312 19.15625 -74.25 C 16.46875 -75.9375 15.125 -78.019531 15.125 -80.5 C 15.125 -82.695312 15.820312 -84.457031 17.21875 -85.78125 C 18.625 -87.101562 20.46875 -87.765625 22.75 -87.765625 C 25.507812 -87.765625 27.800781 -86.832031 29.625 -84.96875 C 31.445312 -83.101562 32.359375 -80.671875 32.359375 -77.671875 C 32.359375 -71.628906 30.425781 -66.546875 26.5625 -62.421875 C 22.695312 -58.304688 17.203125 -55.523438 10.078125 -54.078125 Z M 10.078125 -54.078125 "/></g></g></g><g fill="#545454" fill-opacity="1"><g transform="translate(467.573564, 152.213513)"><g><path d="M 10.328125 -25.6875 C 10.328125 -19.40625 11.988281 -14.351562 15.3125 -10.53125 C 18.632812 -6.707031 23.195312 -4.796875 29 -4.796875 C 34.71875 -4.796875 39.265625 -6.21875 42.640625 -9.0625 C 46.023438 -11.90625 47.71875 -15.769531 47.71875 -20.65625 C 47.71875 -24.53125 46.75 -27.804688 44.8125 -30.484375 C 42.875 -33.171875 38.679688 -36.335938 32.234375 -39.984375 C 25.671875 -43.785156 21.117188 -47.6875 18.578125 -51.6875 C 16.035156 -55.6875 14.765625 -60.207031 14.765625 -65.25 C 14.765625 -72.332031 17.445312 -78.0625 22.8125 -82.4375 C 28.175781 -86.820312 35.4375 -89.015625 44.59375 -89.015625 C 51.71875 -89.015625 57.398438 -87.773438 61.640625 -85.296875 C 65.890625 -82.816406 68.015625 -79.632812 68.015625 -75.75 C 68.015625 -70.070312 64.390625 -67.234375 57.140625 -67.234375 C 57.140625 -72.035156 56 -75.835938 53.71875 -78.640625 C 51.4375 -81.441406 48.078125 -82.84375 43.640625 -82.84375 C 38.753906 -82.84375 34.75 -81.441406 31.625 -78.640625 C 28.507812 -75.835938 26.953125 -72.070312 26.953125 -67.34375 C 26.953125 -63.863281 27.78125 -60.851562 29.4375 -58.3125 C 31.101562 -55.769531 35.335938 -52.519531 42.140625 -48.5625 C 48.578125 -44.800781 53.226562 -41.054688 56.09375 -37.328125 C 58.957031 -33.609375 60.390625 -29.367188 60.390625 -24.609375 C 60.390625 -16.484375 57.546875 -10.148438 51.859375 -5.609375 C 46.179688 -1.066406 38.28125 1.203125 28.15625 1.203125 C 19.789062 1.203125 13.144531 -0.445312 8.21875 -3.75 C 3.300781 -7.050781 0.84375 -11.242188 0.84375 -16.328125 C 0.84375 -19.171875 1.734375 -21.441406 3.515625 -23.140625 C 5.296875 -24.835938 7.566406 -25.6875 10.328125 -25.6875 Z M 10.328125 -25.6875 "/></g></g></g><g fill="#545454" fill-opacity="1"><g transform="translate(97.779749, 308.947959)"><g><path d="M 106.375 -130.53125 L 129.453125 -50.578125 C 131.191406 -44.441406 132.738281 -38.5625 134.09375 -32.9375 C 135.445312 -27.320312 136.546875 -22.382812 137.390625 -18.125 C 138.285156 -22.570312 139.316406 -27.242188 140.484375 -32.140625 C 141.660156 -37.035156 143.09375 -42.457031 144.78125 -48.40625 L 161 -105.390625 C 161.1875 -106.109375 161.398438 -106.914062 161.640625 -107.8125 C 161.878906 -108.71875 162.085938 -109.617188 162.265625 -110.515625 C 162.441406 -111.421875 162.601562 -112.265625 162.75 -113.046875 C 162.90625 -113.828125 162.984375 -114.488281 162.984375 -115.03125 C 162.984375 -118.21875 161.976562 -120.515625 159.96875 -121.921875 C 157.957031 -123.335938 154.90625 -124.046875 150.8125 -124.046875 L 146.578125 -124.046875 L 146.578125 -131.796875 L 191.65625 -131.796875 L 191.65625 -124.046875 L 188.140625 -124.046875 C 186.335938 -124.046875 184.757812 -123.863281 183.40625 -123.5 C 182.050781 -123.144531 180.832031 -122.453125 179.75 -121.421875 C 178.675781 -120.398438 177.6875 -118.957031 176.78125 -117.09375 C 175.882812 -115.238281 174.984375 -112.78125 174.078125 -109.71875 L 142.890625 0 L 126.296875 0 L 96.1875 -103.40625 L 67.96875 0 L 50.9375 0 L 17.125 -114.3125 C 16.53125 -116.226562 15.851562 -117.816406 15.09375 -119.078125 C 14.34375 -120.347656 13.457031 -121.34375 12.4375 -122.0625 C 11.414062 -122.78125 10.210938 -123.289062 8.828125 -123.59375 C 7.453125 -123.894531 5.863281 -124.046875 4.0625 -124.046875 L 1.625 -124.046875 L 1.625 -131.796875 L 52.46875 -131.796875 L 52.46875 -124.046875 L 48.234375 -124.046875 C 44.503906 -124.046875 41.722656 -123.335938 39.890625 -121.921875 C 38.054688 -120.515625 37.140625 -118.273438 37.140625 -115.203125 C 37.140625 -114.179688 37.289062 -113.128906 37.59375 -112.046875 C 37.894531 -110.972656 38.222656 -109.742188 38.578125 -108.359375 L 55.53125 -49.3125 C 57.09375 -43.71875 58.5625 -38.234375 59.9375 -32.859375 C 61.320312 -27.484375 62.53125 -22.570312 63.5625 -18.125 C 64.457031 -22.925781 65.519531 -28.164062 66.75 -33.84375 C 67.988281 -39.53125 69.414062 -45.347656 71.03125 -51.296875 L 93.03125 -130.53125 Z M 106.375 -130.53125 "/></g></g></g><g fill="#545454" fill-opacity="1"><g transform="translate(285.157355, 308.947959)"><g><path d="M 126.484375 -66.078125 C 126.484375 -55.921875 125.21875 -46.664062 122.6875 -38.3125 C 120.164062 -29.957031 116.441406 -22.804688 111.515625 -16.859375 C 106.585938 -10.910156 100.515625 -6.3125 93.296875 -3.0625 C 86.085938 0.175781 77.828125 1.796875 68.515625 1.796875 C 58.710938 1.796875 50.175781 0.175781 42.90625 -3.0625 C 35.632812 -6.3125 29.59375 -10.910156 24.78125 -16.859375 C 19.976562 -22.804688 16.375 -29.972656 13.96875 -38.359375 C 11.5625 -46.742188 10.359375 -56.046875 10.359375 -66.265625 C 10.359375 -76.472656 11.5625 -85.738281 13.96875 -94.0625 C 16.375 -102.394531 19.976562 -109.503906 24.78125 -115.390625 C 29.59375 -121.273438 35.664062 -125.828125 43 -129.046875 C 50.332031 -132.265625 58.894531 -133.875 68.6875 -133.875 C 78.007812 -133.875 86.242188 -132.265625 93.390625 -129.046875 C 100.546875 -125.828125 106.585938 -121.257812 111.515625 -115.34375 C 116.441406 -109.425781 120.164062 -102.304688 122.6875 -93.984375 C 125.21875 -85.660156 126.484375 -76.359375 126.484375 -66.078125 Z M 30.828125 -66.078125 C 30.828125 -56.941406 31.503906 -48.78125 32.859375 -41.59375 C 34.210938 -34.414062 36.390625 -28.347656 39.390625 -23.390625 C 42.398438 -18.429688 46.289062 -14.644531 51.0625 -12.03125 C 55.84375 -9.414062 61.660156 -8.109375 68.515625 -8.109375 C 75.367188 -8.109375 81.179688 -9.414062 85.953125 -12.03125 C 90.734375 -14.644531 94.609375 -18.429688 97.578125 -23.390625 C 100.554688 -28.347656 102.707031 -34.414062 104.03125 -41.59375 C 105.351562 -48.78125 106.015625 -56.941406 106.015625 -66.078125 C 106.015625 -75.210938 105.351562 -83.367188 104.03125 -90.546875 C 102.707031 -97.734375 100.554688 -103.789062 97.578125 -108.71875 C 94.609375 -113.644531 90.765625 -117.398438 86.046875 -119.984375 C 81.328125 -122.566406 75.539062 -123.859375 68.6875 -123.859375 C 61.84375 -123.859375 56.015625 -122.566406 51.203125 -119.984375 C 46.398438 -117.398438 42.476562 -113.644531 39.4375 -108.71875 C 36.40625 -103.789062 34.210938 -97.734375 32.859375 -90.546875 C 31.503906 -83.367188 30.828125 -75.210938 30.828125 -66.078125 Z M 30.828125 -66.078125 "/></g></g></g><g fill="#545454" fill-opacity="1"><g transform="translate(416.280086, 308.947959)"><g><path d="M 102.3125 -22.53125 C 105.4375 -17.601562 108.472656 -13.90625 111.421875 -11.4375 C 114.367188 -8.976562 117.796875 -7.75 121.703125 -7.75 L 122.234375 -7.75 L 122.234375 0 L 119.625 0 C 113.851562 0 109.117188 -0.207031 105.421875 -0.625 C 101.734375 -1.050781 98.59375 -1.863281 96 -3.0625 C 93.414062 -4.269531 91.207031 -5.953125 89.375 -8.109375 C 87.550781 -10.273438 85.585938 -13.101562 83.484375 -16.59375 L 58.5 -58.140625 L 43.1875 -58.140625 L 43.1875 -20.109375 C 43.1875 -17.398438 43.585938 -15.21875 44.390625 -13.5625 C 45.203125 -11.914062 46.300781 -10.671875 47.6875 -9.828125 C 49.070312 -8.984375 50.679688 -8.425781 52.515625 -8.15625 C 54.347656 -7.882812 56.285156 -7.75 58.328125 -7.75 L 60.765625 -7.75 L 60.765625 0 L 7.03125 0 L 7.03125 -7.75 L 9.375 -7.75 C 11.414062 -7.75 13.351562 -7.882812 15.1875 -8.15625 C 17.019531 -8.425781 18.628906 -8.984375 20.015625 -9.828125 C 21.398438 -10.671875 22.492188 -11.914062 23.296875 -13.5625 C 24.109375 -15.21875 24.515625 -17.398438 24.515625 -20.109375 L 24.515625 -111.515625 C 24.515625 -114.222656 24.109375 -116.398438 23.296875 -118.046875 C 22.492188 -119.703125 21.398438 -120.976562 20.015625 -121.875 C 18.628906 -122.78125 17.019531 -123.367188 15.1875 -123.640625 C 13.351562 -123.910156 11.414062 -124.046875 9.375 -124.046875 L 7.03125 -124.046875 L 7.03125 -131.796875 L 56.703125 -131.796875 C 72.691406 -131.796875 84.59375 -128.832031 92.40625 -122.90625 C 100.21875 -116.988281 104.125 -108.082031 104.125 -96.1875 C 104.125 -91.257812 103.328125 -86.945312 101.734375 -83.25 C 100.140625 -79.550781 98.050781 -76.347656 95.46875 -73.640625 C 92.882812 -70.941406 89.96875 -68.691406 86.71875 -66.890625 C 83.476562 -65.085938 80.234375 -63.644531 76.984375 -62.5625 Z M 43.1875 -66.796875 L 56.15625 -66.796875 C 61.570312 -66.796875 66.082031 -67.394531 69.6875 -68.59375 C 73.289062 -69.800781 76.171875 -71.609375 78.328125 -74.015625 C 80.492188 -76.421875 82.039062 -79.425781 82.96875 -83.03125 C 83.90625 -86.632812 84.375 -90.835938 84.375 -95.640625 C 84.375 -100.578125 83.863281 -104.769531 82.84375 -108.21875 C 81.820312 -111.675781 80.171875 -114.5 77.890625 -116.6875 C 75.609375 -118.882812 72.648438 -120.476562 69.015625 -121.46875 C 65.378906 -122.46875 60.945312 -122.96875 55.71875 -122.96875 L 43.1875 -122.96875 Z M 43.1875 -66.796875 "/></g></g></g><g fill="#545454" fill-opacity="1"><g transform="translate(531.445885, 308.947959)"><g><path d="M 81.40625 -102.5 C 83.382812 -104.78125 85.035156 -106.804688 86.359375 -108.578125 C 87.679688 -110.359375 88.71875 -111.96875 89.46875 -113.40625 C 90.21875 -114.851562 90.757812 -116.113281 91.09375 -117.1875 C 91.425781 -118.269531 91.59375 -119.265625 91.59375 -120.171875 C 91.59375 -121.734375 90.835938 -122.796875 89.328125 -123.359375 C 87.828125 -123.929688 85.546875 -124.21875 82.484375 -124.21875 L 82.484375 -131.796875 L 123.328125 -131.796875 L 123.328125 -124.21875 C 121.222656 -124.21875 119.191406 -123.8125 117.234375 -123 C 115.285156 -122.195312 113.332031 -121.054688 111.375 -119.578125 C 109.425781 -118.109375 107.414062 -116.304688 105.34375 -114.171875 C 103.269531 -112.035156 101.03125 -109.617188 98.625 -106.921875 L 71.84375 -76.8125 L 110.796875 -22.53125 C 114.335938 -17.664062 117.742188 -13.984375 121.015625 -11.484375 C 124.296875 -8.992188 127.648438 -7.75 131.078125 -7.75 L 131.4375 -7.75 L 131.4375 0 L 129.453125 0 C 123.265625 0 118.1875 -0.238281 114.21875 -0.71875 C 110.25 -1.195312 106.910156 -2.066406 104.203125 -3.328125 C 101.503906 -4.597656 99.144531 -6.296875 97.125 -8.421875 C 95.113281 -10.554688 92.96875 -13.28125 90.6875 -16.59375 L 58.875 -62.203125 L 43.1875 -49.484375 L 43.1875 -21 C 43.1875 -18.113281 43.585938 -15.800781 44.390625 -14.0625 C 45.203125 -12.320312 46.285156 -10.984375 47.640625 -10.046875 C 48.992188 -9.117188 50.601562 -8.503906 52.46875 -8.203125 C 54.332031 -7.898438 56.285156 -7.75 58.328125 -7.75 L 60.765625 -7.75 L 60.765625 0 L 7.03125 0 L 7.03125 -7.75 L 9.375 -7.75 C 11.414062 -7.75 13.351562 -7.882812 15.1875 -8.15625 C 17.019531 -8.425781 18.628906 -8.984375 20.015625 -9.828125 C 21.398438 -10.671875 22.492188 -11.914062 23.296875 -13.5625 C 24.109375 -15.21875 24.515625 -17.398438 24.515625 -20.109375 L 24.515625 -111.515625 C 24.515625 -114.222656 24.109375 -116.398438 23.296875 -118.046875 C 22.492188 -119.703125 21.398438 -120.976562 20.015625 -121.875 C 18.628906 -122.78125 17.019531 -123.367188 15.1875 -123.640625 C 13.351562 -123.910156 11.414062 -124.046875 9.375 -124.046875 L 7.03125 -124.046875 L 7.03125 -131.796875 L 60.765625 -131.796875 L 60.765625 -124.046875 L 58.328125 -124.046875 C 56.285156 -124.046875 54.332031 -123.894531 52.46875 -123.59375 C 50.601562 -123.289062 48.992188 -122.671875 47.640625 -121.734375 C 46.285156 -120.804688 45.203125 -119.472656 44.390625 -117.734375 C 43.585938 -115.992188 43.1875 -113.679688 43.1875 -110.796875 L 43.1875 -58.6875 Z M 81.40625 -102.5 "/></g></g></g><path stroke-linecap="butt" transform="matrix(0.74868, 0, 0, 0.74868, 55.824866, 276.784174)" fill="none" stroke-linejoin="miter" d="M 278.176398 108.228317 C 276.49114 106.569146 275.734599 104.555183 275.896342 102.196864 C 276.063303 99.838546 276.861583 97.313266 278.301619 94.626244 C 279.736437 91.939221 281.458218 89.205241 283.47218 86.434738 C 285.480925 83.669453 287.552281 80.998083 289.686246 78.436281 C 291.841082 75.869262 293.719389 73.620511 295.321167 71.695246 C 294.235923 71.856989 293.135026 72.060472 292.028912 72.310913 C 290.938451 72.556137 289.811467 72.67614 288.642742 72.67614 C 288.047945 72.67614 287.531411 72.493527 287.103574 72.123083 C 286.69139 71.731769 286.487907 71.251757 286.487907 70.67783 C 286.487907 69.999552 286.69139 69.45693 287.103574 69.044746 C 287.531411 68.61691 288.047945 68.397774 288.642742 68.397774 C 290.05669 68.397774 291.48629 68.512559 292.921108 68.736913 C 294.355926 68.945613 295.743786 69.128227 297.074253 69.28997 C 298.842993 67.015131 300.648254 64.552462 302.495256 61.90718 C 304.363128 59.25668 306.14752 56.720965 307.848431 54.300036 C 309.57543 51.858237 311.114598 49.797317 312.465936 48.117276 C 313.822491 46.348537 315.246873 45.325903 316.744302 45.03894 C 318.2626 44.731106 319.525239 44.955459 320.532221 45.712 C 321.539202 46.473757 322.040084 47.548566 322.040084 48.946862 C 322.040084 50.319069 321.200063 51.806062 319.514804 53.407841 C 317.834763 54.988749 315.372094 57.018364 312.126797 59.501903 C 308.907587 61.985443 305.448372 65.25161 301.754368 69.28997 C 303.090053 69.128227 304.378781 68.945613 305.630985 68.736913 C 306.90406 68.512559 308.218875 68.397774 309.57543 68.397774 C 310.149357 68.397774 310.639804 68.61691 311.051988 69.044746 C 311.479824 69.45693 311.69896 69.999552 311.69896 70.67783 C 311.69896 71.251757 311.479824 71.731769 311.051988 72.123083 C 310.639804 72.493527 310.149357 72.67614 309.57543 72.67614 C 307.973651 72.67614 306.351003 72.493527 304.707484 72.123083 C 303.069183 71.731769 301.446535 71.45524 299.844756 71.293497 L 297.966449 73.568336 C 292.837628 79.787619 288.971446 85.255579 286.362686 89.977434 C 283.759144 94.678419 283.378265 98.153287 285.225267 100.412473 C 286.827045 102.280345 289.748856 102.24904 293.995917 100.318557 C 298.248195 98.372423 303.47615 94.083622 309.695433 87.452155 L 310.587629 87.822598 C 307.796256 91.433122 304.82227 94.798422 301.660453 97.918498 C 298.524724 101.017705 295.456822 103.621247 292.456749 105.73956 C 289.482763 107.831785 286.73313 109.141383 284.207851 109.678787 C 281.703441 110.231844 279.694696 109.746615 278.176398 108.228317 Z M 311.954619 108.510063 C 309.51282 106.558711 308.344095 104.116911 308.448446 101.179448 C 308.531926 98.247202 309.53369 95.05408 311.464172 91.610518 C 313.394654 88.161737 315.914716 84.712957 319.034793 81.264177 C 322.133999 77.820614 325.327121 75.050111 328.608941 72.952668 C 331.89076 70.839573 334.958662 69.540411 337.812645 69.044746 C 340.666628 68.533429 342.972771 68.992571 344.736293 70.432606 C 347.261572 72.357871 348.101593 75.488383 347.261572 79.818924 C 346.421552 84.149465 344.277151 88.662619 340.828371 93.363604 C 341.423168 94.287105 342.602328 94.787987 344.371067 94.871467 C 346.134588 94.954947 348.299859 94.307975 350.861661 92.93055 C 353.42868 91.537472 356.094833 89.246981 358.865335 86.069512 L 359.606223 86.805182 C 356.507017 90.84876 353.616511 93.796658 350.924271 95.638443 C 348.237248 97.485444 345.753709 98.513296 343.478871 98.716779 C 341.219685 98.92548 339.158765 98.607211 337.290893 97.76719 C 334.353429 101.13249 331.243788 103.871688 327.961968 105.984783 C 324.701019 108.077009 321.653987 109.350083 318.820874 109.79879 C 316.008631 110.273584 313.723358 109.84053 311.954619 108.510063 Z M 319.034793 100.042029 C 320.965275 101.643807 323.375769 102.066426 326.271492 101.304669 C 329.161998 100.542911 332.130766 98.862869 335.167362 96.25411 C 334.734308 95.763663 334.285602 95.07495 333.810807 94.19319 C 333.362101 93.311429 333.21601 92.15314 333.382971 90.718322 C 333.565584 89.278286 334.285602 87.639985 335.532589 85.792983 C 336.889144 83.862501 338.130913 82.693777 339.257898 82.281593 C 340.390099 81.848539 341.391863 81.832886 342.273624 82.218983 C 343.160602 82.589427 343.812792 83.032916 344.245846 83.544233 C 345.085867 81.264177 345.414571 79.244997 345.231957 77.481475 C 345.064997 75.712736 344.522375 74.413574 343.598874 73.568336 C 342.268406 72.399611 340.541407 71.877859 338.428312 72.00308 C 336.336087 72.123083 334.149946 72.8431 331.86989 74.157915 C 329.615922 75.446643 327.523697 77.236252 325.593214 79.51109 C 323.396639 82.11985 321.560072 84.786002 320.083514 87.514765 C 318.627826 90.243527 317.761718 92.727067 317.495624 94.965383 C 317.250401 97.177611 317.761718 98.873305 319.034793 100.042029 Z M 330.48203 149.352804 C 328.718509 147.672763 328.008926 145.648366 328.3585 143.290047 C 328.687203 140.931728 329.803753 138.406449 331.713365 135.719426 C 333.602107 133.032404 336.012601 130.381904 338.944846 127.778362 C 341.470126 125.519176 344.412807 123.395646 347.778107 121.402553 C 351.122537 119.435548 354.581752 117.708549 358.155753 116.231991 C 361.745406 114.776304 365.089836 113.71193 368.189043 113.033652 C 369.869084 110.424892 371.533473 107.75874 373.176991 105.029977 C 374.815292 102.301215 376.479681 99.593322 378.159722 96.901082 C 375.290086 100.188119 372.310883 102.927317 369.232546 105.123893 C 366.17508 107.294381 363.284574 108.692676 360.555812 109.308343 C 357.827049 109.944881 355.494818 109.501391 353.569553 107.983093 C 351.206017 106.057829 350.261646 103.605595 350.73644 100.626391 C 351.185147 97.631535 352.656487 94.427978 355.134809 91.026155 C 357.618348 87.619115 360.587117 84.28512 364.03068 81.018953 C 367.47946 77.820614 370.92824 75.274464 374.377021 73.385722 C 377.820583 71.49698 380.930225 70.328256 383.700728 69.879549 C 386.47123 69.404755 388.532151 69.712589 389.888706 70.80305 C 390.979167 71.643071 391.521789 72.78049 391.521789 74.215308 C 391.767013 73.787471 392.012236 73.385722 392.257459 73.015278 C 392.523553 72.629182 392.820952 72.269173 393.149655 71.940469 C 394.50621 70.176948 395.972333 69.35258 397.553242 69.4778 C 399.15502 69.597803 400.313309 70.338691 401.033327 71.695246 C 401.748127 73.025714 401.351596 74.752712 399.833298 76.865808 C 398.909797 78.196275 397.438456 79.829359 395.429711 81.759841 C 393.420966 83.685106 391.292218 85.829506 389.05912 88.193042 C 386.820804 90.551361 384.911192 93.0349 383.330284 95.638443 C 381.483282 98.659386 379.67802 101.508152 377.914499 104.200392 C 376.150977 106.887414 374.465718 109.449216 372.869157 111.891015 C 378.326683 110.294454 382.798097 108.322232 386.288617 105.984783 C 389.77392 103.621247 392.883562 100.934225 395.612324 97.918498 C 398.341087 94.881902 401.309856 91.558342 404.508195 87.947819 L 405.525611 88.563486 C 402.572495 91.928786 399.389808 95.549745 395.982768 99.426362 C 392.575728 103.287326 388.709546 106.856109 384.379005 110.137929 C 380.069334 113.419749 375.013558 115.81459 369.206459 117.312018 C 363.070656 126.239194 357.795744 133.131537 353.381723 137.994265 C 348.972919 142.877863 345.278915 146.284903 342.299711 148.215385 C 339.304855 150.145867 336.883926 151.069368 335.036924 150.985888 C 333.189923 150.902408 331.671624 150.359786 330.48203 149.352804 Z M 337.19176 142.397851 C 339.612689 144.161373 343.160602 142.982213 347.840717 138.860373 C 352.499962 134.754185 357.894877 128.247939 364.03068 119.341633 L 364.646347 118.324217 C 359.538395 119.680772 355.014806 121.30342 351.075579 123.192162 C 347.115482 125.075687 343.953665 127.027039 341.595346 129.041002 C 340.155311 130.308859 338.814408 131.790634 337.562204 133.470676 C 336.289129 135.155934 335.527371 136.7838 335.282148 138.364709 C 335.036924 139.966487 335.673462 141.312607 337.19176 142.397851 Z M 362.522817 100.934225 C 363.613278 102.186429 365.016791 102.629918 366.74379 102.259475 C 368.465571 101.868161 370.333443 100.94466 372.342188 99.488972 C 374.377021 98.012414 376.37533 96.248892 378.347553 94.19319 C 380.314558 92.121834 382.140689 90.040044 383.825948 87.947819 C 384.749449 86.34604 385.61034 84.775567 386.40862 83.236399 C 387.212118 81.676361 388.031269 80.095452 388.871289 78.493674 C 389.12173 77.49191 389.220863 76.568409 389.179123 75.723171 C 389.137383 74.88315 388.860854 74.288353 388.349537 73.938779 C 387.013852 72.853535 385.271201 72.524832 383.116366 72.952668 C 380.9824 73.364852 378.697127 74.350963 376.255328 75.911002 C 373.808311 77.47104 371.502167 79.349347 369.326462 81.540705 C 367.150756 83.716411 365.303754 86.027772 363.785456 88.469571 C 362.267158 90.8905 361.333222 93.196643 360.983648 95.393219 C 360.654945 97.568925 361.171479 99.415927 362.522817 100.934225 Z M 405.395173 108.108314 C 402.52032 106.177832 400.918542 103.725598 400.589838 100.751611 C 400.261134 97.756755 400.808974 94.584504 402.222921 91.240074 C 403.657739 87.874774 405.682137 84.671217 408.285679 81.63462 C 410.972701 78.457151 413.98321 75.775346 417.30677 73.599641 C 420.63033 71.408283 423.839104 70.030857 426.938311 69.4778 C 430.058387 68.924743 432.541927 69.446495 434.388928 71.048274 C 435.641133 72.133518 436.162885 73.735296 435.959402 75.848392 C 435.755919 77.940617 434.91068 80.189368 433.434122 82.589427 C 431.957564 84.989485 429.954037 87.269541 427.433975 89.424377 C 424.929566 91.558342 421.91384 93.170556 418.381579 94.2558 C 416.779801 94.746247 415.501508 94.688854 414.536267 94.073187 C 413.571026 93.436649 412.976229 92.570541 412.751876 91.485297 C 412.543175 90.379183 412.731006 89.382637 413.304933 88.500876 C 413.89973 87.619115 414.953669 87.175626 416.471967 87.175626 C 420.515544 87.175626 423.771277 86.570394 426.233946 85.359929 C 428.717485 84.149465 430.564487 82.641602 431.774951 80.83634 C 433.006286 79.010208 433.621953 77.262339 433.621953 75.603168 C 433.621953 73.917909 433.157594 72.65527 432.234093 71.815249 C 431.148849 70.709135 429.719249 70.453476 427.955727 71.048274 C 426.192205 71.643071 424.293028 72.75962 422.263413 74.403139 C 420.249451 76.04144 418.318969 77.951052 416.471967 80.126757 C 414.708445 82.14072 413.211017 84.342513 411.979683 86.742572 C 410.769218 89.147848 410.080506 91.485297 409.918763 93.765353 C 409.751802 96.019321 410.299641 98.075024 411.551846 99.922026 C 413.315368 102.280345 415.684121 103.334284 418.658108 103.08906 C 421.658181 102.822967 425.044351 101.476847 428.816618 99.055918 C 432.614972 96.614119 436.575069 93.332299 440.696909 89.205241 L 441.437797 89.977434 C 439.345572 92.747937 436.778552 95.56018 433.741956 98.408945 C 430.72623 101.262928 427.512238 103.725598 424.110415 105.796953 C 420.703375 107.852655 417.358945 109.162253 414.071908 109.73618 C 410.810958 110.336195 407.915235 109.788355 405.395173 108.108314 Z M 432.494969 108.228317 C 430.814928 106.569146 430.05317 104.555183 430.22013 102.196864 C 430.381874 99.838546 431.180154 97.313266 432.620189 94.626244 C 434.055007 91.939221 435.776789 89.205241 437.790751 86.434738 C 439.799496 83.669453 441.876069 80.998083 444.010034 78.436281 C 446.16487 75.869262 448.037959 73.620511 449.639738 71.695246 C 448.554494 71.856989 447.453597 72.060472 446.347483 72.310913 C 445.262239 72.556137 444.130037 72.67614 442.961313 72.67614 C 442.366516 72.67614 441.855199 72.493527 441.422145 72.123083 C 441.009961 71.731769 440.806477 71.251757 440.806477 70.67783 C 440.806477 69.999552 441.009961 69.45693 441.422145 69.044746 C 441.855199 68.61691 442.366516 68.397774 442.961313 68.397774 C 444.375261 68.397774 445.804861 68.512559 447.239679 68.736913 C 448.674496 68.945613 450.062357 69.128227 451.398042 69.28997 C 453.161563 67.015131 454.966825 64.552462 456.813827 61.90718 C 458.681699 59.25668 460.46609 56.720965 462.167002 54.300036 C 463.894001 51.858237 465.433169 49.797317 466.784506 48.117276 C 468.141061 46.348537 469.565444 45.325903 471.062872 45.03894 C 472.58117 44.731106 473.84381 44.955459 474.850791 45.712 C 475.857772 46.473757 476.358654 47.548566 476.358654 48.946862 C 476.358654 50.319069 475.518634 51.806062 473.833375 53.407841 C 472.153334 54.988749 469.690665 57.018364 466.445367 59.501903 C 463.226158 61.985443 459.766943 65.25161 456.072939 69.28997 C 457.408624 69.128227 458.702569 68.945613 459.954773 68.736913 C 461.222631 68.512559 462.537445 68.397774 463.894001 68.397774 C 464.467928 68.397774 464.958374 68.61691 465.370558 69.044746 C 465.803613 69.45693 466.017531 69.999552 466.017531 70.67783 C 466.017531 71.251757 465.803613 71.731769 465.370558 72.123083 C 464.958374 72.493527 464.467928 72.67614 463.894001 72.67614 C 462.292222 72.67614 460.669574 72.493527 459.031272 72.123083 C 457.387754 71.731769 455.765105 71.45524 454.163327 71.293497 L 452.290237 73.568336 C 447.156198 79.787619 443.290016 85.255579 440.681257 89.977434 C 438.077715 94.678419 437.696836 98.153287 439.543838 100.412473 C 441.145616 102.280345 444.067427 102.24904 448.319705 100.318557 C 452.566766 98.372423 457.799938 94.083622 464.014003 87.452155 L 464.906199 87.822598 C 462.120044 91.433122 459.14084 94.798422 455.984241 97.918498 C 452.843294 101.017705 449.775393 103.621247 446.780537 105.73956 C 443.801333 107.831785 441.051701 109.141383 438.526421 109.678787 C 436.02723 110.231844 434.013267 109.746615 432.494969 108.228317 Z M 481.664872 108.108314 C 480.146573 106.423055 479.530906 104.555183 479.81787 102.504698 C 480.125703 100.454213 480.970941 98.341118 482.343149 96.165412 C 483.741444 93.968836 485.379745 91.824436 487.268487 89.732211 C 489.157229 87.619115 490.941621 85.636458 492.62688 83.789456 C 494.306921 81.942454 495.590431 80.330241 496.472191 78.958033 C 497.353952 77.559738 497.458303 76.526669 496.780025 75.848392 C 495.940005 74.924891 494.573014 75.159679 492.684272 76.557974 C 490.800748 77.930182 488.468517 80.043277 485.698014 82.89726 C 483.256215 85.42254 480.715283 88.224347 478.064783 91.302684 C 475.419501 94.36015 472.956832 97.292396 470.676776 100.104639 C 468.422807 102.916882 466.575805 105.254331 465.13577 107.122203 C 463.883565 108.619631 462.459183 109.391824 460.857404 109.428346 C 459.255626 109.470086 458.034726 108.948334 457.194706 107.86309 C 456.354685 106.772629 456.396425 105.348246 457.319926 103.584725 C 457.914723 102.494263 458.36343 101.695983 458.671264 101.179448 C 458.958227 100.668131 459.443456 99.948114 460.121734 99.024613 C 460.779141 98.101112 461.906126 96.593249 463.507904 94.501023 C 465.104465 92.408798 467.436696 89.320027 470.494163 85.234709 C 473.572499 81.154609 477.673469 75.665778 482.807508 68.768218 C 483.809272 67.35427 485.197132 65.465528 486.960654 63.107209 C 488.724175 60.743673 490.633787 58.140131 492.684272 55.286148 C 494.760845 52.432165 496.821765 49.646009 498.87225 46.912029 C 500.927953 44.183266 502.790607 41.731032 504.475866 39.555327 C 506.161125 37.363969 507.502027 35.710015 508.509009 34.603901 C 510.18905 32.835162 511.853439 32.068186 513.496957 32.29254 C 515.135258 32.496023 516.24659 33.320391 516.820517 34.755209 C 517.415314 36.169157 516.96139 37.885721 515.463962 39.894465 C 514.785685 40.739704 512.907378 42.5554 509.834259 45.346773 C 506.771575 48.117276 503.098441 51.602579 498.80964 55.8079 C 494.520839 59.997568 490.195516 64.735075 485.823234 70.030857 C 485.228437 70.792615 484.169281 72.164823 482.650983 74.157915 C 481.153555 76.12492 479.483948 78.331931 477.636947 80.77373 C 475.789945 83.194659 474.062946 85.626023 472.461167 88.067822 C 470.864606 90.509621 469.643707 92.591411 468.798469 94.31841 C 467.958448 96.040191 467.838445 97.109783 468.433242 97.516749 C 468.840209 97.866323 469.654142 97.438487 470.864606 96.228022 C 472.095941 94.996688 473.530759 93.436649 475.174277 91.547907 C 476.812578 89.659165 478.456097 87.728683 480.099616 85.761678 C 481.737917 83.768586 483.104907 82.187678 484.190151 81.018953 C 487.127614 77.898877 489.720721 75.253594 491.979907 73.077889 C 494.254746 70.881313 496.341754 69.4778 498.225278 68.862133 C 500.13489 68.225596 501.929717 68.653432 503.614976 70.156078 C 504.7837 71.262192 505.175014 72.67614 504.7837 74.403139 C 504.413256 76.12492 503.573235 78.034532 502.25842 80.126757 C 500.964476 82.218983 499.477483 84.363383 497.797441 86.559959 C 496.112183 88.735664 494.552144 90.838325 493.117327 92.873157 C 491.703379 94.881902 490.675527 96.645424 490.03899 98.163722 C 489.423323 99.66115 489.485933 100.793352 490.221603 101.549892 C 491.332935 102.556873 493.159067 102.708181 495.705216 102.014251 C 498.267018 101.294234 501.256657 99.713325 504.658479 97.271526 C 508.06552 94.829727 511.57691 91.678345 515.187434 87.822598 L 516.20485 88.313045 C 513.189124 91.761826 509.996002 95.043645 506.630702 98.163722 C 503.265402 101.262928 499.962712 103.871688 496.717415 105.984783 C 493.498205 108.077009 490.560742 109.370954 487.91546 109.8614 C 485.270177 110.372717 483.18317 109.788355 481.664872 108.108314 Z M 516.090064 108.108314 C 513.215211 106.177832 511.61865 103.725598 511.289947 100.751611 C 510.961243 97.756755 511.503865 94.584504 512.917813 91.240074 C 514.357848 87.874774 516.377028 84.671217 518.985788 81.63462 C 521.67281 78.457151 524.678101 75.775346 528.001661 73.599641 C 531.325221 71.408283 534.539213 70.030857 537.638419 69.4778 C 540.753278 68.924743 543.236818 69.446495 545.08382 71.048274 C 546.336024 72.133518 546.862994 73.735296 546.654293 75.848392 C 546.45081 77.940617 545.610789 80.189368 544.129013 82.589427 C 542.652456 84.989485 540.654146 87.269541 538.128866 89.424377 C 535.624457 91.558342 532.608731 93.170556 529.081688 94.2558 C 527.479909 94.746247 526.196399 94.688854 525.231158 94.073187 C 524.265917 93.436649 523.67112 92.570541 523.446767 91.485297 C 523.243283 90.379183 523.425897 89.382637 523.999824 88.500876 C 524.594621 87.619115 525.653777 87.175626 527.172076 87.175626 C 531.215653 87.175626 534.466168 86.570394 536.928837 85.359929 C 539.412376 84.149465 541.259378 82.641602 542.469842 80.83634 C 543.701177 79.010208 544.316844 77.262339 544.316844 75.603168 C 544.316844 73.917909 543.852485 72.65527 542.928984 71.815249 C 541.84374 70.709135 540.419357 70.453476 538.650618 71.048274 C 536.887097 71.643071 534.98792 72.75962 532.958304 74.403139 C 530.944342 76.04144 529.019077 77.951052 527.172076 80.126757 C 525.408554 82.14072 523.905908 84.342513 522.674574 86.742572 C 521.464109 89.147848 520.780614 91.485297 520.613654 93.765353 C 520.451911 96.019321 520.994533 98.075024 522.246737 99.922026 C 524.010259 102.280345 526.379013 103.334284 529.358216 103.08906 C 532.353072 102.822967 535.739242 101.476847 539.516726 99.055918 C 543.309863 96.614119 547.26996 93.332299 551.397018 89.205241 L 552.132688 89.977434 C 550.040463 92.747937 547.478661 95.56018 544.436847 98.408945 C 541.421121 101.262928 538.212347 103.725598 534.805306 105.796953 C 531.398266 107.852655 528.053836 109.162253 524.772017 109.73618 C 521.505849 110.336195 518.615344 109.788355 516.090064 108.108314 Z M 555.534511 107.122203 C 553.525766 105.092588 552.899664 102.729051 553.656204 100.042029 C 554.417962 97.355006 556.849326 94.203625 560.955513 90.593101 C 563.559056 88.313045 566.126075 86.048642 568.646137 83.789456 C 571.171416 81.514618 573.112334 79.203256 574.463671 76.865808 C 575.308909 75.425772 575.308909 74.16835 574.463671 73.077889 C 573.623651 71.971775 572.548842 71.210017 571.234027 70.80305 C 569.940082 70.369996 568.917448 70.531739 568.15569 71.293497 C 566.986966 72.399611 565.343447 74.02226 563.230352 76.156225 C 561.138127 78.290191 558.868506 80.638074 556.426707 83.205094 C 553.984908 85.772113 551.637024 88.313045 549.377838 90.838325 L 548.610863 89.977434 L 565.265184 70.923053 C 566.021725 69.999552 566.287818 68.956048 566.063465 67.782107 C 565.859982 66.592512 565.541713 65.288132 565.108659 63.874185 C 564.696475 62.439367 564.492992 60.921069 564.492992 59.31929 C 564.492992 57.983605 564.915611 56.919231 565.755631 56.115733 C 566.595652 55.317453 567.602633 54.858311 568.771357 54.733091 C 569.960952 54.60787 571.040978 54.884399 572.00622 55.562676 C 572.966243 56.220084 573.571475 57.310545 573.821916 58.828843 C 573.983659 60.07583 573.769741 61.145422 573.174944 62.027183 C 572.601017 62.908943 572.230573 64.275934 572.063612 66.122935 C 572.063612 66.879476 572.444491 67.599493 573.206249 68.277771 C 573.962789 68.956048 574.84455 69.670849 575.851531 70.432606 C 576.858513 71.168277 577.740273 71.992645 578.496814 72.895276 C 579.258571 73.777036 579.59771 74.84141 579.51423 76.093615 C 579.40988 78.18584 578.684644 80.251978 577.328089 82.281593 C 575.997622 84.290338 574.427149 86.19995 572.621887 88.005212 C 570.811408 89.810473 569.089626 91.474862 567.446108 92.99316 C 565.807806 94.511458 564.607777 95.899318 563.846019 97.151523 C 563.110349 98.39851 563.120784 99.488972 563.877324 100.412473 C 565.640846 102.442088 568.635702 102.35339 572.86711 100.135944 C 577.114171 97.897628 582.686482 93.07664 589.578825 85.667763 L 590.471021 86.069512 C 586.18222 91.772261 581.773416 96.624554 577.234174 100.626391 C 572.70015 104.607358 568.515699 107.257858 564.675605 108.567456 C 560.861598 109.8614 557.814567 109.381389 555.534511 107.122203 Z M 555.534511 107.122203 " stroke="#f6f7ec" stroke-width="6.30425" stroke-opacity="1" stroke-miterlimit="4"/><g fill="#422e6d" fill-opacity="1"><g transform="translate(268.145704, 358.390243)"><g><path d="M -4.0625 -0.5625 C -5.320312 -1.820312 -5.882812 -3.332031 -5.75 -5.09375 C -5.625 -6.851562 -5.023438 -8.738281 -3.953125 -10.75 C -2.890625 -12.769531 -1.601562 -14.816406 -0.09375 -16.890625 C 1.414062 -18.972656 2.972656 -20.972656 4.578125 -22.890625 C 6.179688 -24.804688 7.582031 -26.488281 8.78125 -27.9375 C 7.957031 -27.8125 7.132812 -27.65625 6.3125 -27.46875 C 5.5 -27.28125 4.65625 -27.1875 3.78125 -27.1875 C 3.332031 -27.1875 2.953125 -27.328125 2.640625 -27.609375 C 2.328125 -27.890625 2.171875 -28.25 2.171875 -28.6875 C 2.171875 -29.195312 2.328125 -29.609375 2.640625 -29.921875 C 2.953125 -30.234375 3.332031 -30.390625 3.78125 -30.390625 C 4.84375 -30.390625 5.910156 -30.3125 6.984375 -30.15625 C 8.054688 -30 9.09375 -29.859375 10.09375 -29.734375 C 11.414062 -31.429688 12.769531 -33.269531 14.15625 -35.25 C 15.539062 -37.238281 16.878906 -39.144531 18.171875 -40.96875 C 19.460938 -42.789062 20.609375 -44.332031 21.609375 -45.59375 C 22.617188 -46.914062 23.691406 -47.6875 24.828125 -47.90625 C 25.960938 -48.125 26.90625 -47.945312 27.65625 -47.375 C 28.414062 -46.8125 28.796875 -46.007812 28.796875 -44.96875 C 28.796875 -43.9375 28.164062 -42.820312 26.90625 -41.625 C 25.644531 -40.425781 23.800781 -38.898438 21.375 -37.046875 C 18.957031 -35.191406 16.363281 -32.753906 13.59375 -29.734375 C 14.601562 -29.859375 15.578125 -30 16.515625 -30.15625 C 17.460938 -30.3125 18.4375 -30.390625 19.4375 -30.390625 C 19.882812 -30.390625 20.265625 -30.234375 20.578125 -29.921875 C 20.890625 -29.609375 21.046875 -29.195312 21.046875 -28.6875 C 21.046875 -28.25 20.890625 -27.890625 20.578125 -27.609375 C 20.265625 -27.328125 19.882812 -27.1875 19.4375 -27.1875 C 18.25 -27.1875 17.039062 -27.328125 15.8125 -27.609375 C 14.582031 -27.890625 13.367188 -28.09375 12.171875 -28.21875 L 10.765625 -26.53125 C 6.921875 -21.863281 4.023438 -17.769531 2.078125 -14.25 C 0.128906 -10.726562 -0.148438 -8.117188 1.234375 -6.421875 C 2.421875 -5.035156 4.601562 -5.066406 7.78125 -6.515625 C 10.957031 -7.960938 14.875 -11.171875 19.53125 -16.140625 L 20.203125 -15.859375 C 18.117188 -13.148438 15.894531 -10.628906 13.53125 -8.296875 C 11.175781 -5.972656 8.878906 -4.023438 6.640625 -2.453125 C 4.410156 -0.878906 2.351562 0.109375 0.46875 0.515625 C -1.414062 0.921875 -2.925781 0.5625 -4.0625 -0.5625 Z M -4.0625 -0.5625 "/></g></g></g><g fill="#422e6d" fill-opacity="1"><g transform="translate(288.251227, 358.390243)"><g><path d="M 1.125 -0.375 C -0.695312 -1.820312 -1.578125 -3.644531 -1.515625 -5.84375 C -1.453125 -8.050781 -0.695312 -10.441406 0.75 -13.015625 C 2.195312 -15.597656 4.085938 -18.179688 6.421875 -20.765625 C 8.742188 -23.347656 11.132812 -25.425781 13.59375 -27 C 16.050781 -28.570312 18.347656 -29.546875 20.484375 -29.921875 C 22.617188 -30.296875 24.347656 -29.953125 25.671875 -28.890625 C 27.554688 -27.441406 28.1875 -25.09375 27.5625 -21.84375 C 26.9375 -18.601562 25.332031 -15.222656 22.75 -11.703125 C 23.1875 -11.015625 24.066406 -10.640625 25.390625 -10.578125 C 26.710938 -10.515625 28.332031 -11 30.25 -12.03125 C 32.164062 -13.070312 34.164062 -14.785156 36.25 -17.171875 L 36.8125 -16.609375 C 34.476562 -13.585938 32.304688 -11.382812 30.296875 -10 C 28.285156 -8.613281 26.429688 -7.84375 24.734375 -7.6875 C 23.035156 -7.53125 21.492188 -7.769531 20.109375 -8.40625 C 17.898438 -5.882812 15.566406 -3.835938 13.109375 -2.265625 C 10.660156 -0.691406 8.378906 0.265625 6.265625 0.609375 C 4.160156 0.953125 2.445312 0.625 1.125 -0.375 Z M 6.421875 -6.703125 C 7.867188 -5.503906 9.675781 -5.1875 11.84375 -5.75 C 14.019531 -6.320312 16.238281 -7.582031 18.5 -9.53125 C 18.1875 -9.90625 17.851562 -10.421875 17.5 -11.078125 C 17.15625 -11.742188 17.046875 -12.613281 17.171875 -13.6875 C 17.304688 -14.757812 17.84375 -15.988281 18.78125 -17.375 C 19.789062 -18.8125 20.71875 -19.6875 21.5625 -20 C 22.414062 -20.320312 23.171875 -20.34375 23.828125 -20.0625 C 24.492188 -19.78125 24.984375 -19.445312 25.296875 -19.0625 C 25.921875 -20.757812 26.171875 -22.269531 26.046875 -23.59375 C 25.921875 -24.914062 25.515625 -25.894531 24.828125 -26.53125 C 23.816406 -27.40625 22.523438 -27.796875 20.953125 -27.703125 C 19.378906 -27.609375 17.742188 -27.070312 16.046875 -26.09375 C 14.347656 -25.125 12.773438 -23.789062 11.328125 -22.09375 C 9.691406 -20.132812 8.320312 -18.132812 7.21875 -16.09375 C 6.113281 -14.050781 5.46875 -12.191406 5.28125 -10.515625 C 5.09375 -8.847656 5.472656 -7.578125 6.421875 -6.703125 Z M 6.421875 -6.703125 "/></g></g></g><g fill="#422e6d" fill-opacity="1"><g transform="translate(320.533326, 358.390243)"><g><path d="M -17.28125 30.203125 C -18.59375 28.941406 -19.125 27.429688 -18.875 25.671875 C -18.625 23.910156 -17.789062 22.019531 -16.375 20 C -14.957031 17.988281 -13.148438 16.007812 -10.953125 14.0625 C -9.066406 12.363281 -6.863281 10.773438 -4.34375 9.296875 C -1.820312 7.816406 0.769531 6.523438 3.4375 5.421875 C 6.113281 4.328125 8.617188 3.523438 10.953125 3.015625 C 12.210938 1.066406 13.453125 -0.925781 14.671875 -2.96875 C 15.898438 -5.019531 17.144531 -7.050781 18.40625 -9.0625 C 16.269531 -6.601562 14.050781 -4.554688 11.75 -2.921875 C 9.457031 -1.285156 7.285156 -0.234375 5.234375 0.234375 C 3.191406 0.703125 1.445312 0.375 0 -0.75 C -1.757812 -2.195312 -2.46875 -4.035156 -2.125 -6.265625 C -1.78125 -8.503906 -0.679688 -10.898438 1.171875 -13.453125 C 3.035156 -16.003906 5.253906 -18.503906 7.828125 -20.953125 C 10.410156 -23.347656 12.988281 -25.253906 15.5625 -26.671875 C 18.144531 -28.085938 20.472656 -28.96875 22.546875 -29.3125 C 24.628906 -29.65625 26.175781 -29.414062 27.1875 -28.59375 C 28 -27.96875 28.40625 -27.117188 28.40625 -26.046875 C 28.59375 -26.367188 28.78125 -26.671875 28.96875 -26.953125 C 29.164062 -27.234375 29.390625 -27.5 29.640625 -27.75 C 30.648438 -29.070312 31.75 -29.6875 32.9375 -29.59375 C 34.132812 -29.5 35 -28.945312 35.53125 -27.9375 C 36.070312 -26.925781 35.773438 -25.632812 34.640625 -24.0625 C 33.953125 -23.0625 32.851562 -21.835938 31.34375 -20.390625 C 29.832031 -18.941406 28.238281 -17.335938 26.5625 -15.578125 C 24.894531 -13.816406 23.46875 -11.957031 22.28125 -10 C 20.894531 -7.738281 19.539062 -5.597656 18.21875 -3.578125 C 16.894531 -1.566406 15.632812 0.347656 14.4375 2.171875 C 18.53125 0.972656 21.878906 -0.503906 24.484375 -2.265625 C 27.097656 -4.023438 29.425781 -6.035156 31.46875 -8.296875 C 33.519531 -10.566406 35.742188 -13.054688 38.140625 -15.765625 L 38.890625 -15.296875 C 36.679688 -12.773438 34.300781 -10.066406 31.75 -7.171875 C 29.207031 -4.273438 26.316406 -1.601562 23.078125 0.84375 C 19.835938 3.300781 16.046875 5.097656 11.703125 6.234375 C 7.109375 12.898438 3.160156 18.054688 -0.140625 21.703125 C -3.441406 25.359375 -6.207031 27.910156 -8.4375 29.359375 C -10.675781 30.804688 -12.488281 31.5 -13.875 31.4375 C -15.257812 31.375 -16.394531 30.960938 -17.28125 30.203125 Z M -12.265625 25.015625 C -10.441406 26.335938 -7.785156 25.457031 -4.296875 22.375 C -0.804688 19.289062 3.234375 14.410156 7.828125 7.734375 L 8.3125 6.984375 C 4.46875 7.992188 1.066406 9.207031 -1.890625 10.625 C -4.847656 12.039062 -7.207031 13.503906 -8.96875 15.015625 C -10.039062 15.953125 -11.046875 17.050781 -11.984375 18.3125 C -12.929688 19.570312 -13.5 20.796875 -13.6875 21.984375 C -13.875 23.179688 -13.398438 24.191406 -12.265625 25.015625 Z M 6.703125 -6.046875 C 7.515625 -5.097656 8.566406 -4.765625 9.859375 -5.046875 C 11.148438 -5.328125 12.550781 -6.019531 14.0625 -7.125 C 15.570312 -8.226562 17.066406 -9.550781 18.546875 -11.09375 C 20.023438 -12.632812 21.394531 -14.191406 22.65625 -15.765625 C 23.34375 -16.960938 23.984375 -18.140625 24.578125 -19.296875 C 25.179688 -20.460938 25.796875 -21.644531 26.421875 -22.84375 C 26.617188 -23.59375 26.703125 -24.28125 26.671875 -24.90625 C 26.640625 -25.539062 26.429688 -25.984375 26.046875 -26.234375 C 25.046875 -27.054688 23.742188 -27.3125 22.140625 -27 C 20.535156 -26.6875 18.816406 -25.945312 16.984375 -24.78125 C 15.160156 -23.613281 13.429688 -22.210938 11.796875 -20.578125 C 10.160156 -18.941406 8.773438 -17.207031 7.640625 -15.375 C 6.515625 -13.550781 5.820312 -11.820312 5.5625 -10.1875 C 5.3125 -8.550781 5.691406 -7.171875 6.703125 -6.046875 Z M 6.703125 -6.046875 "/></g></g></g><g fill="#422e6d" fill-opacity="1"><g transform="translate(355.647191, 358.390243)"><g><path d="M 3.6875 -0.65625 C 1.539062 -2.101562 0.34375 -3.941406 0.09375 -6.171875 C -0.15625 -8.410156 0.25 -10.785156 1.3125 -13.296875 C 2.382812 -15.816406 3.898438 -18.210938 5.859375 -20.484375 C 7.867188 -22.867188 10.113281 -24.878906 12.59375 -26.515625 C 15.082031 -28.160156 17.488281 -29.1875 19.8125 -29.59375 C 22.144531 -30 24.003906 -29.601562 25.390625 -28.40625 C 26.335938 -27.59375 26.726562 -26.398438 26.5625 -24.828125 C 26.40625 -23.253906 25.773438 -21.566406 24.671875 -19.765625 C 23.578125 -17.972656 22.085938 -16.273438 20.203125 -14.671875 C 18.316406 -13.066406 16.050781 -11.859375 13.40625 -11.046875 C 12.207031 -10.671875 11.242188 -10.71875 10.515625 -11.1875 C 9.796875 -11.65625 9.359375 -12.296875 9.203125 -13.109375 C 9.046875 -13.929688 9.1875 -14.671875 9.625 -15.328125 C 10.0625 -15.992188 10.847656 -16.328125 11.984375 -16.328125 C 15.003906 -16.328125 17.441406 -16.78125 19.296875 -17.6875 C 21.160156 -18.601562 22.546875 -19.738281 23.453125 -21.09375 C 24.367188 -22.445312 24.828125 -23.753906 24.828125 -25.015625 C 24.828125 -26.273438 24.476562 -27.21875 23.78125 -27.84375 C 22.96875 -28.664062 21.898438 -28.851562 20.578125 -28.40625 C 19.253906 -27.96875 17.835938 -27.132812 16.328125 -25.90625 C 14.816406 -24.675781 13.367188 -23.242188 11.984375 -21.609375 C 10.660156 -20.097656 9.539062 -18.445312 8.625 -16.65625 C 7.71875 -14.863281 7.203125 -13.117188 7.078125 -11.421875 C 6.953125 -9.722656 7.363281 -8.179688 8.3125 -6.796875 C 9.625 -5.035156 11.394531 -4.25 13.625 -4.4375 C 15.863281 -4.625 18.398438 -5.628906 21.234375 -7.453125 C 24.066406 -9.273438 27.023438 -11.726562 30.109375 -14.8125 L 30.671875 -14.25 C 29.097656 -12.175781 27.175781 -10.066406 24.90625 -7.921875 C 22.644531 -5.785156 20.238281 -3.945312 17.6875 -2.40625 C 15.144531 -0.863281 12.644531 0.125 10.1875 0.5625 C 7.738281 1.007812 5.570312 0.601562 3.6875 -0.65625 Z M 3.6875 -0.65625 "/></g></g></g><g fill="#422e6d" fill-opacity="1"><g transform="translate(383.681651, 358.390243)"><g><path d="M -4.0625 -0.5625 C -5.320312 -1.820312 -5.882812 -3.332031 -5.75 -5.09375 C -5.625 -6.851562 -5.023438 -8.738281 -3.953125 -10.75 C -2.890625 -12.769531 -1.601562 -14.816406 -0.09375 -16.890625 C 1.414062 -18.972656 2.972656 -20.972656 4.578125 -22.890625 C 6.179688 -24.804688 7.582031 -26.488281 8.78125 -27.9375 C 7.957031 -27.8125 7.132812 -27.65625 6.3125 -27.46875 C 5.5 -27.28125 4.65625 -27.1875 3.78125 -27.1875 C 3.332031 -27.1875 2.953125 -27.328125 2.640625 -27.609375 C 2.328125 -27.890625 2.171875 -28.25 2.171875 -28.6875 C 2.171875 -29.195312 2.328125 -29.609375 2.640625 -29.921875 C 2.953125 -30.234375 3.332031 -30.390625 3.78125 -30.390625 C 4.84375 -30.390625 5.910156 -30.3125 6.984375 -30.15625 C 8.054688 -30 9.09375 -29.859375 10.09375 -29.734375 C 11.414062 -31.429688 12.769531 -33.269531 14.15625 -35.25 C 15.539062 -37.238281 16.878906 -39.144531 18.171875 -40.96875 C 19.460938 -42.789062 20.609375 -44.332031 21.609375 -45.59375 C 22.617188 -46.914062 23.691406 -47.6875 24.828125 -47.90625 C 25.960938 -48.125 26.90625 -47.945312 27.65625 -47.375 C 28.414062 -46.8125 28.796875 -46.007812 28.796875 -44.96875 C 28.796875 -43.9375 28.164062 -42.820312 26.90625 -41.625 C 25.644531 -40.425781 23.800781 -38.898438 21.375 -37.046875 C 18.957031 -35.191406 16.363281 -32.753906 13.59375 -29.734375 C 14.601562 -29.859375 15.578125 -30 16.515625 -30.15625 C 17.460938 -30.3125 18.4375 -30.390625 19.4375 -30.390625 C 19.882812 -30.390625 20.265625 -30.234375 20.578125 -29.921875 C 20.890625 -29.609375 21.046875 -29.195312 21.046875 -28.6875 C 21.046875 -28.25 20.890625 -27.890625 20.578125 -27.609375 C 20.265625 -27.328125 19.882812 -27.1875 19.4375 -27.1875 C 18.25 -27.1875 17.039062 -27.328125 15.8125 -27.609375 C 14.582031 -27.890625 13.367188 -28.09375 12.171875 -28.21875 L 10.765625 -26.53125 C 6.921875 -21.863281 4.023438 -17.769531 2.078125 -14.25 C 0.128906 -10.726562 -0.148438 -8.117188 1.234375 -6.421875 C 2.421875 -5.035156 4.601562 -5.066406 7.78125 -6.515625 C 10.957031 -7.960938 14.875 -11.171875 19.53125 -16.140625 L 20.203125 -15.859375 C 18.117188 -13.148438 15.894531 -10.628906 13.53125 -8.296875 C 11.175781 -5.972656 8.878906 -4.023438 6.640625 -2.453125 C 4.410156 -0.878906 2.351562 0.109375 0.46875 0.515625 C -1.414062 0.921875 -2.925781 0.5625 -4.0625 -0.5625 Z M -4.0625 -0.5625 "/></g></g></g><g fill="#422e6d" fill-opacity="1"><g transform="translate(403.787174, 358.390243)"><g><path d="M 12.640625 -0.65625 C 11.515625 -1.914062 11.0625 -3.316406 11.28125 -4.859375 C 11.5 -6.398438 12.125 -7.988281 13.15625 -9.625 C 14.195312 -11.257812 15.425781 -12.863281 16.84375 -14.4375 C 18.257812 -16.007812 19.597656 -17.488281 20.859375 -18.875 C 22.117188 -20.257812 23.078125 -21.46875 23.734375 -22.5 C 24.398438 -23.539062 24.476562 -24.316406 23.96875 -24.828125 C 23.34375 -25.515625 22.320312 -25.335938 20.90625 -24.296875 C 19.488281 -23.265625 17.742188 -21.675781 15.671875 -19.53125 C 13.847656 -17.644531 11.941406 -15.550781 9.953125 -13.25 C 7.972656 -10.957031 6.132812 -8.757812 4.4375 -6.65625 C 2.738281 -4.550781 1.351562 -2.804688 0.28125 -1.421875 C -0.65625 -0.285156 -1.722656 0.296875 -2.921875 0.328125 C -4.117188 0.359375 -5.03125 -0.03125 -5.65625 -0.84375 C -6.289062 -1.664062 -6.257812 -2.738281 -5.5625 -4.0625 C -5.125 -4.875 -4.796875 -5.46875 -4.578125 -5.84375 C -4.359375 -6.226562 -3.992188 -6.765625 -3.484375 -7.453125 C -2.984375 -8.148438 -2.132812 -9.285156 -0.9375 -10.859375 C 0.25 -12.429688 1.988281 -14.742188 4.28125 -17.796875 C 6.582031 -20.847656 9.65625 -24.953125 13.5 -30.109375 C 14.25 -31.179688 15.285156 -32.597656 16.609375 -34.359375 C 17.929688 -36.117188 19.363281 -38.066406 20.90625 -40.203125 C 22.445312 -42.347656 23.988281 -44.441406 25.53125 -46.484375 C 27.070312 -48.535156 28.472656 -50.378906 29.734375 -52.015625 C 30.992188 -53.648438 32 -54.875 32.75 -55.6875 C 34.007812 -57.007812 35.253906 -57.59375 36.484375 -57.4375 C 37.710938 -57.28125 38.546875 -56.664062 38.984375 -55.59375 C 39.421875 -54.519531 39.070312 -53.226562 37.9375 -51.71875 C 37.4375 -51.09375 36.035156 -49.738281 33.734375 -47.65625 C 31.441406 -45.582031 28.691406 -42.972656 25.484375 -39.828125 C 22.273438 -36.679688 19.035156 -33.128906 15.765625 -29.171875 C 15.328125 -28.597656 14.539062 -27.570312 13.40625 -26.09375 C 12.269531 -24.613281 11.007812 -22.960938 9.625 -21.140625 C 8.238281 -19.316406 6.945312 -17.492188 5.75 -15.671875 C 4.5625 -13.847656 3.648438 -12.289062 3.015625 -11 C 2.390625 -9.707031 2.296875 -8.90625 2.734375 -8.59375 C 3.046875 -8.34375 3.660156 -8.671875 4.578125 -9.578125 C 5.492188 -10.492188 6.5625 -11.660156 7.78125 -13.078125 C 9.007812 -14.492188 10.238281 -15.941406 11.46875 -17.421875 C 12.695312 -18.898438 13.71875 -20.078125 14.53125 -20.953125 C 16.738281 -23.285156 18.691406 -25.269531 20.390625 -26.90625 C 22.085938 -28.539062 23.644531 -29.59375 25.0625 -30.0625 C 26.476562 -30.53125 27.816406 -30.203125 29.078125 -29.078125 C 29.953125 -28.253906 30.25 -27.195312 29.96875 -25.90625 C 29.6875 -24.613281 29.054688 -23.179688 28.078125 -21.609375 C 27.109375 -20.035156 25.992188 -18.429688 24.734375 -16.796875 C 23.472656 -15.160156 22.304688 -13.585938 21.234375 -12.078125 C 20.171875 -10.566406 19.398438 -9.242188 18.921875 -8.109375 C 18.453125 -6.984375 18.5 -6.132812 19.0625 -5.5625 C 19.882812 -4.8125 21.253906 -4.703125 23.171875 -5.234375 C 25.085938 -5.773438 27.320312 -6.957031 29.875 -8.78125 C 32.425781 -10.601562 35.050781 -12.960938 37.75 -15.859375 L 38.515625 -15.484375 C 36.242188 -12.898438 33.847656 -10.441406 31.328125 -8.109375 C 28.816406 -5.785156 26.347656 -3.835938 23.921875 -2.265625 C 21.503906 -0.691406 19.300781 0.28125 17.3125 0.65625 C 15.332031 1.039062 13.773438 0.601562 12.640625 -0.65625 Z M 12.640625 -0.65625 "/></g></g></g><g fill="#422e6d" fill-opacity="1"><g transform="translate(438.523478, 358.390243)"><g><path d="M 3.6875 -0.65625 C 1.539062 -2.101562 0.34375 -3.941406 0.09375 -6.171875 C -0.15625 -8.410156 0.25 -10.785156 1.3125 -13.296875 C 2.382812 -15.816406 3.898438 -18.210938 5.859375 -20.484375 C 7.867188 -22.867188 10.113281 -24.878906 12.59375 -26.515625 C 15.082031 -28.160156 17.488281 -29.1875 19.8125 -29.59375 C 22.144531 -30 24.003906 -29.601562 25.390625 -28.40625 C 26.335938 -27.59375 26.726562 -26.398438 26.5625 -24.828125 C 26.40625 -23.253906 25.773438 -21.566406 24.671875 -19.765625 C 23.578125 -17.972656 22.085938 -16.273438 20.203125 -14.671875 C 18.316406 -13.066406 16.050781 -11.859375 13.40625 -11.046875 C 12.207031 -10.671875 11.242188 -10.71875 10.515625 -11.1875 C 9.796875 -11.65625 9.359375 -12.296875 9.203125 -13.109375 C 9.046875 -13.929688 9.1875 -14.671875 9.625 -15.328125 C 10.0625 -15.992188 10.847656 -16.328125 11.984375 -16.328125 C 15.003906 -16.328125 17.441406 -16.78125 19.296875 -17.6875 C 21.160156 -18.601562 22.546875 -19.738281 23.453125 -21.09375 C 24.367188 -22.445312 24.828125 -23.753906 24.828125 -25.015625 C 24.828125 -26.273438 24.476562 -27.21875 23.78125 -27.84375 C 22.96875 -28.664062 21.898438 -28.851562 20.578125 -28.40625 C 19.253906 -27.96875 17.835938 -27.132812 16.328125 -25.90625 C 14.816406 -24.675781 13.367188 -23.242188 11.984375 -21.609375 C 10.660156 -20.097656 9.539062 -18.445312 8.625 -16.65625 C 7.71875 -14.863281 7.203125 -13.117188 7.078125 -11.421875 C 6.953125 -9.722656 7.363281 -8.179688 8.3125 -6.796875 C 9.625 -5.035156 11.394531 -4.25 13.625 -4.4375 C 15.863281 -4.625 18.398438 -5.628906 21.234375 -7.453125 C 24.066406 -9.273438 27.023438 -11.726562 30.109375 -14.8125 L 30.671875 -14.25 C 29.097656 -12.175781 27.175781 -10.066406 24.90625 -7.921875 C 22.644531 -5.785156 20.238281 -3.945312 17.6875 -2.40625 C 15.144531 -0.863281 12.644531 0.125 10.1875 0.5625 C 7.738281 1.007812 5.570312 0.601562 3.6875 -0.65625 Z M 3.6875 -0.65625 "/></g></g></g><g fill="#422e6d" fill-opacity="1"><g transform="translate(466.557937, 358.390243)"><g><path d="M 5.1875 -1.421875 C 3.675781 -2.929688 3.203125 -4.691406 3.765625 -6.703125 C 4.335938 -8.710938 6.164062 -11.070312 9.25 -13.78125 C 11.195312 -15.476562 13.113281 -17.175781 15 -18.875 C 16.894531 -20.570312 18.34375 -22.300781 19.34375 -24.0625 C 19.976562 -25.132812 19.976562 -26.078125 19.34375 -26.890625 C 18.71875 -27.710938 17.914062 -28.28125 16.9375 -28.59375 C 15.96875 -28.914062 15.195312 -28.789062 14.625 -28.21875 C 13.75 -27.40625 12.523438 -26.195312 10.953125 -24.59375 C 9.378906 -22.988281 7.675781 -21.222656 5.84375 -19.296875 C 4.019531 -17.378906 2.257812 -15.476562 0.5625 -13.59375 L 0 -14.25 L 12.453125 -28.5 C 13.023438 -29.195312 13.234375 -29.984375 13.078125 -30.859375 C 12.921875 -31.742188 12.679688 -32.71875 12.359375 -33.78125 C 12.046875 -34.851562 11.890625 -35.988281 11.890625 -37.1875 C 11.890625 -38.195312 12.203125 -39 12.828125 -39.59375 C 13.460938 -40.195312 14.21875 -40.546875 15.09375 -40.640625 C 15.976562 -40.734375 16.78125 -40.523438 17.5 -40.015625 C 18.226562 -39.515625 18.6875 -38.695312 18.875 -37.5625 C 19 -36.625 18.84375 -35.820312 18.40625 -35.15625 C 17.96875 -34.5 17.6875 -33.476562 17.5625 -32.09375 C 17.5625 -31.53125 17.84375 -30.992188 18.40625 -30.484375 C 18.96875 -29.984375 19.625 -29.445312 20.375 -28.875 C 21.132812 -28.3125 21.796875 -27.695312 22.359375 -27.03125 C 22.929688 -26.375 23.1875 -25.578125 23.125 -24.640625 C 23.0625 -23.066406 22.523438 -21.523438 21.515625 -20.015625 C 20.515625 -18.503906 19.335938 -17.070312 17.984375 -15.71875 C 16.628906 -14.363281 15.335938 -13.117188 14.109375 -11.984375 C 12.878906 -10.847656 11.984375 -9.804688 11.421875 -8.859375 C 10.859375 -7.921875 10.859375 -7.109375 11.421875 -6.421875 C 12.742188 -4.910156 14.992188 -4.988281 18.171875 -6.65625 C 21.347656 -8.320312 25.515625 -11.925781 30.671875 -17.46875 L 31.34375 -17.171875 C 28.132812 -12.898438 24.828125 -9.269531 21.421875 -6.28125 C 18.023438 -3.289062 14.894531 -1.304688 12.03125 -0.328125 C 9.164062 0.640625 6.882812 0.273438 5.1875 -1.421875 Z M 5.1875 -1.421875 "/></g></g></g></svg>