<svg xmlns="http://www.w3.org/2000/svg" xmlns:xlink="http://www.w3.org/1999/xlink" width="1925" zoomAndPan="magnify" viewBox="0 0 1443.75 540.000001" height="720" preserveAspectRatio="xMidYMid meet" version="1.0"><defs><g/></defs><g fill="#ffffff" fill-opacity="1"><g transform="translate(93.43873, 344.254086)"><g><path d="M 3.953125 0 L 3.953125 -207.078125 L 67.90625 -207.078125 C 78.0625 -207.078125 87.320312 -206.46875 95.6875 -205.25 C 104.0625 -204.03125 111.269531 -201.691406 117.3125 -198.234375 C 123.351562 -194.785156 128.019531 -189.835938 131.3125 -183.390625 C 134.613281 -176.953125 136.265625 -168.554688 136.265625 -158.203125 L 136.265625 -96.6875 C 136.171875 -86.632812 134.445312 -78.488281 131.09375 -72.25 C 127.75 -66.007812 123.15625 -61.1875 117.3125 -57.78125 C 111.476562 -54.382812 104.753906 -52.050781 97.140625 -50.78125 C 89.523438 -49.507812 81.300781 -48.875 72.46875 -48.875 L 69.28125 -48.875 L 69.28125 0 Z M 66.078125 -88.15625 L 69.734375 -88.15625 C 71.554688 -88.15625 72.847656 -88.632812 73.609375 -89.59375 C 74.378906 -90.5625 74.765625 -92.367188 74.765625 -95.015625 L 74.765625 -156.375 C 74.765625 -159.007812 74.40625 -160.804688 73.6875 -161.765625 C 72.976562 -162.734375 71.5625 -163.21875 69.4375 -163.21875 L 66.078125 -163.21875 Z M 66.078125 -88.15625 "/></g></g><g transform="translate(232.607282, 344.254086)"><g><path d="M 3.046875 -62.125 L 3.046875 -146.015625 C 3.046875 -167.429688 9.082031 -183.617188 21.15625 -194.578125 C 33.238281 -205.546875 51.109375 -211.03125 74.765625 -211.03125 C 98.410156 -211.03125 116.269531 -205.519531 128.34375 -194.5 C 140.425781 -183.488281 146.46875 -167.125 146.46875 -145.40625 L 146.46875 -62.125 C 146.46875 -40.394531 140.425781 -23.945312 128.34375 -12.78125 C 116.269531 -1.625 98.410156 3.953125 74.765625 3.953125 C 51.109375 3.953125 33.34375 -1.625 21.46875 -12.78125 C 9.59375 -23.945312 3.453125 -40.394531 3.046875 -62.125 Z M 70.5 -53.59375 C 70.5 -50.65625 71.921875 -49.1875 74.765625 -49.1875 C 77.597656 -49.1875 79.015625 -50.65625 79.015625 -53.59375 L 79.015625 -153.9375 C 79.015625 -156.875 77.597656 -158.34375 74.765625 -158.34375 C 71.921875 -158.34375 70.5 -156.875 70.5 -153.9375 Z M 70.5 -53.59375 "/></g></g><g transform="translate(382.129733, 344.254086)"><g><path d="M 136.578125 0 L 74.90625 0 L 71.71875 -69.125 L 66.078125 -69.125 L 66.078125 0 L 3.953125 0 L 3.953125 -207.078125 L 67.90625 -207.078125 C 78.0625 -207.078125 87.320312 -206.46875 95.6875 -205.25 C 104.0625 -204.03125 111.269531 -201.691406 117.3125 -198.234375 C 123.351562 -194.785156 128.019531 -189.835938 131.3125 -183.390625 C 134.613281 -176.953125 136.265625 -168.554688 136.265625 -158.203125 L 136.265625 -112.515625 C 136.265625 -105.109375 135.171875 -98.863281 132.984375 -93.78125 C 130.804688 -88.707031 127.738281 -84.550781 123.78125 -81.3125 Z M 66.078125 -103.6875 L 69.734375 -103.6875 C 71.554688 -103.6875 72.847656 -104.191406 73.609375 -105.203125 C 74.378906 -106.222656 74.765625 -108.101562 74.765625 -110.84375 L 74.765625 -156.375 C 74.765625 -159.007812 74.40625 -160.804688 73.6875 -161.765625 C 72.976562 -162.734375 71.5625 -163.21875 69.4375 -163.21875 L 66.078125 -163.21875 Z M 66.078125 -103.6875 "/></g></g><g transform="translate(521.602814, 344.254086)"><g><path d="M 23.140625 0 L 23.140625 -159.875 L 1.21875 -159.875 L 1.21875 -207.078125 L 109.78125 -207.078125 L 109.78125 -159.875 L 88.15625 -159.875 L 88.15625 0 Z M 23.140625 0 "/></g></g><g transform="translate(632.75494, 344.254086)"><g><path d="M 3.953125 0 L 3.953125 -207.078125 L 106.28125 -207.078125 L 106.28125 -163.984375 L 69.28125 -163.984375 L 69.28125 -114.953125 L 99.125 -114.953125 L 99.125 -72.625 L 69.28125 -72.625 L 69.28125 -0.15625 Z M 3.953125 0 "/></g></g><g transform="translate(742.07991, 344.254086)"><g><path d="M 3.046875 -62.125 L 3.046875 -146.015625 C 3.046875 -167.429688 9.082031 -183.617188 21.15625 -194.578125 C 33.238281 -205.546875 51.109375 -211.03125 74.765625 -211.03125 C 98.410156 -211.03125 116.269531 -205.519531 128.34375 -194.5 C 140.425781 -183.488281 146.46875 -167.125 146.46875 -145.40625 L 146.46875 -62.125 C 146.46875 -40.394531 140.425781 -23.945312 128.34375 -12.78125 C 116.269531 -1.625 98.410156 3.953125 74.765625 3.953125 C 51.109375 3.953125 33.34375 -1.625 21.46875 -12.78125 C 9.59375 -23.945312 3.453125 -40.394531 3.046875 -62.125 Z M 70.5 -53.59375 C 70.5 -50.65625 71.921875 -49.1875 74.765625 -49.1875 C 77.597656 -49.1875 79.015625 -50.65625 79.015625 -53.59375 L 79.015625 -153.9375 C 79.015625 -156.875 77.597656 -158.34375 74.765625 -158.34375 C 71.921875 -158.34375 70.5 -156.875 70.5 -153.9375 Z M 70.5 -53.59375 "/></g></g><g transform="translate(891.602361, 344.254086)"><g><path d="M 3.953125 0 L 3.953125 -207.078125 L 69.28125 -207.078125 L 69.28125 -45.828125 L 98.515625 -45.828125 L 98.515625 0 Z M 3.953125 0 "/></g></g><g transform="translate(992.552854, 344.254086)"><g><path d="M 3.953125 0 L 3.953125 -207.078125 L 69.28125 -207.078125 L 69.28125 0 Z M 3.953125 0 "/></g></g><g transform="translate(1065.791447, 344.254086)"><g><path d="M 3.046875 -62.125 L 3.046875 -146.015625 C 3.046875 -167.429688 9.082031 -183.617188 21.15625 -194.578125 C 33.238281 -205.546875 51.109375 -211.03125 74.765625 -211.03125 C 98.410156 -211.03125 116.269531 -205.519531 128.34375 -194.5 C 140.425781 -183.488281 146.46875 -167.125 146.46875 -145.40625 L 146.46875 -62.125 C 146.46875 -40.394531 140.425781 -23.945312 128.34375 -12.78125 C 116.269531 -1.625 98.410156 3.953125 74.765625 3.953125 C 51.109375 3.953125 33.34375 -1.625 21.46875 -12.78125 C 9.59375 -23.945312 3.453125 -40.394531 3.046875 -62.125 Z M 70.5 -53.59375 C 70.5 -50.65625 71.921875 -49.1875 74.765625 -49.1875 C 77.597656 -49.1875 79.015625 -50.65625 79.015625 -53.59375 L 79.015625 -153.9375 C 79.015625 -156.875 77.597656 -158.34375 74.765625 -158.34375 C 71.921875 -158.34375 70.5 -156.875 70.5 -153.9375 Z M 70.5 -53.59375 "/></g></g><g transform="translate(1215.313898, 344.254086)"><g><path d="M 69.890625 4.265625 C 56.691406 4.265625 45.773438 2.992188 37.140625 0.453125 C 28.515625 -2.078125 21.765625 -5.5 16.890625 -9.8125 C 12.023438 -14.132812 8.601562 -19.0625 6.625 -24.59375 C 4.644531 -30.125 3.65625 -35.882812 3.65625 -41.875 L 3.65625 -68.828125 L 62.125 -68.828125 L 62.125 -41.265625 C 62.226562 -40.242188 62.582031 -39.25 63.1875 -38.28125 C 63.789062 -37.320312 64.90625 -36.84375 66.53125 -36.84375 C 67.957031 -36.84375 69.050781 -37.300781 69.8125 -38.21875 C 70.570312 -39.132812 70.953125 -40.148438 70.953125 -41.265625 C 70.953125 -44.515625 70.75 -47.738281 70.34375 -50.9375 C 69.9375 -54.132812 69.328125 -57 68.515625 -59.53125 C 66.785156 -64.8125 64.320312 -69.457031 61.125 -73.46875 C 57.9375 -77.476562 54.359375 -81.179688 50.390625 -84.578125 C 46.429688 -87.984375 42.320312 -91.359375 38.0625 -94.703125 C 33.800781 -98.054688 29.640625 -101.660156 25.578125 -105.515625 C 21.515625 -109.367188 17.882812 -113.78125 14.6875 -118.75 C 11.488281 -123.726562 8.925781 -129.539062 7 -136.1875 C 5.070312 -142.84375 4.109375 -150.632812 4.109375 -159.5625 L 4.109375 -164.59375 C 4.410156 -175.863281 6.921875 -184.894531 11.640625 -191.6875 C 16.367188 -198.488281 23.222656 -203.410156 32.203125 -206.453125 C 41.179688 -209.503906 52.015625 -211.03125 64.703125 -211.03125 C 79.328125 -211.03125 91.304688 -209.097656 100.640625 -205.234375 C 109.984375 -201.378906 116.910156 -196 121.421875 -189.09375 C 125.941406 -182.195312 128.203125 -174.179688 128.203125 -165.046875 L 128.203125 -144.796875 L 71.859375 -144.796875 L 71.859375 -165.65625 C 71.859375 -166.875 71.503906 -167.890625 70.796875 -168.703125 C 70.085938 -169.515625 69.023438 -169.921875 67.609375 -169.921875 C 66.285156 -169.921875 65.21875 -169.515625 64.40625 -168.703125 C 63.59375 -167.890625 63.1875 -166.820312 63.1875 -165.5 C 63.1875 -163.269531 63.460938 -160.9375 64.015625 -158.5 C 64.578125 -156.0625 65.265625 -153.984375 66.078125 -152.265625 C 67.804688 -148.503906 70.269531 -145.097656 73.46875 -142.046875 C 76.664062 -139.003906 80.269531 -136.007812 84.28125 -133.0625 C 88.289062 -130.125 92.425781 -126.953125 96.6875 -123.546875 C 100.945312 -120.148438 105.082031 -116.21875 109.09375 -111.75 C 113.101562 -107.289062 116.734375 -102.039062 119.984375 -96 C 123.234375 -89.957031 125.820312 -82.773438 127.75 -74.453125 C 129.675781 -66.128906 130.640625 -56.382812 130.640625 -45.21875 L 130.640625 -38.515625 C 130.429688 -28.878906 127.6875 -20.890625 122.40625 -14.546875 C 117.132812 -8.203125 109.976562 -3.476562 100.9375 -0.375 C 91.90625 2.71875 81.554688 4.265625 69.890625 4.265625 Z M 69.890625 4.265625 "/></g></g></g><g fill="#ffffff" fill-opacity="1"><g transform="translate(93.43873, 344.254086)"><g><path d="M 3.953125 0 L 3.953125 -207.078125 L 67.90625 -207.078125 C 78.0625 -207.078125 87.320312 -206.46875 95.6875 -205.25 C 104.0625 -204.03125 111.269531 -201.691406 117.3125 -198.234375 C 123.351562 -194.785156 128.019531 -189.835938 131.3125 -183.390625 C 134.613281 -176.953125 136.265625 -168.554688 136.265625 -158.203125 L 136.265625 -96.6875 C 136.171875 -86.632812 134.445312 -78.488281 131.09375 -72.25 C 127.75 -66.007812 123.15625 -61.1875 117.3125 -57.78125 C 111.476562 -54.382812 104.753906 -52.050781 97.140625 -50.78125 C 89.523438 -49.507812 81.300781 -48.875 72.46875 -48.875 L 69.28125 -48.875 L 69.28125 0 Z M 66.078125 -88.15625 L 69.734375 -88.15625 C 71.554688 -88.15625 72.847656 -88.632812 73.609375 -89.59375 C 74.378906 -90.5625 74.765625 -92.367188 74.765625 -95.015625 L 74.765625 -156.375 C 74.765625 -159.007812 74.40625 -160.804688 73.6875 -161.765625 C 72.976562 -162.734375 71.5625 -163.21875 69.4375 -163.21875 L 66.078125 -163.21875 Z M 66.078125 -88.15625 "/></g></g><g transform="translate(232.607282, 344.254086)"><g><path d="M 3.046875 -62.125 L 3.046875 -146.015625 C 3.046875 -167.429688 9.082031 -183.617188 21.15625 -194.578125 C 33.238281 -205.546875 51.109375 -211.03125 74.765625 -211.03125 C 98.410156 -211.03125 116.269531 -205.519531 128.34375 -194.5 C 140.425781 -183.488281 146.46875 -167.125 146.46875 -145.40625 L 146.46875 -62.125 C 146.46875 -40.394531 140.425781 -23.945312 128.34375 -12.78125 C 116.269531 -1.625 98.410156 3.953125 74.765625 3.953125 C 51.109375 3.953125 33.34375 -1.625 21.46875 -12.78125 C 9.59375 -23.945312 3.453125 -40.394531 3.046875 -62.125 Z M 70.5 -53.59375 C 70.5 -50.65625 71.921875 -49.1875 74.765625 -49.1875 C 77.597656 -49.1875 79.015625 -50.65625 79.015625 -53.59375 L 79.015625 -153.9375 C 79.015625 -156.875 77.597656 -158.34375 74.765625 -158.34375 C 71.921875 -158.34375 70.5 -156.875 70.5 -153.9375 Z M 70.5 -53.59375 "/></g></g><g transform="translate(382.129733, 344.254086)"><g><path d="M 136.578125 0 L 74.90625 0 L 71.71875 -69.125 L 66.078125 -69.125 L 66.078125 0 L 3.953125 0 L 3.953125 -207.078125 L 67.90625 -207.078125 C 78.0625 -207.078125 87.320312 -206.46875 95.6875 -205.25 C 104.0625 -204.03125 111.269531 -201.691406 117.3125 -198.234375 C 123.351562 -194.785156 128.019531 -189.835938 131.3125 -183.390625 C 134.613281 -176.953125 136.265625 -168.554688 136.265625 -158.203125 L 136.265625 -112.515625 C 136.265625 -105.109375 135.171875 -98.863281 132.984375 -93.78125 C 130.804688 -88.707031 127.738281 -84.550781 123.78125 -81.3125 Z M 66.078125 -103.6875 L 69.734375 -103.6875 C 71.554688 -103.6875 72.847656 -104.191406 73.609375 -105.203125 C 74.378906 -106.222656 74.765625 -108.101562 74.765625 -110.84375 L 74.765625 -156.375 C 74.765625 -159.007812 74.40625 -160.804688 73.6875 -161.765625 C 72.976562 -162.734375 71.5625 -163.21875 69.4375 -163.21875 L 66.078125 -163.21875 Z M 66.078125 -103.6875 "/></g></g><g transform="translate(521.602814, 344.254086)"><g><path d="M 23.140625 0 L 23.140625 -159.875 L 1.21875 -159.875 L 1.21875 -207.078125 L 109.78125 -207.078125 L 109.78125 -159.875 L 88.15625 -159.875 L 88.15625 0 Z M 23.140625 0 "/></g></g><g transform="translate(632.75494, 344.254086)"><g><path d="M 3.953125 0 L 3.953125 -207.078125 L 106.28125 -207.078125 L 106.28125 -163.984375 L 69.28125 -163.984375 L 69.28125 -114.953125 L 99.125 -114.953125 L 99.125 -72.625 L 69.28125 -72.625 L 69.28125 -0.15625 Z M 3.953125 0 "/></g></g><g transform="translate(742.07991, 344.254086)"><g><path d="M 3.046875 -62.125 L 3.046875 -146.015625 C 3.046875 -167.429688 9.082031 -183.617188 21.15625 -194.578125 C 33.238281 -205.546875 51.109375 -211.03125 74.765625 -211.03125 C 98.410156 -211.03125 116.269531 -205.519531 128.34375 -194.5 C 140.425781 -183.488281 146.46875 -167.125 146.46875 -145.40625 L 146.46875 -62.125 C 146.46875 -40.394531 140.425781 -23.945312 128.34375 -12.78125 C 116.269531 -1.625 98.410156 3.953125 74.765625 3.953125 C 51.109375 3.953125 33.34375 -1.625 21.46875 -12.78125 C 9.59375 -23.945312 3.453125 -40.394531 3.046875 -62.125 Z M 70.5 -53.59375 C 70.5 -50.65625 71.921875 -49.1875 74.765625 -49.1875 C 77.597656 -49.1875 79.015625 -50.65625 79.015625 -53.59375 L 79.015625 -153.9375 C 79.015625 -156.875 77.597656 -158.34375 74.765625 -158.34375 C 71.921875 -158.34375 70.5 -156.875 70.5 -153.9375 Z M 70.5 -53.59375 "/></g></g><g transform="translate(891.602361, 344.254086)"><g><path d="M 3.953125 0 L 3.953125 -207.078125 L 69.28125 -207.078125 L 69.28125 -45.828125 L 98.515625 -45.828125 L 98.515625 0 Z M 3.953125 0 "/></g></g><g transform="translate(992.552854, 344.254086)"><g><path d="M 3.953125 0 L 3.953125 -207.078125 L 69.28125 -207.078125 L 69.28125 0 Z M 3.953125 0 "/></g></g><g transform="translate(1065.791447, 344.254086)"><g><path d="M 3.046875 -62.125 L 3.046875 -146.015625 C 3.046875 -167.429688 9.082031 -183.617188 21.15625 -194.578125 C 33.238281 -205.546875 51.109375 -211.03125 74.765625 -211.03125 C 98.410156 -211.03125 116.269531 -205.519531 128.34375 -194.5 C 140.425781 -183.488281 146.46875 -167.125 146.46875 -145.40625 L 146.46875 -62.125 C 146.46875 -40.394531 140.425781 -23.945312 128.34375 -12.78125 C 116.269531 -1.625 98.410156 3.953125 74.765625 3.953125 C 51.109375 3.953125 33.34375 -1.625 21.46875 -12.78125 C 9.59375 -23.945312 3.453125 -40.394531 3.046875 -62.125 Z M 70.5 -53.59375 C 70.5 -50.65625 71.921875 -49.1875 74.765625 -49.1875 C 77.597656 -49.1875 79.015625 -50.65625 79.015625 -53.59375 L 79.015625 -153.9375 C 79.015625 -156.875 77.597656 -158.34375 74.765625 -158.34375 C 71.921875 -158.34375 70.5 -156.875 70.5 -153.9375 Z M 70.5 -53.59375 "/></g></g><g transform="translate(1215.313898, 344.254086)"><g><path d="M 69.890625 4.265625 C 56.691406 4.265625 45.773438 2.992188 37.140625 0.453125 C 28.515625 -2.078125 21.765625 -5.5 16.890625 -9.8125 C 12.023438 -14.132812 8.601562 -19.0625 6.625 -24.59375 C 4.644531 -30.125 3.65625 -35.882812 3.65625 -41.875 L 3.65625 -68.828125 L 62.125 -68.828125 L 62.125 -41.265625 C 62.226562 -40.242188 62.582031 -39.25 63.1875 -38.28125 C 63.789062 -37.320312 64.90625 -36.84375 66.53125 -36.84375 C 67.957031 -36.84375 69.050781 -37.300781 69.8125 -38.21875 C 70.570312 -39.132812 70.953125 -40.148438 70.953125 -41.265625 C 70.953125 -44.515625 70.75 -47.738281 70.34375 -50.9375 C 69.9375 -54.132812 69.328125 -57 68.515625 -59.53125 C 66.785156 -64.8125 64.320312 -69.457031 61.125 -73.46875 C 57.9375 -77.476562 54.359375 -81.179688 50.390625 -84.578125 C 46.429688 -87.984375 42.320312 -91.359375 38.0625 -94.703125 C 33.800781 -98.054688 29.640625 -101.660156 25.578125 -105.515625 C 21.515625 -109.367188 17.882812 -113.78125 14.6875 -118.75 C 11.488281 -123.726562 8.925781 -129.539062 7 -136.1875 C 5.070312 -142.84375 4.109375 -150.632812 4.109375 -159.5625 L 4.109375 -164.59375 C 4.410156 -175.863281 6.921875 -184.894531 11.640625 -191.6875 C 16.367188 -198.488281 23.222656 -203.410156 32.203125 -206.453125 C 41.179688 -209.503906 52.015625 -211.03125 64.703125 -211.03125 C 79.328125 -211.03125 91.304688 -209.097656 100.640625 -205.234375 C 109.984375 -201.378906 116.910156 -196 121.421875 -189.09375 C 125.941406 -182.195312 128.203125 -174.179688 128.203125 -165.046875 L 128.203125 -144.796875 L 71.859375 -144.796875 L 71.859375 -165.65625 C 71.859375 -166.875 71.503906 -167.890625 70.796875 -168.703125 C 70.085938 -169.515625 69.023438 -169.921875 67.609375 -169.921875 C 66.285156 -169.921875 65.21875 -169.515625 64.40625 -168.703125 C 63.59375 -167.890625 63.1875 -166.820312 63.1875 -165.5 C 63.1875 -163.269531 63.460938 -160.9375 64.015625 -158.5 C 64.578125 -156.0625 65.265625 -153.984375 66.078125 -152.265625 C 67.804688 -148.503906 70.269531 -145.097656 73.46875 -142.046875 C 76.664062 -139.003906 80.269531 -136.007812 84.28125 -133.0625 C 88.289062 -130.125 92.425781 -126.953125 96.6875 -123.546875 C 100.945312 -120.148438 105.082031 -116.21875 109.09375 -111.75 C 113.101562 -107.289062 116.734375 -102.039062 119.984375 -96 C 123.234375 -89.957031 125.820312 -82.773438 127.75 -74.453125 C 129.675781 -66.128906 130.640625 -56.382812 130.640625 -45.21875 L 130.640625 -38.515625 C 130.429688 -28.878906 127.6875 -20.890625 122.40625 -14.546875 C 117.132812 -8.203125 109.976562 -3.476562 100.9375 -0.375 C 91.90625 2.71875 81.554688 4.265625 69.890625 4.265625 Z M 69.890625 4.265625 "/></g></g></g></svg>