<svg xmlns="http://www.w3.org/2000/svg" xmlns:xlink="http://www.w3.org/1999/xlink" width="2591" zoomAndPan="magnify" viewBox="0 0 1943.25 1247.250002" height="1663" preserveAspectRatio="xMidYMid meet" version="1.0"><defs><g/><clipPath id="18cf5d64e4"><path d="M 1236.484375 903.054688 L 1720.609375 903.054688 L 1720.609375 1027.027344 L 1236.484375 1027.027344 Z M 1236.484375 903.054688 " clip-rule="nonzero"/></clipPath></defs><g fill="#3c096c" fill-opacity="1"><g transform="translate(273.302205, 859.009575)"><g><path d="M 22.234375 -502.625 L 176.703125 -502.625 C 201.285156 -502.625 220.300781 -497.0625 233.75 -485.9375 C 247.207031 -474.820312 256.273438 -459.21875 260.953125 -439.125 C 265.640625 -419.039062 267.984375 -393.394531 267.984375 -362.1875 C 267.984375 -333.71875 264.273438 -311.484375 256.859375 -295.484375 C 249.453125 -279.492188 236.582031 -268.378906 218.25 -262.140625 C 233.46875 -259.015625 244.488281 -251.40625 251.3125 -239.3125 C 258.132812 -227.21875 261.546875 -210.835938 261.546875 -190.171875 L 260.375 0 L 162.078125 0 L 162.078125 -196.609375 C 162.078125 -210.648438 159.347656 -219.617188 153.890625 -223.515625 C 148.429688 -227.421875 138.484375 -229.375 124.046875 -229.375 L 124.046875 0 L 22.234375 0 Z M 148.625 -316.546875 C 162.664062 -316.546875 169.6875 -331.757812 169.6875 -362.1875 C 169.6875 -375.457031 169.097656 -385.40625 167.921875 -392.03125 C 166.753906 -398.664062 164.609375 -403.25 161.484375 -405.78125 C 158.367188 -408.320312 153.882812 -409.59375 148.03125 -409.59375 L 124.625 -409.59375 L 124.625 -316.546875 Z M 148.625 -316.546875 "/></g></g></g><g fill="#3c096c" fill-opacity="1"><g transform="translate(552.40849, 859.009575)"><g><path d="M 19.890625 -456.984375 L 19.890625 -528.375 L 122.296875 -528.375 L 122.296875 -456.984375 Z M 19.890625 0 L 19.890625 -428.3125 L 122.296875 -428.3125 L 122.296875 0 Z M 19.890625 0 "/></g></g></g><g fill="#3c096c" fill-opacity="1"><g transform="translate(694.594658, 859.009575)"><g><path d="M 138.09375 4.6875 C 53.445312 4.6875 11.125 -38.222656 11.125 -124.046875 L 11.703125 -157.984375 L 114.09375 -157.984375 L 114.6875 -107.65625 C 114.6875 -97.519531 116.632812 -89.816406 120.53125 -84.546875 C 124.4375 -79.285156 130.875 -76.65625 139.84375 -76.65625 C 153.5 -76.65625 160.328125 -87.769531 160.328125 -110 C 160.328125 -126.382812 157.109375 -139.257812 150.671875 -148.625 C 144.234375 -157.988281 133.992188 -167.9375 119.953125 -178.46875 L 65.53125 -220.59375 C 46.8125 -235.019531 33.351562 -249.9375 25.15625 -265.34375 C 16.96875 -280.757812 12.875 -302.507812 12.875 -330.59375 C 12.875 -352.4375 18.625 -371.0625 30.125 -386.46875 C 41.632812 -401.882812 56.945312 -413.492188 76.0625 -421.296875 C 95.175781 -429.097656 116.4375 -433 139.84375 -433 C 222.925781 -433 264.46875 -391.648438 264.46875 -308.953125 L 264.46875 -300.75 L 158.5625 -300.75 L 158.5625 -317.140625 C 158.5625 -327.273438 156.90625 -335.953125 153.59375 -343.171875 C 150.28125 -350.390625 144.722656 -354 136.921875 -354 C 129.898438 -354 124.535156 -351.953125 120.828125 -347.859375 C 117.117188 -343.765625 115.265625 -338.207031 115.265625 -331.1875 C 115.265625 -315.582031 121.3125 -303.488281 133.40625 -294.90625 L 196.609375 -248.671875 C 219.234375 -231.898438 236.585938 -213.664062 248.671875 -193.96875 C 260.765625 -174.269531 266.8125 -149.398438 266.8125 -119.359375 C 266.8125 -79.578125 255.5 -48.957031 232.875 -27.5 C 210.25 -6.039062 178.65625 4.6875 138.09375 4.6875 Z M 138.09375 4.6875 "/></g></g></g><g fill="#3c096c" fill-opacity="1"><g transform="translate(972.53063, 859.009575)"><g><path d="M 98.296875 4.6875 C 65.140625 4.6875 42.414062 -6.332031 30.125 -28.375 C 17.84375 -50.414062 11.703125 -81.914062 11.703125 -122.875 C 11.703125 -156.425781 16.085938 -182.171875 24.859375 -200.109375 C 33.640625 -218.054688 45.832031 -231.222656 61.4375 -239.609375 C 77.039062 -247.992188 100.835938 -257.257812 132.828125 -267.40625 L 160.90625 -276.765625 L 160.90625 -320.65625 C 160.90625 -331.957031 158.660156 -340.628906 154.171875 -346.671875 C 149.691406 -352.722656 144.332031 -355.75 138.09375 -355.75 C 132.625 -355.75 127.84375 -353.210938 123.75 -348.140625 C 119.65625 -343.078125 117.609375 -336.253906 117.609375 -327.671875 L 117.609375 -301.921875 L 18.140625 -301.921875 L 18.140625 -315.96875 C 18.140625 -358.09375 27.988281 -388.128906 47.6875 -406.078125 C 67.382812 -424.023438 99.46875 -433 143.9375 -433 C 179.4375 -433 208.300781 -423.734375 230.53125 -405.203125 C 252.769531 -386.671875 263.890625 -360.4375 263.890625 -326.5 L 263.890625 0 L 162.078125 0 L 162.078125 -50.90625 C 157.003906 -33.351562 148.910156 -19.695312 137.796875 -9.9375 C 126.679688 -0.1875 113.515625 4.6875 98.296875 4.6875 Z M 138.671875 -74.890625 C 146.472656 -74.890625 152.03125 -78.109375 155.34375 -84.546875 C 158.664062 -90.984375 160.328125 -98.882812 160.328125 -108.25 L 160.328125 -227.609375 C 145.109375 -221.765625 133.890625 -214.351562 126.671875 -205.375 C 119.460938 -196.40625 115.859375 -183.925781 115.859375 -167.9375 L 115.859375 -112.921875 C 115.859375 -87.566406 123.460938 -74.890625 138.671875 -74.890625 Z M 138.671875 -74.890625 "/></g></g></g><g fill="#3c096c" fill-opacity="1"><g transform="translate(1255.147607, 859.009575)"><g><path d="M 31.59375 -355.171875 L 50.328125 -423.046875 L 14.046875 -423.046875 L 14.046875 -507.890625 L 121.125 -507.890625 L 121.125 -425.390625 L 91.859375 -355.171875 Z M 31.59375 -355.171875 "/></g></g></g><g fill="#3c096c" fill-opacity="1"><g transform="translate(1390.897394, 859.009575)"><g><path d="M 138.09375 4.6875 C 53.445312 4.6875 11.125 -38.222656 11.125 -124.046875 L 11.703125 -157.984375 L 114.09375 -157.984375 L 114.6875 -107.65625 C 114.6875 -97.519531 116.632812 -89.816406 120.53125 -84.546875 C 124.4375 -79.285156 130.875 -76.65625 139.84375 -76.65625 C 153.5 -76.65625 160.328125 -87.769531 160.328125 -110 C 160.328125 -126.382812 157.109375 -139.257812 150.671875 -148.625 C 144.234375 -157.988281 133.992188 -167.9375 119.953125 -178.46875 L 65.53125 -220.59375 C 46.8125 -235.019531 33.351562 -249.9375 25.15625 -265.34375 C 16.96875 -280.757812 12.875 -302.507812 12.875 -330.59375 C 12.875 -352.4375 18.625 -371.0625 30.125 -386.46875 C 41.632812 -401.882812 56.945312 -413.492188 76.0625 -421.296875 C 95.175781 -429.097656 116.4375 -433 139.84375 -433 C 222.925781 -433 264.46875 -391.648438 264.46875 -308.953125 L 264.46875 -300.75 L 158.5625 -300.75 L 158.5625 -317.140625 C 158.5625 -327.273438 156.90625 -335.953125 153.59375 -343.171875 C 150.28125 -350.390625 144.722656 -354 136.921875 -354 C 129.898438 -354 124.535156 -351.953125 120.828125 -347.859375 C 117.117188 -343.765625 115.265625 -338.207031 115.265625 -331.1875 C 115.265625 -315.582031 121.3125 -303.488281 133.40625 -294.90625 L 196.609375 -248.671875 C 219.234375 -231.898438 236.585938 -213.664062 248.671875 -193.96875 C 260.765625 -174.269531 266.8125 -149.398438 266.8125 -119.359375 C 266.8125 -79.578125 255.5 -48.957031 232.875 -27.5 C 210.25 -6.039062 178.65625 4.6875 138.09375 4.6875 Z M 138.09375 4.6875 "/></g></g></g><g clip-path="url(#18cf5d64e4)"><path fill="#000000" d="M 1236.484375 903.054688 L 1720.753906 903.054688 L 1720.753906 1027.027344 L 1236.484375 1027.027344 Z M 1236.484375 903.054688 " fill-opacity="1" fill-rule="nonzero"/></g><g fill="#ffffff" fill-opacity="1"><g transform="translate(1261.030374, 993.750563)"><g><path d="M 28 -54.21875 C 31.882812 -54.21875 35.203125 -53.503906 37.953125 -52.078125 C 40.710938 -50.660156 42.796875 -48.671875 44.203125 -46.109375 C 45.617188 -43.554688 46.328125 -40.585938 46.328125 -37.203125 C 46.328125 -33.804688 45.617188 -30.835938 44.203125 -28.296875 C 42.796875 -25.753906 40.710938 -23.769531 37.953125 -22.34375 C 35.203125 -20.925781 31.882812 -20.21875 28 -20.21875 L 17.765625 -20.21875 L 17.765625 0 L 7.046875 0 L 7.046875 -54.21875 Z M 26.59375 -28.703125 C 32.550781 -28.703125 35.53125 -31.535156 35.53125 -37.203125 C 35.53125 -42.890625 32.550781 -45.734375 26.59375 -45.734375 L 17.765625 -45.734375 L 17.765625 -28.703125 Z M 26.59375 -28.703125 "/></g></g></g><g fill="#ffffff" fill-opacity="1"><g transform="translate(1310.576156, 993.750563)"><g><path d="M 29.5625 0.78125 C 24.59375 0.78125 20.207031 -0.226562 16.40625 -2.25 C 12.613281 -4.28125 9.640625 -7.378906 7.484375 -11.546875 C 5.335938 -15.710938 4.265625 -20.898438 4.265625 -27.109375 C 4.265625 -33.316406 5.335938 -38.503906 7.484375 -42.671875 C 9.640625 -46.835938 12.613281 -49.929688 16.40625 -51.953125 C 20.207031 -53.984375 24.59375 -55 29.5625 -55 C 34.53125 -55 38.90625 -53.988281 42.6875 -51.96875 C 46.46875 -49.957031 49.425781 -46.863281 51.5625 -42.6875 C 53.707031 -38.507812 54.78125 -33.316406 54.78125 -27.109375 C 54.78125 -20.898438 53.707031 -15.707031 51.5625 -11.53125 C 49.425781 -7.351562 46.46875 -4.253906 42.6875 -2.234375 C 38.90625 -0.222656 34.53125 0.78125 29.5625 0.78125 Z M 29.5625 -8.53125 C 34.15625 -8.53125 37.660156 -10.003906 40.078125 -12.953125 C 42.503906 -15.910156 43.71875 -20.628906 43.71875 -27.109375 C 43.71875 -33.585938 42.503906 -38.3125 40.078125 -41.28125 C 37.660156 -44.25 34.15625 -45.734375 29.5625 -45.734375 C 24.9375 -45.734375 21.40625 -44.25 18.96875 -41.28125 C 16.53125 -38.3125 15.3125 -33.585938 15.3125 -27.109375 C 15.3125 -20.628906 16.53125 -15.910156 18.96875 -12.953125 C 21.40625 -10.003906 24.9375 -8.53125 29.5625 -8.53125 Z M 29.5625 -8.53125 "/></g></g></g><g fill="#ffffff" fill-opacity="1"><g transform="translate(1369.652831, 993.750563)"><g><path d="M 7.046875 0 L 7.046875 -54.21875 L 28.8125 -54.21875 C 34.425781 -54.21875 38.660156 -52.925781 41.515625 -50.34375 C 44.367188 -47.757812 45.796875 -44.191406 45.796875 -39.640625 C 45.796875 -36.359375 44.960938 -33.664062 43.296875 -31.5625 C 41.628906 -29.457031 39.140625 -27.847656 35.828125 -26.734375 L 35.828125 -25.953125 C 37.535156 -25.210938 38.910156 -24.113281 39.953125 -22.65625 C 41.003906 -21.195312 42.003906 -19.035156 42.953125 -16.171875 L 48.359375 0 L 37.34375 0 L 32.046875 -16.203125 C 31.503906 -17.835938 30.890625 -19.101562 30.203125 -20 C 29.523438 -20.90625 28.660156 -21.5625 27.609375 -21.96875 C 26.554688 -22.375 25.191406 -22.578125 23.515625 -22.578125 L 17.765625 -22.578125 L 17.765625 0 Z M 27.515625 -31.078125 C 32.710938 -31.078125 35.3125 -33.5 35.3125 -38.34375 C 35.3125 -43.269531 32.710938 -45.734375 27.515625 -45.734375 L 17.765625 -45.734375 L 17.765625 -31.078125 Z M 27.515625 -31.078125 "/></g></g></g><g fill="#ffffff" fill-opacity="1"><g transform="translate(1420.348258, 993.750563)"><g><path d="M 43.46875 -54.21875 L 43.46875 -45.203125 L 27.8125 -45.203125 L 27.8125 0 L 17.140625 0 L 17.140625 -45.203125 L 1.484375 -45.203125 L 1.484375 -54.21875 Z M 43.46875 -54.21875 "/></g></g></g><g fill="#ffffff" fill-opacity="1"><g transform="translate(1465.295491, 993.750563)"><g><path d="M 41.421875 -54.21875 L 41.421875 -45.25 L 17.765625 -45.25 L 17.765625 -30.890625 L 39.234375 -30.890625 L 39.234375 -22.03125 L 17.765625 -22.03125 L 17.765625 0 L 7.046875 0 L 7.046875 -54.21875 Z M 41.421875 -54.21875 "/></g></g></g><g fill="#ffffff" fill-opacity="1"><g transform="translate(1509.130169, 993.750563)"><g><path d="M 29.5625 0.78125 C 24.59375 0.78125 20.207031 -0.226562 16.40625 -2.25 C 12.613281 -4.28125 9.640625 -7.378906 7.484375 -11.546875 C 5.335938 -15.710938 4.265625 -20.898438 4.265625 -27.109375 C 4.265625 -33.316406 5.335938 -38.503906 7.484375 -42.671875 C 9.640625 -46.835938 12.613281 -49.929688 16.40625 -51.953125 C 20.207031 -53.984375 24.59375 -55 29.5625 -55 C 34.53125 -55 38.90625 -53.988281 42.6875 -51.96875 C 46.46875 -49.957031 49.425781 -46.863281 51.5625 -42.6875 C 53.707031 -38.507812 54.78125 -33.316406 54.78125 -27.109375 C 54.78125 -20.898438 53.707031 -15.707031 51.5625 -11.53125 C 49.425781 -7.351562 46.46875 -4.253906 42.6875 -2.234375 C 38.90625 -0.222656 34.53125 0.78125 29.5625 0.78125 Z M 29.5625 -8.53125 C 34.15625 -8.53125 37.660156 -10.003906 40.078125 -12.953125 C 42.503906 -15.910156 43.71875 -20.628906 43.71875 -27.109375 C 43.71875 -33.585938 42.503906 -38.3125 40.078125 -41.28125 C 37.660156 -44.25 34.15625 -45.734375 29.5625 -45.734375 C 24.9375 -45.734375 21.40625 -44.25 18.96875 -41.28125 C 16.53125 -38.3125 15.3125 -33.585938 15.3125 -27.109375 C 15.3125 -20.628906 16.53125 -15.910156 18.96875 -12.953125 C 21.40625 -10.003906 24.9375 -8.53125 29.5625 -8.53125 Z M 29.5625 -8.53125 "/></g></g></g><g fill="#ffffff" fill-opacity="1"><g transform="translate(1568.206855, 993.750563)"><g><path d="M 17.765625 -54.21875 L 17.765625 -8.96875 L 42.125 -8.96875 L 42.125 0 L 7.046875 0 L 7.046875 -54.21875 Z M 17.765625 -54.21875 "/></g></g></g><g fill="#ffffff" fill-opacity="1"><g transform="translate(1612.115691, 993.750563)"><g><path d="M 17.765625 0 L 7.046875 0 L 7.046875 -54.21875 L 17.765625 -54.21875 Z M 17.765625 0 "/></g></g></g><g fill="#ffffff" fill-opacity="1"><g transform="translate(1636.962764, 993.750563)"><g><path d="M 29.5625 0.78125 C 24.59375 0.78125 20.207031 -0.226562 16.40625 -2.25 C 12.613281 -4.28125 9.640625 -7.378906 7.484375 -11.546875 C 5.335938 -15.710938 4.265625 -20.898438 4.265625 -27.109375 C 4.265625 -33.316406 5.335938 -38.503906 7.484375 -42.671875 C 9.640625 -46.835938 12.613281 -49.929688 16.40625 -51.953125 C 20.207031 -53.984375 24.59375 -55 29.5625 -55 C 34.53125 -55 38.90625 -53.988281 42.6875 -51.96875 C 46.46875 -49.957031 49.425781 -46.863281 51.5625 -42.6875 C 53.707031 -38.507812 54.78125 -33.316406 54.78125 -27.109375 C 54.78125 -20.898438 53.707031 -15.707031 51.5625 -11.53125 C 49.425781 -7.351562 46.46875 -4.253906 42.6875 -2.234375 C 38.90625 -0.222656 34.53125 0.78125 29.5625 0.78125 Z M 29.5625 -8.53125 C 34.15625 -8.53125 37.660156 -10.003906 40.078125 -12.953125 C 42.503906 -15.910156 43.71875 -20.628906 43.71875 -27.109375 C 43.71875 -33.585938 42.503906 -38.3125 40.078125 -41.28125 C 37.660156 -44.25 34.15625 -45.734375 29.5625 -45.734375 C 24.9375 -45.734375 21.40625 -44.25 18.96875 -41.28125 C 16.53125 -38.3125 15.3125 -33.585938 15.3125 -27.109375 C 15.3125 -20.628906 16.53125 -15.910156 18.96875 -12.953125 C 21.40625 -10.003906 24.9375 -8.53125 29.5625 -8.53125 Z M 29.5625 -8.53125 "/></g></g></g></svg>